SplineFontDB: 3.0
FontName: Lustria-Regular
FullName: Lustria
FamilyName: Lustria
Weight: Book
Copyright: Copyright (c) 2011, Matthew Desmond (http://www.madtype.com | mattdesmond@gmail.com), with Reserved Font Name Lustria
Version: 001.001
ItalicAngle: 0
UnderlinePosition: -113
UnderlineWidth: 20
Ascent: 800
Descent: 200
sfntRevision: 0x00010042
LayerCount: 2
Layer: 0 1 "Back"  1
Layer: 1 1 "Fore"  0
XUID: [1021 987 1190633270 3792972]
FSType: 0
OS2Version: 2
OS2_WeightWidthSlopeOnly: 0
OS2_UseTypoMetrics: 1
CreationTime: 1326325464
ModificationTime: 1326322698
PfmFamily: 17
TTFWeight: 400
TTFWidth: 5
LineGap: 0
VLineGap: 0
Panose: 2 0 6 3 6 0 0 2 0 4
OS2TypoAscent: 155
OS2TypoAOffset: 1
OS2TypoDescent: -27
OS2TypoDOffset: 1
OS2TypoLinegap: 0
OS2WinAscent: 0
OS2WinAOffset: 1
OS2WinDescent: 0
OS2WinDOffset: 1
HheadAscent: 0
HheadAOffset: 1
HheadDescent: 0
HheadDOffset: 1
OS2SubXSize: 700
OS2SubYSize: 650
OS2SubXOff: 0
OS2SubYOff: 140
OS2SupXSize: 700
OS2SupYSize: 650
OS2SupXOff: 0
OS2SupYOff: 477
OS2StrikeYSize: 50
OS2StrikeYPos: 250
OS2Vendor: 'MADT'
OS2CodePages: 00000001.00000000
OS2UnicodeRanges: 8000006f.5000004a.00000000.00000000
Lookup: 258 0 0 "'kern' Horizontal Kerning in Latin lookup 0"  {"'kern' Horizontal Kerning in Latin lookup 0 subtable"  } ['kern' ('DFLT' <'dflt' > 'latn' <'dflt' > ) ]
DEI: 91125
TtTable: prep
PUSHW_1
 511
SCANCTRL
PUSHB_1
 4
SCANTYPE
EndTTInstrs
ShortTable: maxp 16
  1
  0
  264
  104
  7
  87
  4
  2
  0
  1
  1
  0
  64
  0
  2
  1
EndShort
LangName: 1033 "" "" "" "MatthewDesmond: Lustria: 2011" "" "Version 001.001" "" "Lustria is a trademark of Matthew Desmond." "Matthew Desmond" "Matthew Desmond" "" "http://www.madtype.com" "http://www.madtype.com" "This Font Software is licensed under the SIL Open Font License, Version 1.1. This license is available with a FAQ at: http://scripts.sil.org/OFL" "http://scripts.sil.org/OFL" 
GaspTable: 1 65535 15 1
Encoding: UnicodeBmp
UnicodeInterp: none
NameList: Adobe Glyph List

StartChar: exclam
Encoding: 33 33 4
Width: 263
GlyphClass: 2
Flags: W
LayerCount: 2
Fore
SplineSet
181 668 m 1,0,1
 181 668 181 668 149 231 c 0,2,3
 149 220 149 220 136 220 c 2,4,-1
 126 220 l 2,5,6
 114 220 114 220 113 231 c 0,7,8
 107 320 107 320 94 485.5 c 128,-1,9
 81 651 81 651 81 670.5 c 128,-1,10
 81 690 81 690 96 700.5 c 128,-1,11
 111 711 111 711 131.5 711 c 128,-1,12
 152 711 152 711 166.5 700 c 128,-1,13
 181 689 181 689 181 668 c 1,0,1
174.5 94 m 128,-1,15
 193 76 193 76 193 50.5 c 128,-1,16
 193 25 193 25 174.5 7 c 128,-1,17
 156 -11 156 -11 131 -11 c 128,-1,18
 106 -11 106 -11 88 7 c 128,-1,19
 70 25 70 25 70 50 c 128,-1,20
 70 75 70 75 88 93.5 c 128,-1,21
 106 112 106 112 131 112 c 128,-1,14
 156 112 156 112 174.5 94 c 128,-1,15
EndSplineSet
EndChar

StartChar: quotedbl
Encoding: 34 34 5
Width: 337
GlyphClass: 2
Flags: W
LayerCount: 2
Fore
SplineSet
111 463 m 2,0,-1
 78 463 l 2,1,2
 67 463 67 463 67 475 c 2,3,-1
 50 699 l 2,4,5
 50 711 50 711 61 711 c 2,6,-1
 128 711 l 2,7,8
 139 711 139 711 139 699 c 2,9,-1
 122 475 l 2,10,11
 122 463 122 463 111 463 c 2,0,-1
259 463 m 2,12,-1
 226 463 l 2,13,14
 215 463 215 463 215 475 c 2,15,-1
 198 699 l 2,16,17
 198 711 198 711 209 711 c 2,18,-1
 276 711 l 2,19,20
 287 711 287 711 287 699 c 2,21,-1
 270 475 l 2,22,23
 270 463 270 463 259 463 c 2,12,-1
EndSplineSet
EndChar

StartChar: numbersign
Encoding: 35 35 6
Width: 668
GlyphClass: 2
Flags: W
LayerCount: 2
Fore
SplineSet
607 510 m 2,0,1
 618 510 618 510 618 502 c 0,2,3
 618 500 618 500 617 498 c 2,4,-1
 609 467 l 2,5,6
 605 455 605 455 596 455 c 2,7,-1
 483 455 l 1,8,-1
 436 241 l 1,9,-1
 569 241 l 2,10,11
 582 241 582 241 579 229 c 2,12,-1
 571 198 l 2,13,14
 567 186 567 186 558 186 c 2,15,-1
 424 186 l 1,16,-1
 383 1 l 2,17,18
 381 -11 381 -11 369 -11 c 2,19,-1
 333 -11 l 2,20,21
 328 -11 328 -11 324.5 -7.5 c 128,-1,22
 321 -4 321 -4 322 1 c 2,23,-1
 363 186 l 1,24,-1
 214 186 l 1,25,-1
 173 1 l 2,26,27
 171 -11 171 -11 159 -11 c 2,28,-1
 123 -11 l 2,29,30
 118 -11 118 -11 114.5 -7.5 c 128,-1,31
 111 -4 111 -4 112 1 c 2,32,-1
 153 186 l 1,33,-1
 63 186 l 2,34,35
 58 186 58 186 54 190 c 128,-1,36
 50 194 50 194 51 198 c 2,37,-1
 59 229 l 2,38,39
 62 241 62 241 72 241 c 2,40,-1
 165 241 l 1,41,-1
 212 455 l 1,42,-1
 101 455 l 2,43,44
 96 455 96 455 92 458.5 c 128,-1,45
 88 462 88 462 89 467 c 2,46,-1
 97 498 l 2,47,48
 100 510 100 510 110 510 c 2,49,-1
 225 510 l 1,50,-1
 267 699 l 2,51,52
 269 711 269 711 281 711 c 2,53,-1
 318 711 l 2,54,55
 330 711 330 711 328 699 c 2,56,-1
 286 510 l 1,57,-1
 435 510 l 1,58,-1
 477 699 l 2,59,60
 479 711 479 711 491 711 c 2,61,-1
 528 711 l 2,62,63
 540 711 540 711 538 699 c 2,64,-1
 496 510 l 1,65,-1
 607 510 l 2,0,1
273 455 m 1,66,-1
 226 241 l 1,67,-1
 375 241 l 1,68,-1
 422 455 l 1,69,-1
 273 455 l 1,66,-1
EndSplineSet
EndChar

StartChar: dollar
Encoding: 36 36 7
Width: 571
GlyphClass: 2
Flags: W
LayerCount: 2
Fore
SplineSet
258 -108 m 2,0,-1
 258 -11 l 1,1,2
 171 -9 171 -9 110.5 15 c 128,-1,3
 50 39 50 39 50 66 c 2,4,-1
 50 183 l 2,5,6
 50 204 50 204 66 204 c 0,7,8
 79 204 79 204 84 185 c 1,9,10
 109 113 109 113 146 75.5 c 128,-1,11
 183 38 183 38 258 33 c 1,12,-1
 258 326 l 1,13,14
 212 348 212 348 185 363 c 128,-1,15
 158 378 158 378 126 404 c 1,16,17
 62 453 62 453 62 530 c 128,-1,18
 62 607 62 607 116.5 654.5 c 128,-1,19
 171 702 171 702 258 710 c 1,20,-1
 258 786 l 2,21,22
 258 798 258 798 269 798 c 2,23,-1
 296 798 l 2,24,25
 307 798 307 798 307 786 c 2,26,-1
 307 710 l 1,27,28
 376 707 376 707 428.5 686.5 c 128,-1,29
 481 666 481 666 481 642 c 2,30,-1
 481 541 l 2,31,32
 481 521 481 521 466.5 521 c 128,-1,33
 452 521 452 521 445 541 c 0,34,35
 425 600 425 600 395 630.5 c 128,-1,36
 365 661 365 661 307 666 c 1,37,-1
 307 398 l 1,38,39
 418 344 418 344 453 312 c 0,40,41
 501 269 501 269 511 238.5 c 128,-1,42
 521 208 521 208 521 181 c 0,43,44
 521 95 521 95 461.5 46.5 c 128,-1,45
 402 -2 402 -2 307 -9 c 1,46,-1
 307 -108 l 2,47,48
 307 -120 307 -120 296 -120 c 2,49,-1
 269 -120 l 2,50,51
 258 -120 258 -120 258 -108 c 2,0,-1
399 75 m 128,-1,53
 436 108 436 108 436 157.5 c 128,-1,54
 436 207 436 207 402.5 239 c 128,-1,55
 369 271 369 271 307 302 c 1,56,-1
 307 35 l 1,57,52
 362 42 362 42 399 75 c 128,-1,53
173.5 627.5 m 128,-1,59
 143 597 143 597 143 553.5 c 128,-1,60
 143 510 143 510 172.5 480.5 c 128,-1,61
 202 451 202 451 258 422 c 1,62,-1
 258 665 l 1,63,58
 204 658 204 658 173.5 627.5 c 128,-1,59
EndSplineSet
EndChar

StartChar: percent
Encoding: 37 37 8
Width: 855
GlyphClass: 2
Flags: W
LayerCount: 2
Fore
SplineSet
121 501 m 128,-1,1
 121 343 121 343 202 343 c 128,-1,2
 283 343 283 343 283 501 c 128,-1,3
 283 659 283 659 202 659 c 128,-1,0
 121 659 121 659 121 501 c 128,-1,1
50 501 m 128,-1,5
 50 588 50 588 90.5 644 c 128,-1,6
 131 700 131 700 202 700 c 128,-1,7
 273 700 273 700 313.5 644 c 128,-1,8
 354 588 354 588 354 501 c 128,-1,9
 354 414 354 414 313.5 358 c 128,-1,10
 273 302 273 302 202 302 c 128,-1,11
 131 302 131 302 90.5 358 c 128,-1,4
 50 414 50 414 50 501 c 128,-1,5
734 199 m 128,-1,13
 734 357 734 357 653 357 c 128,-1,14
 572 357 572 357 572 199 c 128,-1,15
 572 41 572 41 653 41 c 128,-1,12
 734 41 734 41 734 199 c 128,-1,13
805 199 m 128,-1,17
 805 112 805 112 764.5 56 c 128,-1,18
 724 0 724 0 653 0 c 128,-1,19
 582 0 582 0 541.5 56 c 128,-1,20
 501 112 501 112 501 199 c 128,-1,21
 501 286 501 286 541.5 342 c 128,-1,22
 582 398 582 398 653 398 c 128,-1,23
 724 398 724 398 764.5 342 c 128,-1,16
 805 286 805 286 805 199 c 128,-1,17
244 -23 m 2,24,-1
 209 -23 l 2,25,26
 201 -23 201 -23 201 -19 c 128,-1,27
 201 -15 201 -15 203 -11 c 2,28,-1
 592 711 l 2,29,30
 598 723 598 723 610 723 c 2,31,-1
 645 723 l 2,32,33
 653 723 653 723 653 719 c 128,-1,34
 653 715 653 715 651 711 c 2,35,-1
 262 -11 l 2,36,37
 256 -23 256 -23 244 -23 c 2,24,-1
EndSplineSet
EndChar

StartChar: ampersand
Encoding: 38 38 9
Width: 715
GlyphClass: 2
Flags: W
LayerCount: 2
Fore
SplineSet
508 575 m 0,0,1
 508 539 508 539 496.5 520.5 c 128,-1,2
 485 502 485 502 479 492 c 128,-1,3
 473 482 473 482 456.5 469 c 128,-1,4
 440 456 440 456 433.5 450 c 128,-1,5
 427 444 427 444 404 431 c 128,-1,6
 381 418 381 418 375 414 c 0,7,8
 363 406 363 406 311 380 c 1,9,10
 375 287 375 287 489 177 c 1,11,12
 513 226 513 226 530 306 c 0,13,14
 532 314 532 314 532 321 c 0,15,16
 532 344 532 344 509 345 c 2,17,-1
 474 347 l 2,18,19
 462 347 462 347 462 360.5 c 128,-1,20
 462 374 462 374 477 374 c 2,21,-1
 567 372 l 1,22,-1
 652 375 l 2,23,24
 666 375 666 375 666 363 c 128,-1,25
 666 351 666 351 655 349 c 2,26,-1
 635 346 l 2,27,28
 610 343 610 343 596.5 334.5 c 128,-1,29
 583 326 583 326 578 306 c 0,30,31
 553 202 553 202 524 145 c 1,32,33
 572 100 572 100 614 66 c 1,34,35
 658 28 658 28 684 25 c 2,36,-1
 702 23 l 2,37,38
 714 22 714 22 714 9 c 128,-1,39
 714 -4 714 -4 700 -4 c 0,40,41
 604 0 604 0 583 0 c 128,-1,42
 562 0 562 0 540 20 c 0,43,44
 500 55 500 55 479 76 c 1,45,46
 404 -11 404 -11 278 -11 c 0,47,48
 181 -11 181 -11 115.5 38.5 c 128,-1,49
 50 88 50 88 50 163.5 c 128,-1,50
 50 239 50 239 93.5 287 c 128,-1,51
 137 335 137 335 215 380 c 1,52,53
 157 478 157 478 157 550.5 c 128,-1,54
 157 623 157 623 207.5 667 c 128,-1,55
 258 711 258 711 334 711 c 128,-1,56
 410 711 410 711 459 672.5 c 128,-1,57
 508 634 508 634 508 575 c 0,0,1
146 184 m 0,58,59
 146 122 146 122 186.5 79 c 128,-1,60
 227 36 227 36 288 36 c 0,61,62
 385 36 385 36 445 108 c 1,63,64
 311 236 311 236 241 338 c 1,65,66
 146 273 146 273 146 184 c 0,58,59
234 577 m 0,67,68
 234 510 234 510 286 419 c 1,69,70
 355 458 355 458 385.5 483 c 128,-1,71
 416 508 416 508 427 530 c 128,-1,72
 438 552 438 552 438 584.5 c 128,-1,73
 438 617 438 617 409 643 c 128,-1,74
 380 669 380 669 335.5 669 c 128,-1,75
 291 669 291 669 262.5 643 c 128,-1,76
 234 617 234 617 234 577 c 0,67,68
EndSplineSet
EndChar

StartChar: quotesingle
Encoding: 39 39 10
Width: 189
GlyphClass: 2
Flags: W
LayerCount: 2
Fore
SplineSet
111 463 m 2,0,-1
 78 463 l 2,1,2
 67 463 67 463 67 475 c 2,3,-1
 50 699 l 2,4,5
 50 711 50 711 61 711 c 2,6,-1
 128 711 l 2,7,8
 139 711 139 711 139 699 c 2,9,-1
 122 475 l 2,10,11
 122 463 122 463 111 463 c 2,0,-1
EndSplineSet
EndChar

StartChar: parenleft
Encoding: 40 40 11
Width: 375
GlyphClass: 2
Flags: W
LayerCount: 2
Fore
SplineSet
55 277 m 128,-1,1
 55 373 55 373 80 458 c 128,-1,2
 105 543 105 543 146 603 c 0,3,4
 226 721 226 721 319 768 c 0,5,6
 325 770 325 770 328 770 c 0,7,8
 345 770 345 770 345 754 c 0,9,10
 345 746 345 746 338 740 c 0,11,12
 258 673 258 673 201 572 c 0,13,14
 137 457 137 457 137 277 c 128,-1,15
 137 97 137 97 201 -18 c 0,16,17
 258 -119 258 -119 338 -186 c 0,18,19
 345 -192 345 -192 345 -200 c 0,20,21
 345 -216 345 -216 328 -216 c 0,22,23
 325 -216 325 -216 319 -214 c 0,24,25
 226 -167 226 -167 146 -49 c 0,26,27
 105 11 105 11 80 96 c 128,-1,0
 55 181 55 181 55 277 c 128,-1,1
EndSplineSet
EndChar

StartChar: parenright
Encoding: 41 41 12
Width: 375
GlyphClass: 2
Flags: W
LayerCount: 2
Fore
SplineSet
320 277 m 128,-1,1
 320 181 320 181 295 96 c 128,-1,2
 270 11 270 11 229 -49 c 0,3,4
 149 -167 149 -167 56 -214 c 0,5,6
 50 -216 50 -216 47 -216 c 0,7,8
 30 -216 30 -216 30 -200 c 0,9,10
 30 -192 30 -192 37 -186 c 0,11,12
 117 -119 117 -119 174 -18 c 0,13,14
 238 97 238 97 238 277 c 128,-1,15
 238 457 238 457 174 572 c 0,16,17
 117 673 117 673 37 740 c 0,18,19
 30 746 30 746 30 754 c 0,20,21
 30 770 30 770 47 770 c 0,22,23
 50 770 50 770 56 768 c 0,24,25
 149 721 149 721 229 603 c 0,26,27
 270 543 270 543 295 458 c 128,-1,0
 320 373 320 373 320 277 c 128,-1,1
EndSplineSet
EndChar

StartChar: asterisk
Encoding: 42 42 13
Width: 489
GlyphClass: 2
Flags: W
LayerCount: 2
Fore
SplineSet
217 711 m 2,0,-1
 272 711 l 2,1,2
 277 711 277 711 280.5 707.5 c 128,-1,3
 284 704 284 704 283 699 c 2,4,-1
 265 545 l 1,5,-1
 406 610 l 2,6,7
 417 616 417 616 421 603 c 2,8,-1
 438 551 l 2,9,10
 439 548 439 548 439 546 c 0,11,12
 439 539 439 539 430 537 c 2,13,-1
 278 506 l 1,14,-1
 383 392 l 2,15,16
 392 383 392 383 381 375 c 2,17,-1
 337 343 l 2,18,19
 333 340 333 340 329 340 c 128,-1,20
 325 340 325 340 321 346 c 2,21,-1
 245 481 l 1,22,-1
 169 346 l 2,23,24
 165 339 165 339 160.5 339 c 128,-1,25
 156 339 156 339 152 342 c 2,26,-1
 108 374 l 1,27,28
 99 382 99 382 106 391 c 2,29,-1
 212 506 l 1,30,-1
 60 536 l 1,31,32
 50 539 50 539 50 547 c 0,33,34
 50 549 50 549 51 551 c 2,35,-1
 68 603 l 2,36,37
 72 614 72 614 83 610 c 2,38,-1
 224 545 l 1,39,-1
 206 699 l 2,40,41
 205 704 205 704 208.5 707.5 c 128,-1,42
 212 711 212 711 217 711 c 2,0,-1
EndSplineSet
EndChar

StartChar: plus
Encoding: 43 43 14
Width: 674
GlyphClass: 2
Flags: W
LayerCount: 2
Fore
SplineSet
602 264 m 2,0,-1
 368 264 l 1,1,-1
 368 30 l 2,2,3
 368 18 368 18 357 18 c 2,4,-1
 317 18 l 2,5,6
 306 18 306 18 306 30 c 2,7,-1
 306 264 l 1,8,-1
 72 264 l 2,9,10
 60 264 60 264 60 275 c 2,11,-1
 60 315 l 2,12,13
 60 326 60 326 72 326 c 2,14,-1
 306 326 l 1,15,-1
 306 560 l 2,16,17
 306 572 306 572 317 572 c 2,18,-1
 357 572 l 2,19,20
 368 572 368 572 368 560 c 2,21,-1
 368 326 l 1,22,-1
 602 326 l 2,23,24
 614 326 614 326 614 315 c 2,25,-1
 614 275 l 2,26,27
 614 264 614 264 602 264 c 2,0,-1
EndSplineSet
EndChar

StartChar: comma
Encoding: 44 44 15
Width: 246
GlyphClass: 2
Flags: W
LayerCount: 2
Fore
SplineSet
78 -135 m 0,0,1
 60 -135 60 -135 60 -118 c 0,2,3
 60 -109 60 -109 67 -104 c 0,4,5
 119 -65 119 -65 122 -13 c 1,6,7
 92 -11 92 -11 76 6.5 c 128,-1,8
 60 24 60 24 60 49.5 c 128,-1,9
 60 75 60 75 78 93.5 c 128,-1,10
 96 112 96 112 122 112 c 128,-1,11
 148 112 148 112 167 91 c 128,-1,12
 186 70 186 70 186 26 c 128,-1,13
 186 -18 186 -18 156 -64 c 128,-1,14
 126 -110 126 -110 92 -130 c 0,15,16
 84 -135 84 -135 78 -135 c 0,0,1
EndSplineSet
EndChar

StartChar: hyphen
Encoding: 45 45 16
Width: 365
GlyphClass: 2
Flags: W
LayerCount: 2
Fore
SplineSet
82 329 m 2,0,-1
 283 329 l 2,1,2
 295 329 295 329 295 318 c 2,3,-1
 295 271 l 2,4,5
 295 260 295 260 283 260 c 2,6,-1
 82 260 l 2,7,8
 70 260 70 260 70 271 c 2,9,-1
 70 318 l 2,10,11
 70 329 70 329 82 329 c 2,0,-1
EndSplineSet
EndChar

StartChar: period
Encoding: 46 46 17
Width: 243
GlyphClass: 2
Flags: W
LayerCount: 2
Fore
SplineSet
164.5 94 m 128,-1,1
 183 76 183 76 183 50.5 c 128,-1,2
 183 25 183 25 164.5 7 c 128,-1,3
 146 -11 146 -11 121 -11 c 128,-1,4
 96 -11 96 -11 78 7 c 128,-1,5
 60 25 60 25 60 50 c 128,-1,6
 60 75 60 75 78 93.5 c 128,-1,7
 96 112 96 112 121 112 c 128,-1,0
 146 112 146 112 164.5 94 c 128,-1,1
EndSplineSet
EndChar

StartChar: slash
Encoding: 47 47 18
Width: 345
GlyphClass: 2
Flags: W
LayerCount: 2
Fore
SplineSet
81 -90 m 2,0,-1
 41 -90 l 2,1,2
 29 -90 29 -90 31 -78 c 1,3,-1
 250 756 l 1,4,5
 252 768 252 768 264 768 c 2,6,-1
 304 768 l 2,7,8
 316 768 316 768 314 756 c 1,9,-1
 95 -78 l 1,10,11
 93 -90 93 -90 81 -90 c 2,0,-1
EndSplineSet
EndChar

StartChar: zero
Encoding: 48 48 19
Width: 620
GlyphClass: 2
Flags: W
LayerCount: 2
Fore
SplineSet
144 350 m 128,-1,1
 144 32 144 32 310 32 c 128,-1,2
 476 32 476 32 476 350 c 128,-1,3
 476 668 476 668 310 668 c 128,-1,0
 144 668 144 668 144 350 c 128,-1,1
50 350 m 128,-1,5
 50 510 50 510 117.5 610.5 c 128,-1,6
 185 711 185 711 310 711 c 128,-1,7
 435 711 435 711 502.5 610.5 c 128,-1,8
 570 510 570 510 570 350 c 128,-1,9
 570 190 570 190 502.5 89.5 c 128,-1,10
 435 -11 435 -11 310 -11 c 128,-1,11
 185 -11 185 -11 117.5 89.5 c 128,-1,4
 50 190 50 190 50 350 c 128,-1,5
EndSplineSet
EndChar

StartChar: one
Encoding: 49 49 20
Width: 417
GlyphClass: 2
Flags: W
LayerCount: 2
Fore
SplineSet
367 11 m 0,0,1
 367 5 367 5 362.5 0.5 c 128,-1,2
 358 -4 358 -4 353 -4 c 2,3,-1
 215 0 l 1,4,-1
 69 -4 l 2,5,6
 54 -4 54 -4 54 10.5 c 128,-1,7
 54 25 54 25 67 25 c 2,8,-1
 120 27 l 1,9,10
 140 29 140 29 156 39 c 128,-1,11
 172 49 172 49 172 68 c 2,12,-1
 172 623 l 2,13,14
 172 662 172 662 131 662 c 0,15,16
 129 662 129 662 127 662 c 2,17,-1
 61 659 l 2,18,19
 50 659 50 659 50 672 c 128,-1,20
 50 685 50 685 64 687 c 2,21,-1
 242 711 l 1,22,23
 257 711 257 711 257 700 c 2,24,-1
 257 68 l 2,25,26
 257 31 257 31 302 27 c 1,27,-1
 355 25 l 2,28,29
 367 25 367 25 367 11 c 0,0,1
EndSplineSet
EndChar

StartChar: two
Encoding: 50 50 21
Width: 519
GlyphClass: 2
Flags: W
LayerCount: 2
Fore
SplineSet
426 0 m 2,0,-1
 52 0 l 2,1,2
 40 0 40 0 40 11 c 2,3,-1
 40 20 l 2,4,5
 40 29 40 29 45 37 c 0,6,7
 90 107 90 107 155 197.5 c 128,-1,8
 220 288 220 288 253 335.5 c 128,-1,9
 286 383 286 383 312 440.5 c 128,-1,10
 338 498 338 498 338 551.5 c 128,-1,11
 338 605 338 605 307.5 638.5 c 128,-1,12
 277 672 277 672 224.5 672 c 128,-1,13
 172 672 172 672 142.5 639 c 128,-1,14
 113 606 113 606 100 563 c 0,15,16
 95 545 95 545 79 545 c 0,17,18
 72 545 72 545 67 550.5 c 128,-1,19
 62 556 62 556 62 563 c 2,20,-1
 62 642 l 2,21,22
 62 664 62 664 114 687.5 c 128,-1,23
 166 711 166 711 232 711 c 0,24,25
 324 711 324 711 377.5 663 c 128,-1,26
 431 615 431 615 431 539 c 0,27,28
 431 491 431 491 407 440.5 c 128,-1,29
 383 390 383 390 351.5 351 c 128,-1,30
 320 312 320 312 253 231.5 c 128,-1,31
 186 151 186 151 137 85 c 1,32,-1
 384 85 l 2,33,34
 418 85 418 85 426.5 100.5 c 128,-1,35
 435 116 435 116 445 116 c 0,36,37
 460 116 460 116 458 97 c 2,38,-1
 453 32 l 2,39,40
 452 17 452 17 444 8.5 c 128,-1,41
 436 0 436 0 426 0 c 2,0,-1
EndSplineSet
EndChar

StartChar: three
Encoding: 51 51 22
Width: 472
GlyphClass: 2
Flags: W
LayerCount: 2
Fore
SplineSet
357 328 m 128,-1,1
 412 281 412 281 412 214.5 c 128,-1,2
 412 148 412 148 380 102.5 c 128,-1,3
 348 57 348 57 296 32 c 0,4,5
 191 -20 191 -20 70 -20 c 0,6,7
 44 -20 44 -20 44 1 c 0,8,9
 44 8 44 8 51 14.5 c 128,-1,10
 58 21 58 21 70 22 c 0,11,12
 179 31 179 31 247.5 75 c 128,-1,13
 316 119 316 119 316 203 c 0,14,15
 316 267 316 267 270.5 303 c 128,-1,16
 225 339 225 339 143 340 c 0,17,18
 112 340 112 340 112 358 c 0,19,20
 112 368 112 368 123 375 c 0,21,22
 220 431 220 431 258.5 478.5 c 128,-1,23
 297 526 297 526 297 572.5 c 128,-1,24
 297 619 297 619 271 645.5 c 128,-1,25
 245 672 245 672 206.5 672 c 128,-1,26
 168 672 168 672 144 657 c 128,-1,27
 120 642 120 642 109.5 626.5 c 128,-1,28
 99 611 99 611 84.5 579 c 128,-1,29
 70 547 70 547 56 547 c 0,30,31
 49 547 49 547 44.5 553 c 128,-1,32
 40 559 40 559 40 564 c 2,33,-1
 40 643 l 2,34,35
 40 665 40 665 88.5 688 c 128,-1,36
 137 711 137 711 210.5 711 c 128,-1,37
 284 711 284 711 337.5 677 c 128,-1,38
 391 643 391 643 391 576 c 0,39,40
 391 513 391 513 332 460 c 0,41,42
 289 421 289 421 223 381 c 1,43,0
 302 375 302 375 357 328 c 128,-1,1
EndSplineSet
EndChar

StartChar: four
Encoding: 52 52 23
Width: 539
GlyphClass: 2
Flags: W
LayerCount: 2
Fore
SplineSet
509 215 m 2,0,1
 509 194 509 194 491 194 c 2,2,-1
 417 194 l 1,3,-1
 417 21 l 2,4,5
 417 0 417 0 396 0 c 2,6,-1
 354 0 l 2,7,8
 333 0 333 0 333 21 c 2,9,-1
 333 194 l 1,10,-1
 22 194 l 2,11,12
 10 194 10 194 10 205 c 2,13,-1
 10 218 l 2,14,15
 10 228 10 228 15 235 c 2,16,-1
 349 696 l 2,17,18
 360 711 360 711 375 711 c 2,19,-1
 394 711 l 2,20,21
 407 711 407 711 412 705.5 c 128,-1,22
 417 700 417 700 417 687 c 2,23,-1
 417 252 l 1,24,-1
 491 252 l 2,25,26
 509 252 509 252 509 236 c 2,27,-1
 509 215 l 2,0,1
333 252 m 1,28,-1
 333 595 l 1,29,-1
 101 268 l 2,30,31
 97 261 97 261 97 256.5 c 128,-1,32
 97 252 97 252 105 252 c 2,33,-1
 333 252 l 1,28,-1
EndSplineSet
EndChar

StartChar: five
Encoding: 53 53 24
Width: 471
GlyphClass: 2
Flags: W
LayerCount: 2
Fore
SplineSet
374 615 m 2,0,-1
 150 615 l 1,1,-1
 131 459 l 1,2,3
 253 441 253 441 327 382 c 128,-1,4
 401 323 401 323 401 230 c 0,5,6
 401 169 401 169 369.5 119.5 c 128,-1,7
 338 70 338 70 288 40 c 0,8,9
 187 -20 187 -20 76 -20 c 0,10,11
 50 -20 50 -20 50 1 c 0,12,13
 50 19 50 19 76 22 c 0,14,15
 172 33 172 33 242 83 c 128,-1,16
 312 133 312 133 312 207.5 c 128,-1,17
 312 282 312 282 253 325.5 c 128,-1,18
 194 369 194 369 94 381 c 0,19,20
 81 382 81 382 77.5 386.5 c 128,-1,21
 74 391 74 391 76 403 c 2,22,-1
 110 689 l 2,23,24
 112 700 112 700 122 700 c 2,25,-1
 385 700 l 2,26,27
 390 700 390 700 393 696.5 c 128,-1,28
 396 693 396 693 395 689 c 2,29,-1
 388 627 l 2,30,31
 386 615 386 615 374 615 c 2,0,-1
EndSplineSet
EndChar

StartChar: six
Encoding: 54 54 25
Width: 559
GlyphClass: 2
Flags: W
LayerCount: 2
Fore
SplineSet
445.5 53 m 128,-1,1
 383 -11 383 -11 281.5 -11 c 128,-1,2
 180 -11 180 -11 120 56.5 c 128,-1,3
 60 124 60 124 60 248.5 c 128,-1,4
 60 373 60 373 148 507.5 c 128,-1,5
 236 642 236 642 384 711 c 0,6,7
 385 712 385 712 393 712 c 128,-1,8
 401 712 401 712 409.5 707.5 c 128,-1,9
 418 703 418 703 418 690.5 c 128,-1,10
 418 678 418 678 403 669 c 0,11,12
 215 556 215 556 164 365 c 1,13,14
 217 413 217 413 297 413 c 0,15,16
 399 413 399 413 454 352 c 128,-1,17
 509 291 509 291 508.5 204 c 128,-1,0
 508 117 508 117 445.5 53 c 128,-1,1
284 31 m 128,-1,19
 345 31 345 31 381.5 78.5 c 128,-1,20
 418 126 418 126 418 202.5 c 128,-1,21
 418 279 418 279 381 321.5 c 128,-1,22
 344 364 344 364 284 364 c 128,-1,23
 224 364 224 364 187 321.5 c 128,-1,24
 150 279 150 279 150 202.5 c 128,-1,25
 150 126 150 126 186.5 78.5 c 128,-1,18
 223 31 223 31 284 31 c 128,-1,19
EndSplineSet
EndChar

StartChar: seven
Encoding: 55 55 26
Width: 447
GlyphClass: 2
Flags: W
LayerCount: 2
Fore
SplineSet
406 700 m 2,0,1
 417 700 417 700 417 690 c 0,2,3
 417 687 417 687 416 685 c 0,4,5
 265 241 265 241 208 12 c 0,6,7
 206 0 206 0 194 0 c 2,8,-1
 130 0 l 2,9,10
 125 0 125 0 121.5 4 c 128,-1,11
 118 8 118 8 120 13 c 0,12,13
 161 148 161 148 346 615 c 1,14,-1
 94 615 l 2,15,16
 60 615 60 615 52 599.5 c 128,-1,17
 44 584 44 584 32 584 c 128,-1,18
 20 584 20 584 20 600 c 0,19,20
 20 602 20 602 25 668 c 0,21,22
 26 683 26 683 34 691.5 c 128,-1,23
 42 700 42 700 52 700 c 2,24,-1
 406 700 l 2,0,1
EndSplineSet
EndChar

StartChar: eight
Encoding: 56 56 27
Width: 524
GlyphClass: 2
Flags: W
LayerCount: 2
Fore
SplineSet
110 37 m 128,-1,1
 55 85 55 85 55 152.5 c 128,-1,2
 55 220 55 220 91 265.5 c 128,-1,3
 127 311 127 311 193 357 c 1,4,5
 139 397 139 397 109 440 c 128,-1,6
 79 483 79 483 79 549 c 128,-1,7
 79 615 79 615 134 663 c 128,-1,8
 189 711 189 711 266 711 c 128,-1,9
 343 711 343 711 393 668 c 128,-1,10
 443 625 443 625 443 565.5 c 128,-1,11
 443 506 443 506 411.5 464.5 c 128,-1,12
 380 423 380 423 322 383 c 1,13,14
 391 337 391 337 430 289 c 128,-1,15
 469 241 469 241 469 165.5 c 128,-1,16
 469 90 469 90 403.5 39.5 c 128,-1,17
 338 -11 338 -11 251.5 -11 c 128,-1,0
 165 -11 165 -11 110 37 c 128,-1,1
336 253 m 0,18,19
 309 277 309 277 293.5 288 c 128,-1,20
 278 299 278 299 237 326 c 1,21,22
 176 285 176 285 143.5 246.5 c 128,-1,23
 111 208 111 208 111 156.5 c 128,-1,24
 111 105 111 105 152 69 c 128,-1,25
 193 33 193 33 249 33 c 128,-1,26
 305 33 305 33 344.5 68 c 128,-1,27
 384 103 384 103 384 156.5 c 128,-1,28
 384 210 384 210 336 253 c 0,18,19
192 637.5 m 128,-1,30
 160 608 160 608 160 563.5 c 128,-1,31
 160 519 160 519 190 485.5 c 128,-1,32
 220 452 220 452 277 414 c 1,33,34
 330 451 330 451 358.5 485 c 128,-1,35
 387 519 387 519 387 563 c 128,-1,36
 387 607 387 607 353.5 637 c 128,-1,37
 320 667 320 667 272 667 c 128,-1,29
 224 667 224 667 192 637.5 c 128,-1,30
EndSplineSet
EndChar

StartChar: nine
Encoding: 57 57 28
Width: 539
GlyphClass: 2
Flags: W
LayerCount: 2
Fore
SplineSet
103.5 647 m 128,-1,1
 166 711 166 711 267.5 711 c 128,-1,2
 369 711 369 711 429 643.5 c 128,-1,3
 489 576 489 576 489 451.5 c 128,-1,4
 489 327 489 327 401 192.5 c 128,-1,5
 313 58 313 58 165 -11 c 0,6,7
 164 -12 164 -12 156 -12 c 128,-1,8
 148 -12 148 -12 139.5 -7.5 c 128,-1,9
 131 -3 131 -3 131 9.5 c 128,-1,10
 131 22 131 22 146 31 c 0,11,12
 334 144 334 144 385 335 c 1,13,14
 332 287 332 287 252 287 c 0,15,16
 150 287 150 287 95 348 c 128,-1,17
 40 409 40 409 40.5 496 c 128,-1,0
 41 583 41 583 103.5 647 c 128,-1,1
265 669 m 128,-1,19
 204 669 204 669 167.5 621.5 c 128,-1,20
 131 574 131 574 131 497.5 c 128,-1,21
 131 421 131 421 168 378.5 c 128,-1,22
 205 336 205 336 265 336 c 128,-1,23
 325 336 325 336 362 378.5 c 128,-1,24
 399 421 399 421 399 497.5 c 128,-1,25
 399 574 399 574 362.5 621.5 c 128,-1,18
 326 669 326 669 265 669 c 128,-1,19
EndSplineSet
EndChar

StartChar: colon
Encoding: 58 58 29
Width: 263
GlyphClass: 2
Flags: W
LayerCount: 2
Fore
SplineSet
174.5 493 m 128,-1,1
 193 475 193 475 193 449.5 c 128,-1,2
 193 424 193 424 174.5 406 c 128,-1,3
 156 388 156 388 131 388 c 128,-1,4
 106 388 106 388 88 406.5 c 128,-1,5
 70 425 70 425 70 450 c 128,-1,6
 70 475 70 475 88 493 c 128,-1,7
 106 511 106 511 131 511 c 128,-1,0
 156 511 156 511 174.5 493 c 128,-1,1
174.5 94 m 128,-1,9
 193 76 193 76 193 50.5 c 128,-1,10
 193 25 193 25 174.5 7 c 128,-1,11
 156 -11 156 -11 131 -11 c 128,-1,12
 106 -11 106 -11 88 7 c 128,-1,13
 70 25 70 25 70 50 c 128,-1,14
 70 75 70 75 88 93.5 c 128,-1,15
 106 112 106 112 131 112 c 128,-1,8
 156 112 156 112 174.5 94 c 128,-1,9
EndSplineSet
EndChar

StartChar: semicolon
Encoding: 59 59 30
Width: 266
GlyphClass: 2
Flags: W
LayerCount: 2
Fore
SplineSet
174.5 493 m 128,-1,1
 193 475 193 475 193 449.5 c 128,-1,2
 193 424 193 424 174.5 406 c 128,-1,3
 156 388 156 388 131 388 c 128,-1,4
 106 388 106 388 88 406.5 c 128,-1,5
 70 425 70 425 70 450 c 128,-1,6
 70 475 70 475 88 493 c 128,-1,7
 106 511 106 511 131 511 c 128,-1,0
 156 511 156 511 174.5 493 c 128,-1,1
88 -135 m 0,8,9
 70 -135 70 -135 70 -118 c 0,10,11
 70 -109 70 -109 77 -104 c 0,12,13
 129 -65 129 -65 132 -13 c 1,14,15
 102 -11 102 -11 86 6.5 c 128,-1,16
 70 24 70 24 70 49.5 c 128,-1,17
 70 75 70 75 88 93.5 c 128,-1,18
 106 112 106 112 132 112 c 128,-1,19
 158 112 158 112 177 91 c 128,-1,20
 196 70 196 70 196 26 c 128,-1,21
 196 -18 196 -18 166 -64 c 128,-1,22
 136 -110 136 -110 102 -130 c 0,23,24
 94 -135 94 -135 88 -135 c 0,8,9
EndSplineSet
EndChar

StartChar: less
Encoding: 60 60 31
Width: 663
GlyphClass: 2
Flags: W
LayerCount: 2
Fore
SplineSet
603 71 m 2,0,-1
 603 27 l 2,1,2
 603 22 603 22 600 19.5 c 128,-1,3
 597 17 597 17 594 17 c 0,4,5
 591 18 591 18 60 258 c 0,6,7
 50 262 50 262 50 271 c 2,8,-1
 50 315 l 2,9,10
 50 324 50 324 60 328 c 2,11,-1
 591 568 l 2,12,13
 593 569 593 569 594 569 c 2,14,-1
 599 567 l 1,15,16
 603 564 603 564 603 559 c 2,17,-1
 603 515 l 2,18,19
 603 507 603 507 591 502 c 2,20,-1
 124 293 l 1,21,-1
 591 84 l 2,22,23
 603 79 603 79 603 71 c 2,0,-1
EndSplineSet
EndChar

StartChar: equal
Encoding: 61 61 32
Width: 714
GlyphClass: 2
Flags: W
LayerCount: 2
Fore
SplineSet
622 366 m 2,0,-1
 92 366 l 2,1,2
 80 366 80 366 80 377 c 2,3,-1
 80 417 l 2,4,5
 80 428 80 428 92 428 c 2,6,-1
 622 428 l 2,7,8
 634 428 634 428 634 417 c 2,9,-1
 634 377 l 2,10,11
 634 366 634 366 622 366 c 2,0,-1
622 162 m 2,12,-1
 92 162 l 2,13,14
 80 162 80 162 80 173 c 2,15,-1
 80 213 l 2,16,17
 80 224 80 224 92 224 c 2,18,-1
 622 224 l 2,19,20
 634 224 634 224 634 213 c 2,21,-1
 634 173 l 2,22,23
 634 162 634 162 622 162 c 2,12,-1
EndSplineSet
EndChar

StartChar: greater
Encoding: 62 62 33
Width: 663
GlyphClass: 2
Flags: W
LayerCount: 2
Fore
SplineSet
60 515 m 2,0,-1
 60 559 l 2,1,2
 60 564 60 564 63 566.5 c 128,-1,3
 66 569 66 569 69 569 c 0,4,5
 72 568 72 568 603 328 c 0,6,7
 613 324 613 324 613 315 c 2,8,-1
 613 271 l 2,9,10
 613 262 613 262 603 258 c 2,11,-1
 72 18 l 2,12,13
 70 17 70 17 69 17 c 2,14,-1
 64 19 l 1,15,16
 60 22 60 22 60 27 c 2,17,-1
 60 71 l 2,18,19
 60 79 60 79 72 84 c 2,20,-1
 539 293 l 1,21,-1
 72 502 l 2,22,23
 60 507 60 507 60 515 c 2,0,-1
EndSplineSet
EndChar

StartChar: question
Encoding: 63 63 34
Width: 430
GlyphClass: 2
Flags: W
LayerCount: 2
Fore
SplineSet
190 220 m 2,0,-1
 180 220 l 2,1,2
 168 220 168 220 166.5 235 c 128,-1,3
 165 250 165 250 165 274 c 128,-1,4
 165 298 165 298 173.5 334.5 c 128,-1,5
 182 371 182 371 200.5 402.5 c 128,-1,6
 219 434 219 434 238 462 c 0,7,8
 286 530 286 530 286 577 c 128,-1,9
 286 624 286 624 262.5 648 c 128,-1,10
 239 672 239 672 200 672 c 128,-1,11
 161 672 161 672 138 648.5 c 128,-1,12
 115 625 115 625 97.5 586 c 128,-1,13
 80 547 80 547 66 547 c 0,14,15
 59 547 59 547 54.5 553 c 128,-1,16
 50 559 50 559 50 564 c 2,17,-1
 50 643 l 2,18,19
 50 665 50 665 94.5 688 c 128,-1,20
 139 711 139 711 210.5 711 c 128,-1,21
 282 711 282 711 331 676 c 128,-1,22
 380 641 380 641 380 573 c 0,23,24
 380 509 380 509 323 447 c 0,25,26
 299 421 299 421 274 393 c 0,27,28
 214 326 214 326 203 231 c 1,29,30
 203 220 203 220 190 220 c 2,0,-1
228 94 m 128,-1,32
 246 76 246 76 246 50.5 c 128,-1,33
 246 25 246 25 227.5 7 c 128,-1,34
 209 -11 209 -11 184 -11 c 128,-1,35
 159 -11 159 -11 141 7 c 128,-1,36
 123 25 123 25 123 50 c 128,-1,37
 123 75 123 75 141 93.5 c 128,-1,38
 159 112 159 112 184.5 112 c 128,-1,31
 210 112 210 112 228 94 c 128,-1,32
EndSplineSet
EndChar

StartChar: at
Encoding: 64 64 35
Width: 837
GlyphClass: 2
Flags: W
LayerCount: 2
Fore
SplineSet
386 208 m 0,0,1
 426 208 426 208 455 239.5 c 128,-1,2
 484 271 484 271 490 311 c 2,3,-1
 515 494 l 1,4,5
 483 503 483 503 444 503 c 128,-1,6
 405 503 405 503 374 470 c 0,7,8
 320 412 320 412 320 301 c 0,9,10
 320 208 320 208 386 208 c 0,0,1
379 -11 m 0,11,12
 236 -11 236 -11 143 73.5 c 128,-1,13
 50 158 50 158 50 292 c 0,14,15
 50 468 50 468 172 589.5 c 128,-1,16
 294 711 294 711 467 711 c 0,17,18
 608 711 608 711 697.5 629.5 c 128,-1,19
 787 548 787 548 787 420 c 128,-1,20
 787 292 787 292 723 225.5 c 128,-1,21
 659 159 659 159 588 159 c 0,22,23
 502 159 502 159 486 224 c 1,24,25
 436 162 436 162 371.5 162 c 128,-1,26
 307 162 307 162 275.5 197 c 128,-1,27
 244 232 244 232 244 296 c 0,28,29
 244 395 244 395 304 468 c 128,-1,30
 364 541 364 541 456 541 c 0,31,32
 518 541 518 541 559 530 c 2,33,-1
 574 526 l 1,34,35
 585 525 585 525 585 512 c 1,36,-1
 549 263 l 2,37,38
 548 258 548 258 548 246 c 128,-1,39
 548 234 548 234 558.5 218 c 128,-1,40
 569 202 569 202 596 202 c 0,41,42
 642 202 642 202 680 256 c 128,-1,43
 718 310 718 310 718 419.5 c 128,-1,44
 718 529 718 529 648.5 598.5 c 128,-1,45
 579 668 579 668 461 668 c 0,46,47
 314 668 314 668 220.5 561 c 128,-1,48
 127 454 127 454 127 294 c 0,49,50
 127 175 127 175 196 103 c 128,-1,51
 265 31 265 31 385 31 c 0,52,53
 434 31 434 31 482.5 43.5 c 128,-1,54
 531 56 531 56 555 69 c 2,55,-1
 579 82 l 2,56,57
 590 88 590 88 595 80 c 2,58,-1
 603 68 l 2,59,60
 606 64 606 64 604.5 57.5 c 128,-1,61
 603 51 603 51 598 49 c 1,62,63
 588 42 588 42 569.5 32 c 128,-1,64
 551 22 551 22 494 5.5 c 128,-1,65
 437 -11 437 -11 379 -11 c 0,11,12
EndSplineSet
EndChar

StartChar: A
Encoding: 65 65 36
Width: 717
GlyphClass: 2
Flags: W
LayerCount: 2
Fore
SplineSet
227 275 m 2,0,-1
 450 275 l 2,1,2
 461 275 461 275 457 287 c 2,3,-1
 338 593 l 1,4,-1
 219 285 l 2,5,6
 216 275 216 275 227 275 c 2,0,-1
134 66 m 2,7,8
 132 60 132 60 132 52.5 c 128,-1,9
 132 45 132 45 140 35.5 c 128,-1,10
 148 26 148 26 162 25 c 2,11,-1
 184 23 l 2,12,13
 197 21 197 21 197 10 c 0,14,15
 197 -4 197 -4 182 -4 c 2,16,-1
 95 0 l 1,17,-1
 4 -4 l 2,18,19
 -10 -4 -10 -4 -10 9.5 c 128,-1,20
 -10 23 -10 23 1 23 c 1,21,-1
 20 25 l 2,22,23
 63 30 63 30 78 66 c 2,24,-1
 335 699 l 2,25,26
 339 711 339 711 358.5 711 c 128,-1,27
 378 711 378 711 383 699 c 2,28,-1
 639 66 l 1,29,30
 652 29 652 29 696 25 c 2,31,-1
 717 23 l 2,32,33
 721 23 721 23 724 19 c 128,-1,34
 727 15 727 15 727 11 c 0,35,36
 727 -4 727 -4 713 -4 c 2,37,-1
 598 0 l 1,38,-1
 495 -4 l 2,39,40
 481 -4 481 -4 481 8 c 0,41,42
 481 22 481 22 493 23 c 2,43,-1
 516 25 l 2,44,45
 529 26 529 26 537.5 35 c 128,-1,46
 546 44 546 44 546 52 c 128,-1,47
 546 60 546 60 543 66 c 2,48,-1
 484 219 l 2,49,50
 481 229 481 229 468 229 c 2,51,-1
 209 229 l 2,52,53
 197 229 197 229 193 219 c 2,54,-1
 134 66 l 2,7,8
EndSplineSet
EndChar

StartChar: B
Encoding: 66 66 37
Width: 640
GlyphClass: 2
Flags: W
LayerCount: 2
Fore
SplineSet
545.5 327.5 m 128,-1,1
 595 278 595 278 595 198 c 128,-1,2
 595 118 595 118 535 59 c 128,-1,3
 475 0 475 0 386 0 c 2,4,-1
 158 0 l 1,5,-1
 45 -4 l 2,6,7
 31 -4 31 -4 31 12 c 0,8,9
 31 23 31 23 42 23 c 2,10,-1
 71 25 l 1,11,12
 117 31 117 31 117 66 c 2,13,-1
 117 634 l 2,14,15
 117 670 117 670 71 674 c 2,16,-1
 42 677 l 2,17,18
 31 679 31 679 31 689 c 0,19,20
 31 704 31 704 45 704 c 2,21,-1
 170 700 l 1,22,-1
 364 700 l 2,23,24
 442 700 442 700 494 652 c 128,-1,25
 546 604 546 604 546 540 c 128,-1,26
 546 476 546 476 512 438.5 c 128,-1,27
 478 401 478 401 433 387 c 1,28,-1
 433 385 l 1,29,0
 496 377 496 377 545.5 327.5 c 128,-1,1
457 531 m 128,-1,31
 457 589 457 589 420 622.5 c 128,-1,32
 383 656 383 656 323 656 c 2,33,-1
 239 656 l 2,34,35
 225 656 225 656 213.5 645.5 c 128,-1,36
 202 635 202 635 202 624 c 2,37,-1
 202 423 l 2,38,39
 202 403 202 403 222 403 c 2,40,-1
 323 403 l 2,41,42
 382 403 382 403 419.5 438 c 128,-1,30
 457 473 457 473 457 531 c 128,-1,31
459.5 88 m 128,-1,44
 506 132 506 132 506 202.5 c 128,-1,45
 506 273 506 273 459.5 316 c 128,-1,46
 413 359 413 359 341 359 c 2,47,-1
 219 359 l 2,48,49
 202 359 202 359 202 341 c 2,50,-1
 202 84 l 2,51,52
 202 44 202 44 242 44 c 2,53,-1
 341 44 l 2,54,43
 413 44 413 44 459.5 88 c 128,-1,44
EndSplineSet
EndChar

StartChar: C
Encoding: 67 67 38
Width: 683
GlyphClass: 2
Flags: W
LayerCount: 2
Fore
SplineSet
631 529 m 2,0,1
 631 522 631 522 626.5 515.5 c 128,-1,2
 622 509 622 509 615 509 c 0,3,4
 598 509 598 509 593 529 c 0,5,6
 575 596 575 596 526 634 c 128,-1,7
 477 672 477 672 410 672 c 0,8,9
 289 672 289 672 217.5 589 c 128,-1,10
 146 506 146 506 146 377 c 128,-1,11
 146 248 146 248 221.5 147 c 128,-1,12
 297 46 297 46 410 46 c 0,13,14
 475 46 475 46 507.5 58.5 c 128,-1,15
 540 71 540 71 551.5 76.5 c 128,-1,16
 563 82 563 82 581 94 c 128,-1,17
 599 106 599 106 601 107 c 0,18,19
 619 118 619 118 626 110.5 c 128,-1,20
 633 103 633 103 633 96 c 128,-1,21
 633 89 633 89 625 81 c 0,22,23
 591 43 591 43 555 24 c 0,24,25
 490 -11 490 -11 400 -11 c 0,26,27
 244 -11 244 -11 147 92 c 128,-1,28
 50 195 50 195 50 351 c 128,-1,29
 50 507 50 507 149 609 c 128,-1,30
 248 711 248 711 410 711 c 0,31,32
 494 711 494 711 562.5 688 c 128,-1,33
 631 665 631 665 631 643 c 2,34,-1
 631 529 l 2,0,1
EndSplineSet
EndChar

StartChar: D
Encoding: 68 68 39
Width: 741
GlyphClass: 2
Flags: W
LayerCount: 2
Fore
SplineSet
596 607.5 m 128,-1,1
 691 515 691 515 691 362 c 128,-1,2
 691 209 691 209 592.5 104.5 c 128,-1,3
 494 0 494 0 341 0 c 2,4,-1
 169 0 l 1,5,-1
 44 -5 l 2,6,7
 30 -5 30 -5 30 8.5 c 128,-1,8
 30 22 30 22 41 22 c 2,9,-1
 70 24 l 2,10,11
 90 26 90 26 103 36.5 c 128,-1,12
 116 47 116 47 116 65 c 2,13,-1
 116 634 l 2,14,15
 116 670 116 670 70 674 c 2,16,-1
 41 677 l 2,17,18
 30 679 30 679 30 690 c 0,19,20
 30 704 30 704 44 704 c 2,21,-1
 169 700 l 1,22,-1
 341 700 l 2,23,0
 501 700 501 700 596 607.5 c 128,-1,1
538 550 m 0,24,25
 508 598 508 598 457 626 c 128,-1,26
 406 654 406 654 340 654 c 2,27,-1
 250 654 l 2,28,29
 228 654 228 654 214.5 642 c 128,-1,30
 201 630 201 630 201 607 c 2,31,-1
 201 92 l 2,32,33
 201 71 201 71 214.5 58.5 c 128,-1,34
 228 46 228 46 250 46 c 2,35,-1
 345 46 l 2,36,37
 460 46 460 46 529 125 c 128,-1,38
 598 204 598 204 598 330 c 128,-1,39
 598 456 598 456 538 550 c 0,24,25
EndSplineSet
EndChar

StartChar: E
Encoding: 69 69 40
Width: 634
GlyphClass: 2
Flags: W
LayerCount: 2
Fore
SplineSet
532 0 m 2,0,-1
 157 0 l 1,1,-1
 44 -4 l 2,2,3
 30 -4 30 -4 30 9.5 c 128,-1,4
 30 23 30 23 41 23 c 2,5,-1
 70 25 l 2,6,7
 90 27 90 27 103 37.5 c 128,-1,8
 116 48 116 48 116 66 c 2,9,-1
 116 634 l 2,10,11
 116 670 116 670 70 674 c 2,12,-1
 41 677 l 1,13,14
 30 677 30 677 30 690.5 c 128,-1,15
 30 704 30 704 44 704 c 2,16,-1
 157 700 l 1,17,-1
 512 700 l 2,18,19
 531 700 531 700 543 688.5 c 128,-1,20
 555 677 555 677 557 660 c 2,21,-1
 571 568 l 2,22,23
 573 550 573 550 556.5 550 c 128,-1,24
 540 550 540 550 535 566 c 0,25,26
 520 614 520 614 490 634 c 128,-1,27
 460 654 460 654 407 654 c 2,28,-1
 250 654 l 2,29,30
 228 654 228 654 214.5 641.5 c 128,-1,31
 201 629 201 629 201 607 c 2,32,-1
 201 397 l 2,33,34
 201 384 201 384 214 384 c 2,35,-1
 400 384 l 2,36,37
 414 384 414 384 422 391 c 128,-1,38
 430 398 430 398 432.5 404 c 128,-1,39
 435 410 435 410 440 426 c 2,40,-1
 444 439 l 2,41,42
 447 451 447 451 459 451 c 128,-1,43
 471 451 471 451 471 437 c 2,44,-1
 467 352 l 1,45,-1
 471 271 l 2,46,47
 471 258 471 258 458 256 c 1,48,49
 446 256 446 256 444 268 c 2,50,-1
 441 286 l 2,51,52
 432 338 432 338 400 338 c 2,53,-1
 213 338 l 2,54,55
 201 338 201 338 201 324 c 2,56,-1
 201 92 l 2,57,58
 201 71 201 71 214.5 58.5 c 128,-1,59
 228 46 228 46 250 46 c 2,60,-1
 415 46 l 2,61,62
 467 46 467 46 504.5 71.5 c 128,-1,63
 542 97 542 97 557 146 c 0,64,65
 562 162 562 162 573.5 162 c 128,-1,66
 585 162 585 162 589.5 156.5 c 128,-1,67
 594 151 594 151 593 144 c 2,68,-1
 577 40 l 2,69,70
 575 23 575 23 562.5 11.5 c 128,-1,71
 550 0 550 0 532 0 c 2,0,-1
EndSplineSet
EndChar

StartChar: F
Encoding: 70 70 41
Width: 582
GlyphClass: 2
Flags: W
LayerCount: 2
Fore
SplineSet
561 568 m 2,0,1
 563 550 563 550 546.5 550 c 128,-1,2
 530 550 530 550 525 566 c 0,3,4
 510 614 510 614 480 634 c 128,-1,5
 450 654 450 654 397 654 c 2,6,-1
 250 654 l 2,7,8
 228 654 228 654 214.5 641.5 c 128,-1,9
 201 629 201 629 201 607 c 2,10,-1
 201 387 l 2,11,12
 201 374 201 374 214 374 c 2,13,-1
 390 374 l 2,14,15
 403 374 403 374 411.5 380.5 c 128,-1,16
 420 387 420 387 422.5 394 c 128,-1,17
 425 401 425 401 430 416 c 2,18,-1
 434 429 l 2,19,20
 437 440 437 440 447 440 c 0,21,22
 461 440 461 440 461 427 c 2,23,-1
 457 341 l 1,24,-1
 461 258 l 2,25,26
 461 244 461 244 448.5 244 c 128,-1,27
 436 244 436 244 434 256 c 2,28,-1
 431 274 l 2,29,30
 427 300 427 300 418.5 313 c 128,-1,31
 410 326 410 326 390 326 c 2,32,-1
 213 326 l 2,33,34
 201 326 201 326 201 312 c 2,35,-1
 201 66 l 2,36,37
 201 29 201 29 245 25 c 1,38,-1
 275 23 l 2,39,40
 287 23 287 23 287 11 c 0,41,42
 287 -4 287 -4 272 -4 c 2,43,-1
 157 0 l 1,44,-1
 44 -4 l 2,45,46
 30 -4 30 -4 30 9.5 c 128,-1,47
 30 23 30 23 41 23 c 2,48,-1
 70 25 l 2,49,50
 90 27 90 27 103 37.5 c 128,-1,51
 116 48 116 48 116 66 c 2,52,-1
 116 634 l 2,53,54
 116 670 116 670 70 674 c 2,55,-1
 41 677 l 1,56,57
 30 677 30 677 30 690.5 c 128,-1,58
 30 704 30 704 44 704 c 2,59,-1
 157 700 l 1,60,-1
 502 700 l 2,61,62
 521 700 521 700 533 688.5 c 128,-1,63
 545 677 545 677 547 660 c 2,64,-1
 561 568 l 2,0,1
EndSplineSet
EndChar

StartChar: G
Encoding: 71 71 42
Width: 759
GlyphClass: 2
Flags: W
LayerCount: 2
Fore
SplineSet
417 711 m 0,0,1
 501 711 501 711 569.5 688 c 128,-1,2
 638 665 638 665 638 643 c 2,3,-1
 638 529 l 2,4,5
 638 522 638 522 633.5 515.5 c 128,-1,6
 629 509 629 509 622 509 c 0,7,8
 605 509 605 509 600 529 c 0,9,10
 582 596 582 596 533 634 c 128,-1,11
 484 672 484 672 417 672 c 0,12,13
 293 672 293 672 219.5 589 c 128,-1,14
 146 506 146 506 146 378 c 0,15,16
 146 294 146 294 179 216 c 128,-1,17
 212 138 212 138 273.5 87.5 c 128,-1,18
 335 37 335 37 409.5 37 c 128,-1,19
 484 37 484 37 535.5 67.5 c 128,-1,20
 587 98 587 98 587 132 c 2,21,-1
 587 256 l 2,22,23
 587 294 587 294 542 296 c 2,24,-1
 488 299 l 2,25,26
 477 299 477 299 477 312.5 c 128,-1,27
 477 326 477 326 490 326 c 2,28,-1
 626 322 l 1,29,-1
 725 326 l 2,30,31
 739 326 739 326 739 314 c 0,32,33
 739 300 739 300 727 299 c 1,34,-1
 710 296 l 2,35,36
 670 289 670 289 670 256 c 2,37,-1
 670 63 l 1,38,-1
 676 7 l 2,39,40
 678 -11 678 -11 661 -11 c 0,41,42
 650 -11 650 -11 643 2 c 1,43,44
 627 38 627 38 590 38 c 0,45,46
 582 38 582 38 560 26 c 0,47,48
 492 -11 492 -11 400 -11 c 0,49,50
 244 -11 244 -11 147 92 c 128,-1,51
 50 195 50 195 50 350.5 c 128,-1,52
 50 506 50 506 152 608.5 c 128,-1,53
 254 711 254 711 417 711 c 0,0,1
EndSplineSet
EndChar

StartChar: H
Encoding: 72 72 43
Width: 802
GlyphClass: 2
Flags: W
LayerCount: 2
Fore
SplineSet
761 23 m 2,0,1
 772 23 772 23 772 9.5 c 128,-1,2
 772 -4 772 -4 758 -4 c 2,3,-1
 646 0 l 1,4,-1
 548 -4 l 2,5,6
 533 -4 533 -4 533 10 c 0,7,8
 533 21 533 21 544 23 c 2,9,-1
 562 25 l 2,10,11
 602 30 602 30 602 66 c 2,12,-1
 602 314 l 2,13,14
 602 333 602 333 584 333 c 2,15,-1
 218 333 l 2,16,17
 211 333 211 333 206 327.5 c 128,-1,18
 201 322 201 322 201 314 c 2,19,-1
 201 66 l 2,20,21
 201 30 201 30 241 25 c 2,22,-1
 258 23 l 2,23,24
 271 21 271 21 271 10 c 0,25,26
 271 4 271 4 266.5 0 c 128,-1,27
 262 -4 262 -4 256 -4 c 2,28,-1
 157 0 l 1,29,-1
 44 -4 l 2,30,31
 30 -4 30 -4 30 9.5 c 128,-1,32
 30 23 30 23 41 23 c 2,33,-1
 70 25 l 2,34,35
 90 27 90 27 103 37.5 c 128,-1,36
 116 48 116 48 116 66 c 2,37,-1
 116 634 l 2,38,39
 116 670 116 670 70 674 c 2,40,-1
 41 677 l 1,41,42
 30 677 30 677 30 690.5 c 128,-1,43
 30 704 30 704 44 704 c 2,44,-1
 157 700 l 1,45,-1
 256 704 l 2,46,47
 271 704 271 704 271 692 c 0,48,49
 271 678 271 678 258 677 c 1,50,-1
 241 674 l 2,51,52
 201 667 201 667 201 634 c 2,53,-1
 201 399 l 2,54,55
 201 379 201 379 221 379 c 2,56,-1
 583 379 l 2,57,58
 602 379 602 379 602 396 c 2,59,-1
 602 634 l 2,60,61
 602 667 602 667 562 674 c 2,62,-1
 544 677 l 2,63,64
 533 679 533 679 533 690 c 0,65,66
 533 704 533 704 548 704 c 2,67,-1
 646 700 l 1,68,-1
 758 704 l 2,69,70
 772 704 772 704 772 690.5 c 128,-1,71
 772 677 772 677 761 677 c 1,72,-1
 731 674 l 2,73,74
 687 670 687 670 687 634 c 2,75,-1
 687 66 l 2,76,77
 687 29 687 29 731 25 c 1,78,-1
 761 23 l 2,0,1
EndSplineSet
EndChar

StartChar: I
Encoding: 73 73 44
Width: 317
GlyphClass: 2
Flags: W
LayerCount: 2
Fore
SplineSet
61 -4 m 2,0,1
 47 -4 47 -4 47 8.5 c 128,-1,2
 47 21 47 21 58 23 c 2,3,-1
 75 25 l 2,4,5
 116 30 116 30 116 66 c 2,6,-1
 116 634 l 2,7,8
 116 670 116 670 70 674 c 2,9,-1
 41 677 l 2,10,11
 30 679 30 679 30 690 c 0,12,13
 30 704 30 704 44 704 c 2,14,-1
 157 700 l 1,15,-1
 256 704 l 2,16,17
 271 704 271 704 271 692 c 0,18,19
 271 678 271 678 258 677 c 1,20,-1
 241 674 l 2,21,22
 201 667 201 667 201 634 c 2,23,-1
 201 66 l 2,24,25
 201 48 201 48 214 37.5 c 128,-1,26
 227 27 227 27 246 25 c 2,27,-1
 275 23 l 2,28,29
 287 23 287 23 287 10 c 0,30,31
 287 4 287 4 282.5 0 c 128,-1,32
 278 -4 278 -4 273 -4 c 2,33,-1
 160 0 l 1,34,-1
 61 -4 l 2,0,1
EndSplineSet
EndChar

StartChar: J
Encoding: 74 74 45
Width: 317
GlyphClass: 2
Flags: W
LayerCount: 2
Fore
SplineSet
202 634 m 2,0,-1
 202 -5 l 2,1,2
 202 -107 202 -107 168.5 -169.5 c 128,-1,3
 135 -232 135 -232 75 -272 c 1,4,5
 31 -300 31 -300 18.5 -300 c 128,-1,6
 6 -300 6 -300 2 -293 c 0,7,8
 -5 -280 -5 -280 -5 -275 c 128,-1,9
 -5 -270 -5 -270 2 -265 c 0,10,11
 53 -229 53 -229 67 -212 c 1,12,13
 117 -159 117 -159 117 -56 c 2,14,-1
 117 634 l 2,15,16
 117 670 117 670 71 674 c 2,17,-1
 42 677 l 2,18,19
 31 679 31 679 31 690 c 0,20,21
 31 704 31 704 45 704 c 2,22,-1
 158 700 l 1,23,-1
 257 704 l 2,24,25
 272 704 272 704 272 692 c 0,26,27
 272 678 272 678 259 677 c 1,28,-1
 242 674 l 2,29,30
 202 667 202 667 202 634 c 2,0,-1
EndSplineSet
EndChar

StartChar: K
Encoding: 75 75 46
Width: 690
GlyphClass: 2
Flags: W
LayerCount: 2
Fore
SplineSet
508 666 m 1,0,-1
 503 692 l 1,1,2
 503 703 503 703 516 703 c 2,3,-1
 572 700 l 1,4,-1
 670 704 l 2,5,6
 685 704 685 704 685 690.5 c 128,-1,7
 685 677 685 677 672 677 c 1,8,-1
 642 674 l 2,9,10
 608 671 608 671 576 634 c 2,11,-1
 356 386 l 2,12,13
 342 370 342 370 321 361 c 1,14,15
 342 352 342 352 356 335 c 1,16,-1
 602 68 l 2,17,18
 639 29 639 29 668 27 c 2,19,-1
 697 25 l 1,20,21
 710 23 710 23 710 10.5 c 128,-1,22
 710 -2 710 -2 696 -2 c 0,23,24
 578 0 578 0 558.5 0 c 128,-1,25
 539 0 539 0 519 22 c 2,26,-1
 280 295 l 2,27,28
 255 325 255 325 233 325 c 2,29,30
 233 325 233 325 232 325 c 2,31,-1
 208 325 l 2,32,33
 201 325 201 325 201 314 c 2,34,-1
 201 66 l 2,35,36
 201 27 201 27 228 24 c 2,37,-1
 238 23 l 2,38,39
 249 21 249 21 249 10 c 0,40,41
 249 -4 249 -4 235 -4 c 2,42,-1
 160 0 l 1,43,-1
 61 -4 l 2,44,45
 46 -4 46 -4 46 8.5 c 128,-1,46
 46 21 46 21 58 23 c 2,47,-1
 75 25 l 2,48,49
 116 30 116 30 116 66 c 2,50,-1
 116 634 l 2,51,52
 116 668 116 668 70 674 c 1,53,-1
 41 677 l 2,54,55
 30 679 30 679 30 690 c 0,56,57
 30 704 30 704 44 704 c 2,58,-1
 157 700 l 1,59,-1
 235 704 l 2,60,61
 250 704 250 704 250 691.5 c 128,-1,62
 250 679 250 679 237 677 c 2,63,-1
 228 676 l 1,64,65
 201 671 201 671 201 634 c 2,66,-1
 201 383 l 2,67,68
 201 371 201 371 210 371 c 2,69,-1
 236 371 l 2,70,71
 260 371 260 371 285 401 c 1,72,-1
 495 640 l 2,73,74
 508 654 508 654 508 666 c 1,0,-1
EndSplineSet
EndChar

StartChar: L
Encoding: 76 76 47
Width: 594
GlyphClass: 2
Flags: W
LayerCount: 2
Fore
SplineSet
201 634 m 2,0,-1
 201 92 l 2,1,2
 201 71 201 71 214.5 58.5 c 128,-1,3
 228 46 228 46 250 46 c 2,4,-1
 395 46 l 2,5,6
 448 46 448 46 486 71.5 c 128,-1,7
 524 97 524 97 538 146 c 0,8,9
 543 162 543 162 559 162 c 128,-1,10
 575 162 575 162 573 144 c 2,11,-1
 557 40 l 2,12,13
 555 23 555 23 543 11.5 c 128,-1,14
 531 0 531 0 512 0 c 2,15,-1
 157 0 l 1,16,-1
 44 -4 l 2,17,18
 30 -4 30 -4 30 9.5 c 128,-1,19
 30 23 30 23 41 23 c 2,20,-1
 70 25 l 2,21,22
 90 27 90 27 103 37.5 c 128,-1,23
 116 48 116 48 116 66 c 2,24,-1
 116 634 l 2,25,26
 116 670 116 670 70 674 c 2,27,-1
 41 677 l 2,28,29
 30 679 30 679 30 690 c 0,30,31
 30 704 30 704 44 704 c 2,32,-1
 157 700 l 1,33,-1
 256 704 l 2,34,35
 271 704 271 704 271 692 c 0,36,37
 271 678 271 678 258 677 c 1,38,-1
 241 674 l 2,39,40
 201 667 201 667 201 634 c 2,0,-1
EndSplineSet
EndChar

StartChar: M
Encoding: 77 77 48
Width: 960
GlyphClass: 2
Flags: W
LayerCount: 2
Fore
SplineSet
935 10 m 0,0,1
 935 4 935 4 930.5 0 c 128,-1,2
 926 -4 926 -4 921 -4 c 2,3,-1
 808 0 l 1,4,-1
 709 -4 l 2,5,6
 695 -4 695 -4 695 8.5 c 128,-1,7
 695 21 695 21 706 23 c 2,8,-1
 723 25 l 2,9,10
 765 30 765 30 765 66 c 2,11,-1
 757 539 l 2,12,13
 757 549 757 549 751 549 c 0,14,15
 748 549 748 549 747 546 c 2,16,-1
 475 2 l 2,17,18
 470 -7 470 -7 463 -7 c 128,-1,19
 456 -7 456 -7 452 2 c 2,20,-1
 179 530 l 2,21,22
 178 533 178 533 175 533 c 0,23,24
 169 533 169 533 169 523 c 2,25,-1
 163 66 l 2,26,27
 163 33 163 33 203 26 c 2,28,-1
 220 23 l 2,29,30
 233 21 233 21 233 9 c 128,-1,31
 233 -3 233 -3 218 -3 c 2,32,-1
 136 0 l 1,33,-1
 39 -3 l 2,34,35
 25 -3 25 -3 25 9 c 128,-1,36
 25 21 25 21 36 23 c 2,37,-1
 65 26 l 2,38,39
 111 31 111 31 111 66 c 2,40,-1
 123 634 l 2,41,42
 124 669 124 669 83 674 c 2,43,-1
 65 676 l 2,44,45
 53 678 53 678 53 690.5 c 128,-1,46
 53 703 53 703 68 703 c 2,47,-1
 156 700 l 2,48,49
 190 699 190 699 199 680 c 2,50,-1
 482 120 l 1,51,-1
 758 680 l 2,52,53
 767 698 767 698 802 700 c 2,54,-1
 891 703 l 2,55,56
 907 703 907 703 907 690.5 c 128,-1,57
 907 678 907 678 895 676 c 2,58,-1
 877 674 l 1,59,60
 838 671 838 671 838 634 c 2,61,-1
 850 66 l 2,62,63
 850 48 850 48 862.5 37.5 c 128,-1,64
 875 27 875 27 894 25 c 2,65,-1
 923 23 l 2,66,67
 935 23 935 23 935 10 c 0,0,1
EndSplineSet
EndChar

StartChar: N
Encoding: 78 78 49
Width: 762
GlyphClass: 2
Flags: W
LayerCount: 2
Fore
SplineSet
613 149 m 2,0,-1
 613 634 l 2,1,2
 613 669 613 669 568 674 c 2,3,-1
 539 677 l 2,4,5
 528 679 528 679 528 691 c 128,-1,6
 528 703 528 703 542 703 c 2,7,-1
 639 700 l 1,8,-1
 717 703 l 2,9,10
 732 703 732 703 732 691 c 128,-1,11
 732 679 732 679 719 677 c 2,12,-1
 702 674 l 2,13,14
 662 667 662 667 662 634 c 2,15,-1
 662 1 l 2,16,17
 662 -11 662 -11 651 -11 c 2,18,-1
 638 -11 l 2,19,20
 613 -11 613 -11 595 13 c 2,21,-1
 174 552 l 2,22,23
 172 554 172 554 168 554 c 128,-1,24
 164 554 164 554 164 544 c 2,25,-1
 164 66 l 2,26,27
 164 33 164 33 204 26 c 2,28,-1
 221 23 l 2,29,30
 234 21 234 21 234 9 c 128,-1,31
 234 -3 234 -3 219 -3 c 2,32,-1
 141 0 l 1,33,-1
 44 -3 l 2,34,35
 30 -3 30 -3 30 9 c 128,-1,36
 30 21 30 21 41 23 c 2,37,-1
 70 26 l 2,38,39
 116 31 116 31 116 66 c 2,40,-1
 116 634 l 2,41,42
 116 669 116 669 76 674 c 2,43,-1
 58 676 l 2,44,45
 46 678 46 678 46 690.5 c 128,-1,46
 46 703 46 703 61 703 c 2,47,-1
 141 700 l 2,48,49
 170 699 170 699 185 681 c 2,50,-1
 602 146 l 2,51,52
 605 143 605 143 609 143 c 128,-1,53
 613 143 613 143 613 149 c 2,0,-1
EndSplineSet
EndChar

StartChar: O
Encoding: 79 79 50
Width: 800
GlyphClass: 2
Flags: W
LayerCount: 2
Fore
SplineSet
654.5 610.5 m 128,-1,1
 750 510 750 510 750 352 c 128,-1,2
 750 194 750 194 652.5 91.5 c 128,-1,3
 555 -11 555 -11 399.5 -11 c 128,-1,4
 244 -11 244 -11 147 91 c 128,-1,5
 50 193 50 193 50 349.5 c 128,-1,6
 50 506 50 506 147 608.5 c 128,-1,7
 244 711 244 711 401.5 711 c 128,-1,0
 559 711 559 711 654.5 610.5 c 128,-1,1
598 554 m 0,8,9
 569 605 569 605 518 635 c 128,-1,10
 467 665 467 665 399 665 c 0,11,12
 277 665 277 665 210.5 590.5 c 128,-1,13
 144 516 144 516 144 388 c 0,14,15
 144 255 144 255 204 150 c 0,16,17
 233 98 233 98 285 66.5 c 128,-1,18
 337 35 337 35 404 35 c 0,19,20
 523 35 523 35 589.5 113 c 128,-1,21
 656 191 656 191 656 323 c 128,-1,22
 656 455 656 455 598 554 c 0,8,9
EndSplineSet
EndChar

StartChar: P
Encoding: 80 80 51
Width: 596
GlyphClass: 2
Flags: W
LayerCount: 2
Fore
SplineSet
474 504 m 128,-1,1
 474 572 474 572 429 614 c 128,-1,2
 384 656 384 656 301 656 c 2,3,-1
 241 656 l 2,4,5
 201 656 201 656 201 616 c 2,6,-1
 201 362 l 2,7,8
 201 349 201 349 212 349 c 2,9,-1
 301 349 l 2,10,11
 384 349 384 349 429 392.5 c 128,-1,0
 474 436 474 436 474 504 c 128,-1,1
322 700 m 2,12,13
 437 700 437 700 501.5 647 c 128,-1,14
 566 594 566 594 566 506.5 c 128,-1,15
 566 419 566 419 503 361 c 128,-1,16
 440 303 440 303 334 303 c 2,17,-1
 216 303 l 2,18,19
 201 303 201 303 201 291 c 2,20,-1
 201 66 l 2,21,22
 201 48 201 48 214 37 c 128,-1,23
 227 26 227 26 246 25 c 2,24,-1
 288 23 l 2,25,26
 299 23 299 23 299 9.5 c 128,-1,27
 299 -4 299 -4 285 -4 c 2,28,-1
 160 0 l 1,29,-1
 49 -4 l 2,30,31
 34 -4 34 -4 34 8 c 0,32,33
 34 22 34 22 46 23 c 2,34,-1
 75 25 l 2,35,36
 116 28 116 28 116 66 c 2,37,-1
 116 634 l 2,38,39
 116 670 116 670 70 674 c 2,40,-1
 41 677 l 2,41,42
 30 679 30 679 30 690 c 0,43,44
 30 704 30 704 44 704 c 2,45,-1
 182 700 l 1,46,-1
 322 700 l 2,12,13
EndSplineSet
EndChar

StartChar: Q
Encoding: 81 81 52
Width: 801
GlyphClass: 2
Flags: W
LayerCount: 2
Fore
SplineSet
756 -239 m 0,0,1
 756 -253 756 -253 742 -253 c 0,2,3
 643 -249 643 -249 620.5 -249 c 128,-1,4
 598 -249 598 -249 583 -229 c 2,5,-1
 443 -42 l 2,6,7
 419 -11 419 -11 400 -11 c 0,8,9
 243 -11 243 -11 146.5 90.5 c 128,-1,10
 50 192 50 192 50 349 c 128,-1,11
 50 506 50 506 147 608.5 c 128,-1,12
 244 711 244 711 401.5 711 c 128,-1,13
 559 711 559 711 654.5 610.5 c 128,-1,14
 750 510 750 510 750 350 c 0,15,16
 750 221 750 221 681 125.5 c 128,-1,17
 612 30 612 30 495 1 c 1,18,19
 526 -13 526 -13 544 -37 c 2,20,-1
 660 -183 l 2,21,22
 689 -219 689 -219 726 -224 c 2,23,-1
 744 -226 l 2,24,25
 756 -228 756 -228 756 -239 c 0,0,1
598 554 m 0,26,27
 569 605 569 605 518 634.5 c 128,-1,28
 467 664 467 664 399 664 c 0,29,30
 277 664 277 664 210.5 589.5 c 128,-1,31
 144 515 144 515 144 388 c 0,32,33
 144 255 144 255 204 150 c 0,34,35
 233 98 233 98 285 66.5 c 128,-1,36
 337 35 337 35 404 35 c 0,37,38
 523 35 523 35 589.5 112.5 c 128,-1,39
 656 190 656 190 656 322.5 c 128,-1,40
 656 455 656 455 598 554 c 0,26,27
EndSplineSet
EndChar

StartChar: R
Encoding: 82 82 53
Width: 663
GlyphClass: 2
Flags: W
LayerCount: 2
Fore
SplineSet
497 517 m 128,-1,1
 497 580 497 580 451 617.5 c 128,-1,2
 405 655 405 655 335 655 c 2,3,-1
 241 655 l 2,4,5
 201 655 201 655 201 615 c 2,6,-1
 201 390 l 2,7,8
 201 377 201 377 212 377 c 2,9,-1
 335 377 l 2,10,11
 404 377 404 377 450.5 415.5 c 128,-1,0
 497 454 497 454 497 517 c 128,-1,1
369 700 m 2,12,13
 465 700 465 700 526.5 651 c 128,-1,14
 588 602 588 602 588 521.5 c 128,-1,15
 588 441 588 441 527.5 388.5 c 128,-1,16
 467 336 467 336 393 334 c 1,17,-1
 392 332 l 1,18,19
 413 325 413 325 425 306 c 2,20,-1
 576 66 l 2,21,22
 597 31 597 31 642 25 c 2,23,-1
 660 23 l 2,24,25
 673 21 673 21 673 10 c 0,26,27
 673 -4 673 -4 658 -4 c 0,28,29
 562 0 562 0 538.5 0 c 128,-1,30
 515 0 515 0 502 20 c 2,31,-1
 333 301 l 1,32,33
 313 332 313 332 289 332 c 2,34,35
 289 332 289 332 288 332 c 2,36,-1
 216 332 l 2,37,38
 201 332 201 332 201 320 c 2,39,-1
 201 66 l 2,40,41
 201 48 201 48 214 37 c 128,-1,42
 227 26 227 26 246 25 c 2,43,-1
 288 23 l 2,44,45
 299 23 299 23 299 9.5 c 128,-1,46
 299 -4 299 -4 285 -4 c 2,47,-1
 160 0 l 1,48,-1
 49 -4 l 2,49,50
 36 -4 36 -4 34 8 c 1,51,52
 34 22 34 22 46 23 c 2,53,-1
 75 25 l 2,54,55
 116 28 116 28 116 66 c 2,56,-1
 116 634 l 2,57,58
 116 670 116 670 70 674 c 2,59,-1
 41 677 l 2,60,61
 30 679 30 679 30 690 c 0,62,63
 30 704 30 704 44 704 c 2,64,-1
 182 700 l 1,65,-1
 369 700 l 2,12,13
EndSplineSet
EndChar

StartChar: S
Encoding: 83 83 54
Width: 571
GlyphClass: 2
Flags: W
LayerCount: 2
Fore
SplineSet
521 181 m 0,0,1
 521 87 521 87 450.5 38 c 128,-1,2
 380 -11 380 -11 279.5 -11 c 128,-1,3
 179 -11 179 -11 114.5 13 c 128,-1,4
 50 37 50 37 50 66 c 2,5,-1
 50 183 l 2,6,7
 50 204 50 204 66 204 c 0,8,9
 79 204 79 204 84 185 c 1,10,11
 110 108 110 108 151.5 70.5 c 128,-1,12
 193 33 193 33 268 33 c 128,-1,13
 343 33 343 33 389.5 67 c 128,-1,14
 436 101 436 101 436 161 c 0,15,16
 436 227 436 227 362 272 c 0,17,18
 329 292 329 292 289 311 c 128,-1,19
 249 330 249 330 209 350.5 c 128,-1,20
 169 371 169 371 136 395 c 0,21,22
 62 449 62 449 62 531.5 c 128,-1,23
 62 614 62 614 125.5 662.5 c 128,-1,24
 189 711 189 711 275 711 c 128,-1,25
 361 711 361 711 421 689.5 c 128,-1,26
 481 668 481 668 481 642 c 2,27,-1
 481 541 l 2,28,29
 481 521 481 521 466.5 521 c 128,-1,30
 452 521 452 521 445 541 c 0,31,32
 424 605 424 605 390 636 c 128,-1,33
 356 667 356 667 288.5 667 c 128,-1,34
 221 667 221 667 182 635 c 128,-1,35
 143 603 143 603 143 555.5 c 128,-1,36
 143 508 143 508 182 473.5 c 128,-1,37
 221 439 221 439 276.5 412.5 c 128,-1,38
 332 386 332 386 387.5 357.5 c 128,-1,39
 443 329 443 329 482 284 c 128,-1,40
 521 239 521 239 521 181 c 0,0,1
EndSplineSet
EndChar

StartChar: T
Encoding: 84 84 55
Width: 621
GlyphClass: 2
Flags: W
LayerCount: 2
Fore
SplineSet
353 627 m 2,0,-1
 353 66 l 2,1,2
 353 48 353 48 366 37.5 c 128,-1,3
 379 27 379 27 398 25 c 2,4,-1
 427 23 l 2,5,6
 439 23 439 23 439 10 c 0,7,8
 439 4 439 4 434.5 0 c 128,-1,9
 430 -4 430 -4 425 -4 c 2,10,-1
 312 0 l 1,11,-1
 188 -4 l 2,12,13
 183 -4 183 -4 178.5 0 c 128,-1,14
 174 4 174 4 174 10 c 0,15,16
 174 23 174 23 186 23 c 2,17,-1
 223 25 l 2,18,19
 242 27 242 27 255 37.5 c 128,-1,20
 268 48 268 48 268 66 c 2,21,-1
 268 627 l 2,22,23
 268 654 268 654 243 654 c 2,24,-1
 159 654 l 2,25,26
 110 654 110 654 82 627.5 c 128,-1,27
 54 601 54 601 38 549 c 1,28,29
 32 534 32 534 21.5 534 c 128,-1,30
 11 534 11 534 6 539.5 c 128,-1,31
 1 545 1 545 2 552 c 2,32,-1
 10 681 l 2,33,34
 12 700 12 700 32 700 c 2,35,-1
 586 700 l 2,36,37
 607 700 607 700 609 676 c 2,38,-1
 619 552 l 2,39,40
 620 544 620 544 615 539 c 128,-1,41
 610 534 610 534 599.5 534 c 128,-1,42
 589 534 589 534 583 549 c 0,43,44
 565 602 565 602 537.5 628 c 128,-1,45
 510 654 510 654 462 654 c 2,46,-1
 378 654 l 2,47,48
 353 654 353 654 353 627 c 2,0,-1
EndSplineSet
EndChar

StartChar: U
Encoding: 85 85 56
Width: 773
GlyphClass: 2
Flags: W
LayerCount: 2
Fore
SplineSet
116 257 m 2,0,-1
 116 634 l 2,1,2
 116 670 116 670 70 674 c 2,3,-1
 41 677 l 2,4,5
 30 679 30 679 30 690 c 0,6,7
 30 704 30 704 44 704 c 2,8,-1
 157 700 l 1,9,-1
 256 704 l 2,10,11
 271 704 271 704 271 692 c 0,12,13
 271 678 271 678 258 677 c 1,14,-1
 241 674 l 2,15,16
 201 667 201 667 201 634 c 2,17,-1
 201 256 l 2,18,19
 201 163 201 163 257 111 c 128,-1,20
 313 59 313 59 404.5 59 c 128,-1,21
 496 59 496 59 552.5 112 c 128,-1,22
 609 165 609 165 609 256 c 2,23,-1
 609 634 l 2,24,25
 609 667 609 667 569 674 c 2,26,-1
 552 677 l 2,27,28
 539 679 539 679 539 691 c 128,-1,29
 539 703 539 703 554 703 c 2,30,-1
 632 700 l 1,31,-1
 729 703 l 2,32,33
 743 703 743 703 743 691 c 128,-1,34
 743 679 743 679 732 677 c 2,35,-1
 703 674 l 2,36,37
 657 669 657 669 657 634 c 2,38,-1
 657 257 l 2,39,40
 657 134 657 134 581.5 61.5 c 128,-1,41
 506 -11 506 -11 388 -11 c 128,-1,42
 270 -11 270 -11 193 64 c 128,-1,43
 116 139 116 139 116 257 c 2,0,-1
EndSplineSet
EndChar

StartChar: V
Encoding: 86 86 57
Width: 695
GlyphClass: 2
Flags: W
LayerCount: 2
Fore
SplineSet
498 690 m 0,0,1
 498 704 498 704 513 704 c 2,2,-1
 600 700 l 1,3,-1
 691 704 l 2,4,5
 705 704 705 704 705 690.5 c 128,-1,6
 705 677 705 677 694 677 c 1,7,-1
 675 675 l 2,8,9
 630 670 630 670 617 634 c 2,10,-1
 370 1 l 2,11,12
 366 -11 366 -11 347.5 -11 c 128,-1,13
 329 -11 329 -11 324 1 c 2,14,-1
 78 634 l 2,15,16
 63 672 63 672 21 675 c 2,17,-1
 0 677 l 2,18,19
 -4 677 -4 677 -7 681 c 128,-1,20
 -10 685 -10 685 -10 689 c 0,21,22
 -10 704 -10 704 4 704 c 2,23,-1
 109 700 l 1,24,-1
 220 704 l 2,25,26
 234 704 234 704 234 692 c 0,27,28
 234 678 234 678 222 677 c 2,29,-1
 199 675 l 2,30,31
 182 674 182 674 174.5 661 c 128,-1,32
 167 648 167 648 172 634 c 2,33,-1
 364 110 l 1,34,-1
 561 634 l 2,35,36
 567 649 567 649 559.5 661.5 c 128,-1,37
 552 674 552 674 533 675 c 2,38,-1
 511 677 l 2,39,40
 498 679 498 679 498 690 c 0,0,1
EndSplineSet
EndChar

StartChar: W
Encoding: 87 87 58
Width: 1053
GlyphClass: 2
Flags: W
LayerCount: 2
Fore
SplineSet
321 -11 m 128,-1,1
 304 -11 304 -11 299 1 c 2,2,-1
 83 634 l 2,3,4
 70 671 70 671 26 675 c 2,5,-1
 5 677 l 2,6,7
 1 677 1 677 -2 681 c 128,-1,8
 -5 685 -5 685 -5 689 c 0,9,10
 -5 704 -5 704 9 704 c 2,11,-1
 111 700 l 1,12,-1
 222 704 l 2,13,14
 236 704 236 704 236 692 c 0,15,16
 236 678 236 678 224 677 c 2,17,-1
 201 675 l 2,18,19
 184 674 184 674 176.5 662 c 128,-1,20
 169 650 169 650 174 634 c 2,21,-1
 338 133 l 1,22,-1
 521 691 l 2,23,24
 525 704 525 704 544 704 c 128,-1,25
 563 704 563 704 567 691 c 2,26,-1
 749 133 l 1,27,-1
 914 634 l 2,28,29
 919 651 919 651 911.5 662.5 c 128,-1,30
 904 674 904 674 886 675 c 2,31,-1
 864 677 l 2,32,33
 851 679 851 679 851 690 c 0,34,35
 851 704 851 704 866 704 c 2,36,-1
 953 700 l 1,37,-1
 1044 704 l 2,38,39
 1058 704 1058 704 1058 690.5 c 128,-1,40
 1058 677 1058 677 1047 677 c 1,41,-1
 1028 675 l 1,42,43
 982 669 982 669 970 634 c 2,44,-1
 753 1 l 2,45,46
 749 -11 749 -11 732 -11 c 128,-1,47
 715 -11 715 -11 710 1 c 2,48,-1
 526 548 l 1,49,-1
 342 1 l 2,50,0
 338 -11 338 -11 321 -11 c 128,-1,1
EndSplineSet
EndChar

StartChar: X
Encoding: 88 88 59
Width: 709
GlyphClass: 2
Flags: W
LayerCount: 2
Fore
SplineSet
219 25 m 2,0,1
 231 24 231 24 231 11 c 128,-1,2
 231 -2 231 -2 216 -2 c 2,3,-1
 140 0 l 1,4,-1
 35 -3 l 2,5,6
 21 -3 21 -3 21 9 c 128,-1,7
 21 21 21 21 32 23 c 2,8,-1
 62 26 l 2,9,10
 92 29 92 29 119 66 c 1,11,-1
 310 342 l 1,12,-1
 118 634 l 2,13,14
 94 671 94 671 60 674 c 2,15,-1
 31 677 l 2,16,17
 20 679 20 679 20 691 c 128,-1,18
 20 703 20 703 34 703 c 2,19,-1
 151 700 l 1,20,-1
 254 702 l 2,21,22
 269 702 269 702 269 689 c 128,-1,23
 269 676 269 676 257 675 c 2,24,-1
 239 673 l 2,25,26
 222 671 222 671 216 658.5 c 128,-1,27
 210 646 210 646 218 634 c 2,28,-1
 361 415 l 1,29,-1
 513 634 l 1,30,31
 522 645 522 645 516 658 c 128,-1,32
 510 671 510 671 492 673 c 2,33,-1
 473 675 l 2,34,35
 461 676 461 676 461 689 c 128,-1,36
 461 702 461 702 476 702 c 2,37,-1
 552 700 l 1,38,-1
 657 703 l 2,39,40
 671 703 671 703 671 691 c 128,-1,41
 671 679 671 679 660 677 c 2,42,-1
 630 674 l 2,43,44
 600 671 600 671 573 634 c 1,45,-1
 390 371 l 1,46,-1
 591 66 l 1,47,48
 617 29 617 29 650 26 c 2,49,-1
 678 23 l 2,50,51
 689 21 689 21 689 9 c 128,-1,52
 689 -3 689 -3 675 -3 c 2,53,-1
 559 0 l 1,54,-1
 455 -2 l 2,55,56
 440 -2 440 -2 440 11 c 128,-1,57
 440 24 440 24 452 25 c 2,58,-1
 471 27 l 2,59,60
 488 29 488 29 494 41.5 c 128,-1,61
 500 54 500 54 492 66 c 2,62,-1
 339 298 l 1,63,-1
 179 66 l 2,64,65
 170 54 170 54 176 41.5 c 128,-1,66
 182 29 182 29 200 27 c 2,67,-1
 219 25 l 2,0,1
EndSplineSet
EndChar

StartChar: Y
Encoding: 89 89 60
Width: 707
GlyphClass: 2
Flags: W
LayerCount: 2
Fore
SplineSet
698 703 m 2,0,1
 712 703 712 703 712 691 c 128,-1,2
 712 679 712 679 701 677 c 2,3,-1
 672 674 l 2,4,5
 639 671 639 671 615 634 c 2,6,-1
 420 322 l 2,7,8
 408 301 408 301 406 275 c 1,9,-1
 406 66 l 2,10,11
 406 48 406 48 419 37.5 c 128,-1,12
 432 27 432 27 451 25 c 2,13,-1
 480 23 l 2,14,15
 492 23 492 23 492 10 c 0,16,17
 492 4 492 4 487.5 0 c 128,-1,18
 483 -4 483 -4 478 -4 c 2,19,-1
 365 0 l 1,20,-1
 265 -4 l 2,21,22
 251 -4 251 -4 251 8.5 c 128,-1,23
 251 21 251 21 262 23 c 2,24,-1
 279 25 l 2,25,26
 320 30 320 30 320 66 c 2,27,-1
 320 261 l 2,28,29
 320 280 320 280 311 296 c 1,30,-1
 93 634 l 2,31,32
 69 671 69 671 35 674 c 2,33,-1
 6 677 l 2,34,35
 -5 679 -5 679 -5 691 c 128,-1,36
 -5 703 -5 703 9 703 c 2,37,-1
 128 700 l 1,38,-1
 234 702 l 2,39,40
 249 702 249 702 249 689 c 128,-1,41
 249 676 249 676 237 675 c 2,42,-1
 218 673 l 2,43,44
 200 671 200 671 194.5 658 c 128,-1,45
 189 645 189 645 197 634 c 1,46,-1
 371 348 l 2,47,48
 375 341 375 341 380 341 c 128,-1,49
 385 341 385 341 389 346 c 2,50,-1
 560 634 l 1,51,52
 568 645 568 645 562.5 657.5 c 128,-1,53
 557 670 557 670 539 673 c 1,54,-1
 520 675 l 2,55,56
 506 677 506 677 508 689.5 c 128,-1,57
 510 702 510 702 523 702 c 2,58,-1
 601 700 l 1,59,-1
 698 703 l 2,0,1
EndSplineSet
EndChar

StartChar: Z
Encoding: 90 90 61
Width: 608
GlyphClass: 2
Flags: W
LayerCount: 2
Fore
SplineSet
516 0 m 2,0,-1
 47 0 l 2,1,2
 35 0 35 0 35 11 c 2,3,-1
 35 20 l 2,4,5
 35 30 35 30 40 37 c 2,6,-1
 428 644 l 2,7,8
 434 654 434 654 422 654 c 2,9,-1
 202 654 l 2,10,11
 160 654 160 654 130 628 c 128,-1,12
 100 602 100 602 87 565 c 1,13,14
 83 548 83 548 68 548 c 0,15,16
 61 548 61 548 57 553.5 c 128,-1,17
 53 559 53 559 54 565 c 2,18,-1
 74 670 l 2,19,20
 79 700 79 700 101 700 c 2,21,-1
 535 700 l 2,22,23
 547 700 547 700 547 692 c 2,24,-1
 547 682 l 2,25,26
 547 676 547 676 535 656 c 2,27,-1
 160 65 l 2,28,29
 156 59 156 59 157 54 c 128,-1,30
 158 49 158 49 163 49 c 2,31,-1
 396 49 l 2,32,33
 498 49 498 49 542 159 c 0,34,35
 548 174 548 174 562 174 c 0,36,37
 579 174 579 174 577 156 c 2,38,-1
 561 40 l 2,39,40
 559 23 559 23 547 11.5 c 128,-1,41
 535 0 535 0 516 0 c 2,0,-1
EndSplineSet
EndChar

StartChar: bracketleft
Encoding: 91 91 62
Width: 375
GlyphClass: 2
Flags: W
LayerCount: 2
Fore
SplineSet
100 -210 m 2,0,-1
 100 763 l 2,1,2
 100 775 100 775 114 775 c 2,3,-1
 302 775 l 2,4,5
 315 775 315 775 315 762 c 2,6,-1
 315 745 l 2,7,8
 315 732 315 732 302 732 c 2,9,-1
 175 732 l 1,10,-1
 175 -179 l 1,11,-1
 302 -179 l 2,12,13
 315 -179 315 -179 315 -192 c 2,14,-1
 315 -209 l 2,15,16
 315 -222 315 -222 302 -222 c 2,17,-1
 114 -222 l 2,18,19
 100 -222 100 -222 100 -210 c 2,0,-1
EndSplineSet
EndChar

StartChar: backslash
Encoding: 92 92 63
Width: 345
GlyphClass: 2
Flags: W
LayerCount: 2
Fore
SplineSet
41 768 m 2,0,-1
 81 768 l 2,1,2
 93 768 93 768 95 756 c 1,3,-1
 314 -78 l 1,4,5
 316 -90 316 -90 304 -90 c 2,6,-1
 264 -90 l 2,7,8
 252 -90 252 -90 250 -78 c 1,9,-1
 31 756 l 1,10,11
 29 768 29 768 41 768 c 2,0,-1
EndSplineSet
EndChar

StartChar: bracketright
Encoding: 93 93 64
Width: 375
GlyphClass: 2
Flags: W
LayerCount: 2
Fore
SplineSet
275 763 m 2,0,-1
 275 -210 l 2,1,2
 275 -222 275 -222 261 -222 c 2,3,-1
 73 -222 l 2,4,5
 60 -222 60 -222 60 -209 c 2,6,-1
 60 -192 l 2,7,8
 60 -179 60 -179 73 -179 c 2,9,-1
 200 -179 l 1,10,-1
 200 732 l 1,11,-1
 73 732 l 2,12,13
 60 732 60 732 60 745 c 2,14,-1
 60 762 l 2,15,16
 60 775 60 775 73 775 c 2,17,-1
 261 775 l 2,18,19
 275 775 275 775 275 763 c 2,0,-1
EndSplineSet
EndChar

StartChar: asciicircum
Encoding: 94 94 65
Width: 464
GlyphClass: 2
Flags: W
LayerCount: 2
Fore
SplineSet
104 390 m 2,0,-1
 60 390 l 2,1,2
 55 390 55 390 52.5 393 c 128,-1,3
 50 396 50 396 50 398 c 128,-1,4
 50 400 50 400 51 402 c 2,5,-1
 197 701 l 2,6,7
 201 711 201 711 210 711 c 2,8,-1
 254 711 l 2,9,10
 263 711 263 711 267 701 c 2,11,-1
 413 402 l 2,12,13
 414 400 414 400 414 398 c 128,-1,14
 414 396 414 396 411.5 393 c 128,-1,15
 409 390 409 390 404 390 c 2,16,-1
 360 390 l 2,17,18
 352 390 352 390 347 402 c 2,19,-1
 232 647 l 1,20,-1
 117 402 l 2,21,22
 112 390 112 390 104 390 c 2,0,-1
EndSplineSet
EndChar

StartChar: underscore
Encoding: 95 95 66
Width: 538
GlyphClass: 2
Flags: W
LayerCount: 2
Fore
SplineSet
-8 -241 m 2,0,-1
 546 -241 l 2,1,2
 558 -241 558 -241 558 -252 c 2,3,-1
 558 -289 l 2,4,5
 558 -300 558 -300 546 -300 c 2,6,-1
 -8 -300 l 2,7,8
 -20 -300 -20 -300 -20 -289 c 2,9,-1
 -20 -252 l 2,10,11
 -20 -241 -20 -241 -8 -241 c 2,0,-1
EndSplineSet
EndChar

StartChar: grave
Encoding: 96 96 67
Width: 345
GlyphClass: 2
Flags: W
LayerCount: 2
Fore
SplineSet
84 665 m 2,0,1
 65 675 65 675 65 694.5 c 128,-1,2
 65 714 65 714 77.5 728.5 c 128,-1,3
 90 743 90 743 104 743 c 128,-1,4
 118 743 118 743 129 734 c 2,5,-1
 280 602 l 1,6,-1
 262 578 l 1,7,-1
 84 665 l 2,0,1
EndSplineSet
EndChar

StartChar: a
Encoding: 97 97 68
Width: 511
GlyphClass: 2
Flags: W
LayerCount: 2
Fore
SplineSet
501 5 m 0,0,1
 501 -11 501 -11 465 -11 c 0,2,3
 403 -11 403 -11 360 38 c 0,4,5
 353 45 353 45 349.5 45 c 128,-1,6
 346 45 346 45 339 39 c 0,7,8
 274 -11 274 -11 193 -11 c 0,9,10
 136 -11 136 -11 93 24.5 c 128,-1,11
 50 60 50 60 50 116 c 0,12,13
 50 187 50 187 112 224 c 0,14,15
 167 256 167 256 284 274 c 0,16,17
 312 279 312 279 322 281 c 1,18,19
 335 282 335 282 335 295 c 2,20,-1
 335 387 l 2,21,22
 335 428 335 428 307.5 452 c 128,-1,23
 280 476 280 476 234.5 476 c 128,-1,24
 189 476 189 476 152.5 448 c 128,-1,25
 116 420 116 420 106 370 c 0,26,27
 103 355 103 355 89.5 355 c 128,-1,28
 76 355 76 355 76 370 c 2,29,-1
 76 445 l 2,30,31
 76 462 76 462 87 470 c 0,32,33
 140 511 140 511 239 511 c 128,-1,34
 338 511 338 511 378 468 c 128,-1,35
 418 425 418 425 418 357 c 2,36,-1
 418 90 l 2,37,38
 418 58 418 58 438.5 38 c 128,-1,39
 459 18 459 18 487 18 c 0,40,41
 501 18 501 18 501 5 c 0,0,1
333 98 m 2,42,-1
 333 223 l 2,43,44
 333 238 333 238 320 238 c 0,45,46
 319 238 319 238 317 238 c 0,47,48
 138 216 138 216 138 128 c 0,49,50
 138 87 138 87 165 63.5 c 128,-1,51
 192 40 192 40 225.5 40 c 128,-1,52
 259 40 259 40 284.5 53 c 128,-1,53
 310 66 310 66 321.5 79 c 128,-1,54
 333 92 333 92 333 98 c 2,42,-1
EndSplineSet
EndChar

StartChar: b
Encoding: 98 98 69
Width: 610
GlyphClass: 2
Flags: W
LayerCount: 2
Fore
SplineSet
491 438.5 m 128,-1,1
 560 366 560 366 560 254 c 128,-1,2
 560 142 560 142 484.5 65.5 c 128,-1,3
 409 -11 409 -11 304 -11 c 0,4,5
 227 -11 227 -11 171 17 c 0,6,7
 153 26 153 26 144 26 c 0,8,9
 125 26 125 26 111 3 c 1,10,11
 105 -11 105 -11 96 -11 c 0,12,13
 77 -11 77 -11 79 7 c 0,14,15
 84 50 84 50 84 66 c 2,16,-1
 84 721 l 2,17,18
 84 740 84 740 75.5 748 c 128,-1,19
 67 756 67 756 49 756 c 2,20,-1
 14 756 l 2,21,22
 1 756 1 756 1 769 c 128,-1,23
 1 782 1 782 14 784 c 2,24,-1
 143 800 l 2,25,26
 145 800 145 800 148 800 c 0,27,28
 166 800 166 800 166 777 c 2,29,-1
 160 549 l 1,30,-1
 160 479 l 2,31,32
 160 470 160 470 164 467.5 c 128,-1,33
 168 465 168 465 171 468 c 0,34,35
 236 511 236 511 329 511 c 128,-1,0
 422 511 422 511 491 438.5 c 128,-1,1
472 220 m 0,36,37
 472 338 472 338 425.5 402 c 128,-1,38
 379 466 379 466 297.5 466 c 128,-1,39
 216 466 216 466 172 420 c 0,40,41
 162 410 162 410 162 400 c 2,42,-1
 162 142 l 2,43,44
 162 94 162 94 202 61 c 128,-1,45
 242 28 242 28 294 28 c 0,46,47
 376 28 376 28 424 81 c 128,-1,48
 472 134 472 134 472 220 c 0,36,37
EndSplineSet
EndChar

StartChar: c
Encoding: 99 99 70
Width: 525
GlyphClass: 2
Flags: W
LayerCount: 2
Fore
SplineSet
472 353 m 2,0,1
 472 336 472 336 458 336 c 0,2,3
 446 336 446 336 442 353 c 0,4,5
 427 408 427 408 393 440 c 128,-1,6
 359 472 359 472 307 472 c 0,7,8
 232 472 232 472 185 416.5 c 128,-1,9
 138 361 138 361 138 269 c 0,10,11
 138 154 138 154 194.5 97 c 128,-1,12
 251 40 251 40 325.5 40 c 128,-1,13
 400 40 400 40 447 70 c 0,14,15
 454 75 454 75 460 75 c 128,-1,16
 466 75 466 75 470.5 71 c 128,-1,17
 475 67 475 67 475 59.5 c 128,-1,18
 475 52 475 52 467 44 c 0,19,20
 412 -11 412 -11 303.5 -11 c 128,-1,21
 195 -11 195 -11 122.5 58.5 c 128,-1,22
 50 128 50 128 50 259 c 0,23,24
 50 362 50 362 122.5 436.5 c 128,-1,25
 195 511 195 511 301 511 c 0,26,27
 374 511 374 511 423 488.5 c 128,-1,28
 472 466 472 466 472 440 c 2,29,-1
 472 353 l 2,0,1
EndSplineSet
EndChar

StartChar: d
Encoding: 100 100 71
Width: 624
GlyphClass: 2
Flags: W
LayerCount: 2
Fore
SplineSet
518 800 m 0,0,1
 531 800 531 800 531 779 c 2,2,-1
 531 89 l 2,3,4
 531 58 531 58 550.5 38 c 128,-1,5
 570 18 570 18 592 18 c 128,-1,6
 614 18 614 18 614 5 c 0,7,8
 614 -11 614 -11 575 -11 c 0,9,10
 510 -11 510 -11 472 36 c 0,11,12
 466 44 466 44 462.5 44 c 128,-1,13
 459 44 459 44 438.5 30 c 128,-1,14
 418 16 418 16 382.5 2.5 c 128,-1,15
 347 -11 347 -11 306 -11 c 0,16,17
 187 -11 187 -11 118.5 61 c 128,-1,18
 50 133 50 133 50 243.5 c 128,-1,19
 50 354 50 354 126 432.5 c 128,-1,20
 202 511 202 511 306 511 c 0,21,22
 382 511 382 511 439 465 c 0,23,24
 443 462 443 462 448 462 c 128,-1,25
 453 462 453 462 453 475 c 2,26,-1
 453 720 l 2,27,28
 453 740 453 740 444.5 747.5 c 128,-1,29
 436 755 436 755 417 755 c 2,30,-1
 383 755 l 2,31,32
 378 755 378 755 374 759.5 c 128,-1,33
 370 764 370 764 370 769 c 0,34,35
 370 783 370 783 383 784 c 2,36,-1
 515 800 l 2,37,38
 516 800 516 800 518 800 c 0,0,1
453 135 m 2,39,-1
 453 356 l 2,40,41
 453 401 453 401 411 433 c 128,-1,42
 369 465 369 465 309 465 c 0,43,44
 228 465 228 465 183 414.5 c 128,-1,45
 138 364 138 364 138 277 c 0,46,47
 138 161 138 161 186.5 95.5 c 128,-1,48
 235 30 235 30 311 30 c 0,49,50
 365 30 365 30 409 62 c 128,-1,51
 453 94 453 94 453 135 c 2,39,-1
EndSplineSet
EndChar

StartChar: e
Encoding: 101 101 72
Width: 542
GlyphClass: 2
Flags: W
LayerCount: 2
Fore
SplineSet
497 316 m 0,0,1
 497 256 497 256 443 256 c 2,2,-1
 155 256 l 2,3,4
 143 256 143 256 143 239 c 0,5,6
 145 147 145 147 196.5 93.5 c 128,-1,7
 248 40 248 40 327.5 40 c 128,-1,8
 407 40 407 40 445 71 c 0,9,10
 458 81 458 81 469 70 c 128,-1,11
 480 59 480 59 466 45 c 0,12,13
 410 -11 410 -11 312 -11 c 0,14,15
 189 -11 189 -11 119.5 59.5 c 128,-1,16
 50 130 50 130 50 256 c 0,17,18
 50 358 50 358 119 434.5 c 128,-1,19
 188 511 188 511 283.5 511 c 128,-1,20
 379 511 379 511 438 455.5 c 128,-1,21
 497 400 497 400 497 316 c 0,0,1
407 329 m 0,22,23
 407 389 407 389 374.5 430.5 c 128,-1,24
 342 472 342 472 283.5 472 c 128,-1,25
 225 472 225 472 184 424 c 128,-1,26
 143 376 143 376 143 314 c 0,27,28
 143 298 143 298 156 298 c 2,29,-1
 376 298 l 2,30,31
 407 298 407 298 407 329 c 0,22,23
EndSplineSet
EndChar

StartChar: f
Encoding: 102 102 73
Width: 342
GlyphClass: 2
Flags: W
LayerCount: 2
Fore
SplineSet
183 439 m 2,0,-1
 183 66 l 2,1,2
 183 48 183 48 196 37 c 128,-1,3
 209 26 209 26 229 25 c 2,4,-1
 265 23 l 2,5,6
 277 22 277 22 277 9 c 128,-1,7
 277 -4 277 -4 262 -4 c 2,8,-1
 146 0 l 1,9,-1
 51 -4 l 2,10,11
 36 -4 36 -4 36 9 c 128,-1,12
 36 22 36 22 48 23 c 2,13,-1
 65 25 l 2,14,15
 105 30 105 30 105 66 c 2,16,-1
 105 439 l 2,17,18
 105 450 105 450 93 450 c 2,19,-1
 32 450 l 2,20,21
 20 450 20 450 20 463 c 2,22,-1
 20 471 l 2,23,24
 20 481 20 481 32 483 c 2,25,-1
 88 497 l 2,26,27
 105 501 105 501 105 515 c 2,28,-1
 105 519 l 2,29,30
 105 638 105 638 165.5 719 c 128,-1,31
 226 800 226 800 329 800 c 0,32,33
 368 800 368 800 393 790 c 0,34,35
 432 776 432 776 432 754 c 2,36,-1
 432 689 l 2,37,38
 432 683 432 683 427.5 677.5 c 128,-1,39
 423 672 423 672 417 672 c 0,40,41
 403 672 403 672 396 689 c 0,42,43
 384 719 384 719 357.5 735.5 c 128,-1,44
 331 752 331 752 298 752 c 0,45,46
 241 752 241 752 212 708 c 128,-1,47
 183 664 183 664 183 583 c 2,48,-1
 183 511 l 2,49,50
 183 500 183 500 193 500 c 2,51,-1
 323 500 l 2,52,53
 336 500 336 500 334 488 c 2,54,-1
 330 463 l 2,55,56
 328 450 328 450 318 450 c 2,57,-1
 192 450 l 2,58,59
 183 450 183 450 183 439 c 2,0,-1
EndSplineSet
EndChar

StartChar: g
Encoding: 103 103 74
Width: 564
GlyphClass: 2
Flags: W
LayerCount: 2
Fore
SplineSet
529 441 m 2,0,-1
 446 441 l 2,1,2
 440 441 440 441 439 438 c 128,-1,3
 438 435 438 435 442 431 c 0,4,5
 473 391 473 391 473 330 c 0,6,7
 473 248 473 248 415.5 199 c 128,-1,8
 358 150 358 150 272 150 c 0,9,10
 223 150 223 150 200.5 157.5 c 128,-1,11
 178 165 178 165 166 158 c 0,12,13
 130 138 130 138 130 100 c 0,14,15
 130 75 130 75 151 59.5 c 128,-1,16
 172 44 172 44 196 44 c 2,17,-1
 341 44 l 2,18,19
 439 44 439 44 488.5 3 c 128,-1,20
 538 -38 538 -38 538 -109 c 0,21,22
 538 -197 538 -197 466.5 -246.5 c 128,-1,23
 395 -296 395 -296 290 -296 c 128,-1,24
 185 -296 185 -296 120 -256 c 128,-1,25
 55 -216 55 -216 55 -143 c 0,26,27
 55 -94 55 -94 86 -62 c 128,-1,28
 117 -30 117 -30 153 -18 c 1,29,30
 124 -11 124 -11 97 16.5 c 128,-1,31
 70 44 70 44 70 83 c 0,32,33
 70 146 70 146 134 180 c 0,34,35
 137 182 137 182 137 185 c 128,-1,36
 137 188 137 188 134 192 c 1,37,38
 72 244 72 244 72 328 c 128,-1,39
 72 412 72 412 128.5 461.5 c 128,-1,40
 185 511 185 511 269 511 c 0,41,42
 301 511 301 511 340.5 501 c 128,-1,43
 380 491 380 491 394 491 c 2,44,-1
 538 491 l 2,45,46
 550 491 550 491 548 479 c 2,47,-1
 543 453 l 2,48,49
 541 441 541 441 529 441 c 2,0,-1
361 225 m 128,-1,51
 392 259 392 259 392 319 c 128,-1,52
 392 379 392 379 359.5 424.5 c 128,-1,53
 327 470 327 470 270 470 c 128,-1,54
 213 470 213 470 183 435.5 c 128,-1,55
 153 401 153 401 153 341 c 128,-1,56
 153 281 153 281 183.5 236 c 128,-1,57
 214 191 214 191 272 191 c 128,-1,50
 330 191 330 191 361 225 c 128,-1,51
414.5 -223 m 128,-1,59
 464 -187 464 -187 464 -135 c 128,-1,60
 464 -83 464 -83 432 -57 c 128,-1,61
 400 -31 400 -31 341 -31 c 2,62,-1
 241 -31 l 2,63,64
 186 -31 186 -31 156 -61 c 128,-1,65
 126 -91 126 -91 126 -142 c 128,-1,66
 126 -193 126 -193 170.5 -226 c 128,-1,67
 215 -259 215 -259 290 -259 c 128,-1,58
 365 -259 365 -259 414.5 -223 c 128,-1,59
EndSplineSet
EndChar

StartChar: h
Encoding: 104 104 75
Width: 638
GlyphClass: 2
Flags: W
LayerCount: 2
Fore
SplineSet
168 800 m 0,0,1
 184 800 184 800 184 777 c 2,2,-1
 184 437 l 2,3,4
 184 432 184 432 187.5 432 c 128,-1,5
 191 432 191 432 197 438 c 0,6,7
 255 511 255 511 348.5 511 c 128,-1,8
 442 511 442 511 492 461.5 c 128,-1,9
 542 412 542 412 542 319 c 2,10,-1
 542 66 l 2,11,12
 542 48 542 48 555 37.5 c 128,-1,13
 568 27 568 27 588 25 c 2,14,-1
 616 23 l 2,15,16
 628 22 628 22 628 9 c 128,-1,17
 628 -4 628 -4 613 -4 c 2,18,-1
 505 0 l 1,19,-1
 415 -4 l 2,20,21
 400 -4 400 -4 400 9 c 128,-1,22
 400 22 400 22 412 23 c 2,23,-1
 424 25 l 2,24,25
 464 32 464 32 464 66 c 2,26,-1
 464 333 l 2,27,28
 464 395 464 395 429 429 c 128,-1,29
 394 463 394 463 332.5 463 c 128,-1,30
 271 463 271 463 227.5 412.5 c 128,-1,31
 184 362 184 362 184 313 c 2,32,-1
 184 66 l 2,33,34
 184 30 184 30 224 25 c 2,35,-1
 239 23 l 2,36,37
 251 22 251 22 251 9 c 128,-1,38
 251 -4 251 -4 236 -4 c 2,39,-1
 143 0 l 1,40,-1
 35 -4 l 2,41,42
 20 -4 20 -4 20 9 c 128,-1,43
 20 22 20 22 32 23 c 2,44,-1
 60 25 l 2,45,46
 80 27 80 27 93 37.5 c 128,-1,47
 106 48 106 48 106 66 c 2,48,-1
 106 721 l 2,49,50
 106 741 106 741 97.5 748.5 c 128,-1,51
 89 756 89 756 70 756 c 2,52,-1
 36 756 l 2,53,54
 23 756 23 756 23 769 c 128,-1,55
 23 782 23 782 36 784 c 2,56,-1
 166 800 l 2,57,58
 167 800 167 800 168 800 c 0,0,1
EndSplineSet
EndChar

StartChar: i
Encoding: 105 105 76
Width: 288
GlyphClass: 2
Flags: W
LayerCount: 2
Fore
SplineSet
241 23 m 2,0,1
 253 22 253 22 253 9 c 128,-1,2
 253 -4 253 -4 238 -4 c 2,3,-1
 143 0 l 1,4,-1
 35 -4 l 2,5,6
 20 -4 20 -4 20 9 c 128,-1,7
 20 22 20 22 32 23 c 2,8,-1
 60 25 l 2,9,10
 80 27 80 27 93 37.5 c 128,-1,11
 106 48 106 48 106 66 c 2,12,-1
 106 432 l 2,13,14
 106 452 106 452 97.5 459.5 c 128,-1,15
 89 467 89 467 70 467 c 2,16,-1
 36 467 l 2,17,18
 23 467 23 467 23 480 c 128,-1,19
 23 493 23 493 36 495 c 2,20,-1
 166 511 l 2,21,22
 184 513 184 513 184 488 c 2,23,-1
 184 66 l 2,24,25
 184 30 184 30 224 25 c 2,26,-1
 241 23 l 2,0,1
89 695 m 128,-1,28
 89 715 89 715 102.5 728 c 128,-1,29
 116 741 116 741 136 741 c 128,-1,30
 156 741 156 741 170 728 c 128,-1,31
 184 715 184 715 184 695 c 128,-1,32
 184 675 184 675 170 662 c 128,-1,33
 156 649 156 649 136 649 c 128,-1,34
 116 649 116 649 102.5 662 c 128,-1,27
 89 675 89 675 89 695 c 128,-1,28
EndSplineSet
EndChar

StartChar: j
Encoding: 106 106 77
Width: 277
GlyphClass: 2
Flags: W
LayerCount: 2
Fore
SplineSet
91 695 m 128,-1,1
 91 715 91 715 104.5 728 c 128,-1,2
 118 741 118 741 138 741 c 128,-1,3
 158 741 158 741 172 728 c 128,-1,4
 186 715 186 715 186 695 c 128,-1,5
 186 675 186 675 172 662 c 128,-1,6
 158 649 158 649 138 649 c 128,-1,7
 118 649 118 649 104.5 662 c 128,-1,0
 91 675 91 675 91 695 c 128,-1,1
170 511 m 0,8,9
 187 511 187 511 187 488 c 2,10,-1
 187 -5 l 2,11,12
 187 -195 187 -195 67 -272 c 0,13,14
 23 -300 23 -300 10.5 -300 c 128,-1,15
 -2 -300 -2 -300 -6 -293 c 0,16,17
 -13 -282 -13 -282 -13 -275 c 128,-1,18
 -13 -268 -13 -268 -6 -265 c 0,19,20
 33 -243 33 -243 59 -212 c 1,21,22
 109 -159 109 -159 109 -56 c 2,23,-1
 109 432 l 2,24,25
 109 452 109 452 100.5 459.5 c 128,-1,26
 92 467 92 467 73 467 c 2,27,-1
 39 467 l 2,28,29
 26 467 26 467 26 480 c 128,-1,30
 26 493 26 493 39 495 c 2,31,-1
 168 511 l 2,32,33
 169 511 169 511 170 511 c 0,8,9
EndSplineSet
EndChar

StartChar: k
Encoding: 107 107 78
Width: 564
GlyphClass: 2
Flags: W
LayerCount: 2
Fore
SplineSet
106 66 m 2,0,-1
 106 721 l 2,1,2
 106 741 106 741 97.5 748.5 c 128,-1,3
 89 756 89 756 70 756 c 2,4,-1
 36 756 l 2,5,6
 23 756 23 756 23 769 c 128,-1,7
 23 782 23 782 36 784 c 2,8,-1
 166 800 l 1,9,10
 184 800 184 800 184 777 c 2,11,-1
 184 296 l 2,12,13
 184 287 184 287 191 287 c 2,14,-1
 233 287 l 2,15,16
 241 287 241 287 247 293 c 2,17,-1
 388 441 l 1,18,19
 397 452 397 452 397 458.5 c 128,-1,20
 397 465 397 465 389.5 476 c 128,-1,21
 382 487 382 487 382 492 c 0,22,23
 382 503 382 503 396 503 c 2,24,-1
 459 500 l 1,25,-1
 533 504 l 2,26,27
 548 504 548 504 548 492 c 128,-1,28
 548 480 548 480 536 478 c 2,29,-1
 522 476 l 2,30,31
 488 471 488 471 462 444 c 2,32,-1
 307 287 l 2,33,34
 303 283 303 283 303 279.5 c 128,-1,35
 303 276 303 276 307 272 c 2,36,-1
 486 66 l 2,37,38
 520 27 520 27 539 25 c 2,39,-1
 557 23 l 2,40,41
 569 21 569 21 569 10 c 0,42,43
 569 -4 569 -4 555 -4 c 0,44,45
 480 0 480 0 462 0 c 2,46,-1
 401 -3 l 2,47,48
 386 -3 386 -3 386 8 c 0,49,50
 386 15 386 15 391.5 24.5 c 128,-1,51
 397 34 397 34 397 40 c 128,-1,52
 397 46 397 46 388 56 c 2,53,-1
 239 237 l 2,54,55
 233 243 233 243 226 243 c 2,56,-1
 193 243 l 2,57,58
 184 243 184 243 184 234 c 2,59,-1
 184 66 l 2,60,61
 184 30 184 30 224 25 c 2,62,-1
 241 23 l 2,63,64
 253 22 253 22 253 9 c 128,-1,65
 253 -4 253 -4 238 -4 c 2,66,-1
 143 0 l 1,67,-1
 35 -4 l 2,68,69
 20 -4 20 -4 20 9 c 128,-1,70
 20 22 20 22 32 23 c 2,71,-1
 60 25 l 2,72,73
 80 27 80 27 93 37.5 c 128,-1,74
 106 48 106 48 106 66 c 2,0,-1
EndSplineSet
EndChar

StartChar: l
Encoding: 108 108 79
Width: 288
GlyphClass: 2
Flags: W
LayerCount: 2
Fore
SplineSet
168 800 m 0,0,1
 184 800 184 800 184 777 c 2,2,-1
 184 66 l 2,3,4
 184 30 184 30 224 25 c 2,5,-1
 241 23 l 2,6,7
 253 22 253 22 253 9 c 128,-1,8
 253 -4 253 -4 238 -4 c 2,9,-1
 143 0 l 1,10,-1
 35 -4 l 2,11,12
 20 -4 20 -4 20 9 c 128,-1,13
 20 22 20 22 32 23 c 2,14,-1
 60 25 l 2,15,16
 80 27 80 27 93 37.5 c 128,-1,17
 106 48 106 48 106 66 c 2,18,-1
 106 721 l 2,19,20
 106 741 106 741 97.5 748.5 c 128,-1,21
 89 756 89 756 70 756 c 2,22,-1
 36 756 l 2,23,24
 23 756 23 756 23 769 c 128,-1,25
 23 782 23 782 36 784 c 2,26,-1
 166 800 l 2,27,28
 167 800 167 800 168 800 c 0,0,1
EndSplineSet
EndChar

StartChar: m
Encoding: 109 109 80
Width: 901
GlyphClass: 2
Flags: W
LayerCount: 2
Fore
SplineSet
168 511 m 0,0,1
 184 511 184 511 184 488 c 2,2,-1
 184 444 l 2,3,4
 184 439 184 439 187.5 439 c 128,-1,5
 191 439 191 439 197 445 c 0,6,7
 258 511 258 511 330 511 c 0,8,9
 384 511 384 511 418.5 491.5 c 128,-1,10
 453 472 453 472 474 427 c 0,11,12
 477 421 477 421 480 421 c 128,-1,13
 483 421 483 421 487 428 c 0,14,15
 548 511 548 511 640 511 c 0,16,17
 717 511 717 511 760 463 c 128,-1,18
 803 415 803 415 803 324 c 2,19,-1
 803 66 l 2,20,21
 803 48 803 48 817.5 37.5 c 128,-1,22
 832 27 832 27 852 25 c 2,23,-1
 879 23 l 2,24,25
 891 22 891 22 891 9 c 128,-1,26
 891 -4 891 -4 876 -4 c 2,27,-1
 769 0 l 1,28,-1
 678 -4 l 2,29,30
 663 -4 663 -4 663 9 c 128,-1,31
 663 22 663 22 675 23 c 2,32,-1
 688 25 l 2,33,34
 725 31 725 31 725 66 c 2,35,-1
 725 338 l 2,36,37
 725 463 725 463 618 463 c 0,38,39
 568 463 568 463 531 414.5 c 128,-1,40
 494 366 494 366 494 315 c 2,41,-1
 494 68 l 2,42,43
 494 29 494 29 529 25 c 2,44,-1
 546 23 l 2,45,46
 557 22 557 22 557 9 c 128,-1,47
 557 -4 557 -4 544 -4 c 2,48,-1
 456 0 l 1,49,-1
 368 -4 l 2,50,51
 353 -4 353 -4 353 8.5 c 128,-1,52
 353 21 353 21 365 23 c 2,53,-1
 380 25 l 2,54,55
 416 30 416 30 416 66 c 2,56,-1
 416 338 l 2,57,58
 416 463 416 463 310 463 c 0,59,60
 262 463 262 463 223 416 c 128,-1,61
 184 369 184 369 184 315 c 2,62,-1
 184 66 l 2,63,64
 184 30 184 30 224 25 c 2,65,-1
 241 23 l 2,66,67
 253 22 253 22 253 9 c 128,-1,68
 253 -4 253 -4 238 -4 c 2,69,-1
 143 0 l 1,70,-1
 35 -4 l 2,71,72
 20 -4 20 -4 20 9 c 128,-1,73
 20 22 20 22 32 23 c 2,74,-1
 60 25 l 2,75,76
 80 27 80 27 93 37.5 c 128,-1,77
 106 48 106 48 106 66 c 2,78,-1
 106 432 l 2,79,80
 106 452 106 452 97.5 459.5 c 128,-1,81
 89 467 89 467 70 467 c 2,82,-1
 36 467 l 2,83,84
 23 467 23 467 23 480 c 128,-1,85
 23 493 23 493 36 495 c 2,86,-1
 166 511 l 2,87,88
 167 511 167 511 168 511 c 0,0,1
EndSplineSet
EndChar

StartChar: n
Encoding: 110 110 81
Width: 640
GlyphClass: 2
Flags: W
LayerCount: 2
Fore
SplineSet
168 511 m 0,0,1
 184 511 184 511 184 488 c 2,2,-1
 184 437 l 2,3,4
 184 432 184 432 187.5 432 c 128,-1,5
 191 432 191 432 197 438 c 0,6,7
 255 511 255 511 348.5 511 c 128,-1,8
 442 511 442 511 492 461.5 c 128,-1,9
 542 412 542 412 542 319 c 2,10,-1
 542 66 l 2,11,12
 542 48 542 48 556.5 37.5 c 128,-1,13
 571 27 571 27 591 25 c 2,14,-1
 618 23 l 2,15,16
 630 22 630 22 630 9 c 128,-1,17
 630 -4 630 -4 615 -4 c 2,18,-1
 508 0 l 1,19,-1
 417 -4 l 2,20,21
 402 -4 402 -4 402 9 c 128,-1,22
 402 22 402 22 414 23 c 2,23,-1
 427 25 l 2,24,25
 464 31 464 31 464 66 c 2,26,-1
 464 333 l 2,27,28
 464 395 464 395 429 429 c 128,-1,29
 394 463 394 463 332.5 463 c 128,-1,30
 271 463 271 463 227.5 412.5 c 128,-1,31
 184 362 184 362 184 313 c 2,32,-1
 184 66 l 2,33,34
 184 30 184 30 224 25 c 2,35,-1
 241 23 l 2,36,37
 253 22 253 22 253 9 c 128,-1,38
 253 -4 253 -4 238 -4 c 2,39,-1
 143 0 l 1,40,-1
 35 -4 l 2,41,42
 20 -4 20 -4 20 9 c 128,-1,43
 20 22 20 22 32 23 c 2,44,-1
 60 25 l 2,45,46
 80 27 80 27 93 37.5 c 128,-1,47
 106 48 106 48 106 66 c 2,48,-1
 106 432 l 2,49,50
 106 452 106 452 97.5 459.5 c 128,-1,51
 89 467 89 467 70 467 c 2,52,-1
 36 467 l 2,53,54
 23 467 23 467 23 480 c 128,-1,55
 23 493 23 493 36 495 c 2,56,-1
 166 511 l 2,57,58
 167 511 167 511 168 511 c 0,0,1
EndSplineSet
EndChar

StartChar: o
Encoding: 111 111 82
Width: 606
GlyphClass: 2
Flags: W
LayerCount: 2
Fore
SplineSet
487.5 439 m 128,-1,1
 556 367 556 367 556 249.5 c 128,-1,2
 556 132 556 132 488 60.5 c 128,-1,3
 420 -11 420 -11 303.5 -11 c 128,-1,4
 187 -11 187 -11 118.5 61 c 128,-1,5
 50 133 50 133 50 249 c 128,-1,6
 50 365 50 365 120 438 c 128,-1,7
 190 511 190 511 304.5 511 c 128,-1,0
 419 511 419 511 487.5 439 c 128,-1,1
436 389 m 0,8,9
 419 427 419 427 385.5 449.5 c 128,-1,10
 352 472 352 472 304 472 c 0,11,12
 221 472 221 472 180 417 c 128,-1,13
 139 362 139 362 139 273 c 0,14,15
 139 181 139 181 171 110 c 0,16,17
 188 73 188 73 221.5 50.5 c 128,-1,18
 255 28 255 28 301 28 c 0,19,20
 386 28 386 28 426.5 83 c 128,-1,21
 467 138 467 138 467 229 c 128,-1,22
 467 320 467 320 436 389 c 0,8,9
EndSplineSet
EndChar

StartChar: p
Encoding: 112 112 83
Width: 621
GlyphClass: 2
Flags: W
LayerCount: 2
Fore
SplineSet
484 218 m 0,0,1
 484 338 484 338 436 404 c 128,-1,2
 388 470 388 470 316.5 470 c 128,-1,3
 245 470 245 470 209.5 431.5 c 128,-1,4
 174 393 174 393 174 350 c 2,5,-1
 174 149 l 2,6,7
 174 101 174 101 216.5 64.5 c 128,-1,8
 259 28 259 28 310 28 c 0,9,10
 390 28 390 28 437 78 c 128,-1,11
 484 128 484 128 484 218 c 0,0,1
158 511 m 0,12,13
 174 511 174 511 174 488 c 2,14,-1
 174 469 l 2,15,16
 174 457 174 457 182.5 464 c 128,-1,17
 191 471 191 471 206 480.5 c 128,-1,18
 221 490 221 490 252 500.5 c 128,-1,19
 283 511 283 511 315 511 c 0,20,21
 432 511 432 511 501.5 440.5 c 128,-1,22
 571 370 571 370 571 252 c 128,-1,23
 571 134 571 134 498 61.5 c 128,-1,24
 425 -11 425 -11 320 -11 c 0,25,26
 243 -11 243 -11 186 31 c 0,27,28
 181 35 181 35 177.5 32 c 128,-1,29
 174 29 174 29 174 22 c 2,30,-1
 174 -234 l 2,31,32
 174 -270 174 -270 214 -275 c 2,33,-1
 231 -277 l 2,34,35
 243 -278 243 -278 243 -291 c 128,-1,36
 243 -304 243 -304 228 -304 c 2,37,-1
 133 -300 l 1,38,-1
 25 -304 l 2,39,40
 10 -304 10 -304 10 -291 c 128,-1,41
 10 -278 10 -278 22 -277 c 2,42,-1
 50 -275 l 2,43,44
 70 -273 70 -273 83 -262.5 c 128,-1,45
 96 -252 96 -252 96 -234 c 2,46,-1
 96 432 l 2,47,48
 96 452 96 452 87.5 459.5 c 128,-1,49
 79 467 79 467 60 467 c 2,50,-1
 26 467 l 2,51,52
 13 467 13 467 13 480 c 128,-1,53
 13 493 13 493 26 495 c 2,54,-1
 156 511 l 2,55,56
 157 511 157 511 158 511 c 0,12,13
EndSplineSet
EndChar

StartChar: q
Encoding: 113 113 84
Width: 604
GlyphClass: 2
Flags: W
LayerCount: 2
Fore
SplineSet
531 497 m 1,0,-1
 526 434 l 1,1,-1
 526 -232 l 2,2,3
 526 -250 526 -250 539.5 -261.5 c 128,-1,4
 553 -273 553 -273 573 -275 c 2,5,-1
 602 -277 l 2,6,7
 614 -278 614 -278 614 -291 c 128,-1,8
 614 -304 614 -304 600 -304 c 2,9,-1
 490 -300 l 1,10,-1
 416 -304 l 2,11,12
 401 -304 401 -304 401 -291.5 c 128,-1,13
 401 -279 401 -279 413 -277 c 2,14,-1
 424 -275 l 2,15,16
 450 -271 450 -271 450 -238 c 2,17,-1
 450 20 l 2,18,19
 450 33 450 33 445.5 33 c 128,-1,20
 441 33 441 33 439 31 c 0,21,22
 386 -11 386 -11 309 -11 c 0,23,24
 193 -11 193 -11 121.5 60 c 128,-1,25
 50 131 50 131 50 253 c 0,26,27
 50 357 50 357 126 434 c 128,-1,28
 202 511 202 511 306 511 c 0,29,30
 375 511 375 511 436 483 c 0,31,32
 455 474 455 474 469.5 474 c 128,-1,33
 484 474 484 474 496.5 493.5 c 128,-1,34
 509 513 509 513 518 513 c 0,35,36
 531 513 531 513 531 497 c 1,0,-1
448 100 m 2,37,-1
 448 359 l 2,38,39
 448 410 448 410 408.5 441 c 128,-1,40
 369 472 369 472 316 472 c 0,41,42
 234 472 234 472 186 418.5 c 128,-1,43
 138 365 138 365 138 279 c 0,44,45
 138 162 138 162 188.5 98 c 128,-1,46
 239 34 239 34 325 34 c 0,47,48
 368 34 368 34 408 56 c 128,-1,49
 448 78 448 78 448 100 c 2,37,-1
EndSplineSet
EndChar

StartChar: r
Encoding: 114 114 85
Width: 408
GlyphClass: 2
Flags: W
LayerCount: 2
Fore
SplineSet
168 511 m 0,0,1
 184 511 184 511 184 488 c 2,2,-1
 184 434 l 2,3,4
 184 429 184 429 188 429 c 128,-1,5
 192 429 192 429 197 435 c 0,6,7
 220 464 220 464 260.5 487.5 c 128,-1,8
 301 511 301 511 332.5 511 c 128,-1,9
 364 511 364 511 381 504 c 128,-1,10
 398 497 398 497 398 488 c 2,11,-1
 398 411 l 2,12,13
 398 396 398 396 384 396 c 0,14,15
 376 396 376 396 363 411 c 0,16,17
 335 445 335 445 290.5 445 c 128,-1,18
 246 445 246 445 215 403 c 128,-1,19
 184 361 184 361 184 282 c 2,20,-1
 184 66 l 2,21,22
 184 30 184 30 237 26 c 2,23,-1
 278 23 l 2,24,25
 290 22 290 22 290 9 c 128,-1,26
 290 -4 290 -4 275 -4 c 2,27,-1
 143 0 l 1,28,-1
 35 -4 l 2,29,30
 20 -4 20 -4 20 9 c 128,-1,31
 20 22 20 22 32 23 c 2,32,-1
 60 25 l 2,33,34
 80 27 80 27 93 37.5 c 128,-1,35
 106 48 106 48 106 66 c 2,36,-1
 106 432 l 2,37,38
 106 452 106 452 97.5 459.5 c 128,-1,39
 89 467 89 467 70 467 c 2,40,-1
 36 467 l 2,41,42
 23 467 23 467 23 480 c 128,-1,43
 23 493 23 493 36 495 c 2,44,-1
 166 511 l 2,45,46
 167 511 167 511 168 511 c 0,0,1
EndSplineSet
EndChar

StartChar: s
Encoding: 115 115 86
Width: 442
GlyphClass: 2
Flags: W
LayerCount: 2
Fore
SplineSet
397 129 m 0,0,1
 397 66 397 66 346.5 27.5 c 128,-1,2
 296 -11 296 -11 223.5 -11 c 128,-1,3
 151 -11 151 -11 103 6 c 128,-1,4
 55 23 55 23 55 44 c 2,5,-1
 55 131 l 2,6,7
 55 149 55 149 68.5 149 c 128,-1,8
 82 149 82 149 87 131 c 0,9,10
 118 28 118 28 217 28 c 0,11,12
 262 28 262 28 291 50.5 c 128,-1,13
 320 73 320 73 320 107 c 128,-1,14
 320 141 320 141 293 165.5 c 128,-1,15
 266 190 266 190 227.5 208 c 128,-1,16
 189 226 189 226 150.5 246 c 128,-1,17
 112 266 112 266 85 297.5 c 128,-1,18
 58 329 58 329 58 370 c 0,19,20
 58 431 58 431 105 471 c 128,-1,21
 152 511 152 511 230 511 c 0,22,23
 282 511 282 511 325 493.5 c 128,-1,24
 368 476 368 476 368 456 c 2,25,-1
 368 379 l 2,26,27
 368 361 368 361 354 361 c 128,-1,28
 340 361 340 361 336 379 c 1,29,30
 309 472 309 472 223 472 c 0,31,32
 184 472 184 472 157 452.5 c 128,-1,33
 130 433 130 433 130 400.5 c 128,-1,34
 130 368 130 368 157.5 343 c 128,-1,35
 185 318 185 318 224.5 299.5 c 128,-1,36
 264 281 264 281 303 260.5 c 128,-1,37
 342 240 342 240 369.5 206.5 c 128,-1,38
 397 173 397 173 397 129 c 0,0,1
EndSplineSet
EndChar

StartChar: t
Encoding: 116 116 87
Width: 361
GlyphClass: 2
Flags: W
LayerCount: 2
Fore
SplineSet
360 48 m 0,0,1
 360 29 360 29 319.5 9 c 128,-1,2
 279 -11 279 -11 238 -11 c 0,3,4
 165 -11 165 -11 133.5 23.5 c 128,-1,5
 102 58 102 58 102 139 c 2,6,-1
 102 439 l 2,7,8
 102 450 102 450 89 450 c 2,9,-1
 28 450 l 2,10,11
 23 450 23 450 19 453.5 c 128,-1,12
 15 457 15 457 16 462 c 2,13,-1
 19 488 l 2,14,15
 21 500 21 500 31 500 c 2,16,-1
 91 500 l 2,17,18
 100 500 100 500 100 511 c 2,19,-1
 109 650 l 2,20,21
 110 669 110 669 128 669 c 0,22,23
 142 669 142 669 147 654 c 1,24,-1
 180 513 l 2,25,26
 183 500 183 500 195 500 c 2,27,-1
 344 500 l 2,28,29
 358 500 358 500 355 488 c 1,30,-1
 352 462 l 2,31,32
 350 450 350 450 340 450 c 2,33,-1
 188 450 l 2,34,35
 180 450 180 450 180 439 c 2,36,-1
 180 129 l 2,37,38
 180 35 180 35 253 35 c 0,39,40
 286 35 286 35 318 47 c 2,41,-1
 350 59 l 1,42,43
 360 59 360 59 360 48 c 0,0,1
EndSplineSet
EndChar

StartChar: u
Encoding: 117 117 88
Width: 628
GlyphClass: 2
Flags: W
LayerCount: 2
Fore
SplineSet
535 458 m 2,0,-1
 535 91 l 2,1,2
 535 59 535 59 555 39.5 c 128,-1,3
 575 20 575 20 603 20 c 0,4,5
 618 20 618 20 618 8 c 0,6,7
 618 -11 618 -11 579 -11 c 0,8,9
 520 -11 520 -11 476 38 c 0,10,11
 473 41 473 41 470 45 c 128,-1,12
 467 49 467 49 465 52 c 0,13,14
 461 57 461 57 456.5 57 c 128,-1,15
 452 57 452 57 443 49 c 0,16,17
 375 -11 375 -11 288.5 -11 c 128,-1,18
 202 -11 202 -11 150 39 c 128,-1,19
 98 89 98 89 98 181 c 2,20,-1
 98 434 l 2,21,22
 98 454 98 454 89.5 462 c 128,-1,23
 81 470 81 470 63 470 c 2,24,-1
 29 470 l 2,25,26
 24 470 24 470 19.5 474 c 128,-1,27
 15 478 15 478 15 484 c 0,28,29
 15 496 15 496 29 498 c 2,30,-1
 161 511 l 2,31,32
 164 511 164 511 166 511 c 0,33,34
 186 511 186 511 186 495 c 0,35,36
 186 493 186 493 181 483 c 128,-1,37
 176 473 176 473 176 458 c 2,38,-1
 176 165 l 2,39,40
 176 103 176 103 214.5 67.5 c 128,-1,41
 253 32 253 32 313.5 32 c 128,-1,42
 374 32 374 32 415.5 77 c 128,-1,43
 457 122 457 122 457 179 c 2,44,-1
 457 434 l 2,45,46
 457 454 457 454 448.5 462 c 128,-1,47
 440 470 440 470 422 470 c 2,48,-1
 378 470 l 2,49,50
 373 470 373 470 368.5 474 c 128,-1,51
 364 478 364 478 364 484 c 0,52,53
 364 496 364 496 378 498 c 2,54,-1
 518 511 l 2,55,56
 520 511 520 511 523 511 c 0,57,58
 543 511 543 511 543 495 c 0,59,60
 543 493 543 493 539 483 c 128,-1,61
 535 473 535 473 535 458 c 2,0,-1
EndSplineSet
EndChar

StartChar: v
Encoding: 118 118 89
Width: 536
GlyphClass: 2
Flags: W
LayerCount: 2
Fore
SplineSet
522 504 m 2,0,1
 535 504 535 504 535 492 c 128,-1,2
 535 480 535 480 524 478 c 2,3,-1
 505 475 l 2,4,5
 477 470 477 470 463 437 c 2,6,-1
 284 -2 l 2,7,8
 280 -11 280 -11 267.5 -11 c 128,-1,9
 255 -11 255 -11 251 -2 c 2,10,-1
 72 440 l 2,11,12
 60 470 60 470 31 475 c 2,13,-1
 12 478 l 2,14,15
 1 480 1 480 1 492 c 128,-1,16
 1 504 1 504 15 504 c 2,17,-1
 114 500 l 1,18,-1
 210 504 l 2,19,20
 227 504 227 504 227 492 c 128,-1,21
 227 480 227 480 214 478 c 2,22,-1
 193 476 l 2,23,24
 157 473 157 473 157 450 c 0,25,26
 157 442 157 442 159 438 c 2,27,-1
 281 116 l 2,28,29
 283 111 283 111 286.5 111 c 128,-1,30
 290 111 290 111 292 115 c 2,31,-1
 419 438 l 2,32,33
 423 447 423 447 423 455 c 0,34,35
 423 473 423 473 392 476 c 2,36,-1
 372 478 l 2,37,38
 360 480 360 480 360 492 c 128,-1,39
 360 504 360 504 374 504 c 2,40,-1
 450 500 l 1,41,-1
 522 504 l 2,0,1
EndSplineSet
EndChar

StartChar: w
Encoding: 119 119 90
Width: 812
GlyphClass: 2
Flags: W
LayerCount: 2
Fore
SplineSet
596 -2 m 1,0,1
 592 -11 592 -11 579.5 -11 c 128,-1,2
 567 -11 567 -11 563 -2 c 2,3,-1
 409 380 l 2,4,5
 406 385 406 385 403 385 c 0,6,7
 396 385 396 385 393 376 c 2,8,-1
 246 -2 l 2,9,10
 242 -11 242 -11 229.5 -11 c 128,-1,11
 217 -11 217 -11 213 -2 c 1,12,-1
 72 440 l 2,13,14
 62 470 62 470 31 475 c 2,15,-1
 12 478 l 2,16,17
 1 480 1 480 1 492 c 128,-1,18
 1 504 1 504 15 504 c 2,19,-1
 112 500 l 1,20,-1
 208 504 l 2,21,22
 225 504 225 504 225 492 c 128,-1,23
 225 480 225 480 212 478 c 2,24,-1
 191 476 l 2,25,26
 156 473 156 473 156 447 c 0,27,28
 156 441 156 441 157 438 c 2,29,-1
 248 127 l 2,30,31
 250 123 250 123 253 123 c 128,-1,32
 256 123 256 123 257 129 c 1,33,-1
 398 484 l 2,34,35
 403 497 403 497 423 497 c 128,-1,36
 443 497 443 497 448 484 c 2,37,-1
 592 130 l 2,38,39
 594 127 594 127 597 127 c 128,-1,40
 600 127 600 127 601 132 c 2,41,-1
 698 438 l 2,42,43
 700 446 700 446 700 449 c 0,44,45
 700 473 700 473 669 476 c 2,46,-1
 651 478 l 2,47,48
 639 480 639 480 639 492 c 128,-1,49
 639 504 639 504 653 504 c 2,50,-1
 727 500 l 1,51,-1
 798 504 l 2,52,53
 811 504 811 504 811 492 c 128,-1,54
 811 480 811 480 800 478 c 2,55,-1
 781 475 l 2,56,57
 750 470 750 470 739 437 c 2,58,-1
 596 -2 l 1,0,1
EndSplineSet
EndChar

StartChar: x
Encoding: 120 120 91
Width: 551
GlyphClass: 2
Flags: W
LayerCount: 2
Fore
SplineSet
228 234 m 2,0,1
 231 237 231 237 231 242.5 c 128,-1,2
 231 248 231 248 228 251 c 2,3,-1
 94 439 l 2,4,5
 82 457 82 457 71.5 464.5 c 128,-1,6
 61 472 61 472 44 474 c 2,7,-1
 14 478 l 2,8,9
 3 480 3 480 3 492 c 128,-1,10
 3 504 3 504 17 504 c 2,11,-1
 129 500 l 1,12,-1
 219 504 l 2,13,14
 234 504 234 504 234 492 c 128,-1,15
 234 480 234 480 222 478 c 2,16,-1
 211 477 l 2,17,18
 183 475 183 475 183 453 c 0,19,20
 183 445 183 445 188 439 c 2,21,-1
 278 313 l 1,22,-1
 284 310 l 1,23,24
 287 310 287 310 290 314 c 2,25,-1
 388 439 l 2,26,27
 396 448 396 448 396 457 c 0,28,29
 396 474 396 474 361 478 c 0,30,31
 349 480 349 480 349 492 c 128,-1,32
 349 504 349 504 364 504 c 2,33,-1
 440 500 l 1,34,-1
 521 504 l 2,35,36
 535 504 535 504 535 492 c 128,-1,37
 535 480 535 480 523 478 c 2,38,-1
 494 474 l 2,39,40
 468 471 468 471 442 437 c 2,41,-1
 317 277 l 2,42,43
 314 274 314 274 314 269.5 c 128,-1,44
 314 265 314 265 316 261 c 2,45,-1
 459 61 l 2,46,47
 471 43 471 43 481.5 35.5 c 128,-1,48
 492 28 492 28 509 26 c 2,49,-1
 539 22 l 2,50,51
 550 20 550 20 550 8 c 128,-1,52
 550 -4 550 -4 536 -4 c 2,53,-1
 424 0 l 1,54,-1
 334 -4 l 2,55,56
 319 -4 319 -4 319 8 c 128,-1,57
 319 20 319 20 331 22 c 2,58,-1
 342 23 l 2,59,60
 370 25 370 25 370 47 c 0,61,62
 370 55 370 55 365 61 c 2,63,-1
 267 197 l 2,64,65
 264 201 264 201 261 201 c 128,-1,66
 258 201 258 201 255 197 c 2,67,-1
 148 61 l 2,68,69
 140 52 140 52 140 43 c 0,70,71
 140 26 140 26 175 22 c 0,72,73
 187 20 187 20 187 8 c 128,-1,74
 187 -4 187 -4 172 -4 c 2,75,-1
 96 0 l 1,76,-1
 15 -4 l 2,77,78
 1 -4 1 -4 1 8 c 128,-1,79
 1 20 1 20 13 22 c 2,80,-1
 42 26 l 2,81,82
 68 29 68 29 94 63 c 2,83,-1
 228 234 l 2,0,1
EndSplineSet
EndChar

StartChar: y
Encoding: 121 121 92
Width: 534
GlyphClass: 2
Flags: W
LayerCount: 2
Fore
SplineSet
413 453 m 0,0,1
 413 472 413 472 386 476 c 2,2,-1
 368 478 l 2,3,4
 356 480 356 480 356 492 c 128,-1,5
 356 504 356 504 370 504 c 2,6,-1
 448 500 l 1,7,-1
 520 504 l 2,8,9
 533 504 533 504 533 492 c 128,-1,10
 533 480 533 480 522 478 c 2,11,-1
 503 475 l 2,12,13
 470 470 470 470 456 436 c 2,14,-1
 242 -59 l 1,15,16
 173 -215 173 -215 102 -261 c 0,17,18
 86 -271 86 -271 79 -271 c 128,-1,19
 72 -271 72 -271 70 -269 c 2,20,-1
 40 -231 l 2,21,22
 36 -226 36 -226 36 -219 c 128,-1,23
 36 -212 36 -212 42 -208 c 0,24,25
 74 -192 74 -192 90 -181.5 c 128,-1,26
 106 -171 106 -171 132 -146 c 0,27,28
 176 -102 176 -102 235 32 c 0,29,30
 238 37 238 37 238 44 c 128,-1,31
 238 51 238 51 235 57 c 2,32,-1
 77 439 l 2,33,34
 66 467 66 467 31 475 c 1,35,-1
 12 478 l 2,36,37
 1 480 1 480 1 492 c 128,-1,38
 1 504 1 504 15 504 c 2,39,-1
 114 500 l 1,40,-1
 213 504 l 2,41,42
 230 504 230 504 230 492 c 128,-1,43
 230 480 230 480 217 478 c 2,44,-1
 196 476 l 2,45,46
 177 475 177 475 169 464 c 128,-1,47
 161 453 161 453 167 439 c 2,48,-1
 280 144 l 2,49,50
 281 142 281 142 284.5 141.5 c 128,-1,51
 288 141 288 141 290 146 c 2,52,-1
 410 439 l 2,53,54
 413 447 413 447 413 453 c 0,0,1
EndSplineSet
EndChar

StartChar: z
Encoding: 122 122 93
Width: 472
GlyphClass: 2
Flags: W
LayerCount: 2
Fore
SplineSet
416 0 m 2,0,-1
 37 0 l 2,1,2
 25 0 25 0 25 11 c 2,3,-1
 25 20 l 2,4,5
 25 30 25 30 30 37 c 2,6,-1
 320 453 l 2,7,8
 326 463 326 463 314 463 c 2,9,-1
 182 463 l 2,10,11
 100 463 100 463 79 399 c 1,12,13
 75 381 75 381 60 381 c 0,14,15
 53 381 53 381 49 386.5 c 128,-1,16
 45 392 45 392 46 399 c 2,17,-1
 54 469 l 2,18,19
 57 500 57 500 81 500 c 2,20,-1
 415 500 l 2,21,22
 428 500 428 500 428 491 c 2,23,-1
 428 481 l 2,24,25
 428 475 428 475 415 456 c 2,26,-1
 138 55 l 2,27,28
 134 50 134 50 134.5 44.5 c 128,-1,29
 135 39 135 39 141 39 c 2,30,-1
 314 39 l 2,31,32
 351 39 351 39 379 61 c 128,-1,33
 407 83 407 83 419 121 c 0,34,35
 425 138 425 138 438 138 c 0,36,37
 444 138 444 138 448 132.5 c 128,-1,38
 452 127 452 127 451 121 c 2,39,-1
 442 32 l 2,40,41
 439 0 439 0 416 0 c 2,0,-1
EndSplineSet
EndChar

StartChar: braceleft
Encoding: 123 123 94
Width: 396
GlyphClass: 2
Flags: W
LayerCount: 2
Fore
SplineSet
20 268 m 2,0,-1
 20 285 l 2,1,2
 20 298 20 298 33 298 c 2,3,-1
 44 298 l 1,4,5
 92 299 92 299 108 325.5 c 128,-1,6
 124 352 124 352 124 414 c 2,7,-1
 124 603 l 2,8,9
 124 775 124 775 294 775 c 2,10,-1
 323 775 l 2,11,12
 336 775 336 775 336 762 c 2,13,-1
 336 745 l 2,14,15
 336 732 336 732 323 732 c 2,16,-1
 294 732 l 2,17,18
 242 732 242 732 220.5 700.5 c 128,-1,19
 199 669 199 669 199 606 c 2,20,-1
 199 417 l 2,21,22
 199 365 199 365 178.5 326.5 c 128,-1,23
 158 288 158 288 118 276 c 1,24,25
 158 265 158 265 178.5 226.5 c 128,-1,26
 199 188 199 188 199 136 c 2,27,-1
 199 -53 l 2,28,29
 199 -116 199 -116 220.5 -147.5 c 128,-1,30
 242 -179 242 -179 294 -179 c 2,31,-1
 323 -179 l 2,32,33
 336 -179 336 -179 336 -192 c 2,34,-1
 336 -209 l 2,35,36
 336 -222 336 -222 323 -222 c 2,37,-1
 294 -222 l 2,38,39
 124 -222 124 -222 124 -50 c 2,40,-1
 124 139 l 2,41,42
 124 201 124 201 108 228 c 128,-1,43
 92 255 92 255 44 255 c 2,44,-1
 33 255 l 2,45,46
 20 255 20 255 20 268 c 2,0,-1
EndSplineSet
EndChar

StartChar: bar
Encoding: 124 124 95
Width: 309
GlyphClass: 2
Flags: W
LayerCount: 2
Fore
SplineSet
120 -262 m 2,0,-1
 120 788 l 2,1,2
 120 800 120 800 131 800 c 2,3,-1
 178 800 l 2,4,5
 189 800 189 800 189 788 c 2,6,-1
 189 -262 l 2,7,8
 189 -274 189 -274 178 -274 c 2,9,-1
 131 -274 l 2,10,11
 120 -274 120 -274 120 -262 c 2,0,-1
EndSplineSet
EndChar

StartChar: braceright
Encoding: 125 125 96
Width: 416
GlyphClass: 2
Flags: W
LayerCount: 2
Fore
SplineSet
376 285 m 2,0,-1
 376 268 l 2,1,2
 376 255 376 255 363 255 c 2,3,-1
 352 255 l 2,4,5
 304 255 304 255 288 228 c 128,-1,6
 272 201 272 201 272 139 c 2,7,-1
 272 -50 l 2,8,9
 272 -222 272 -222 102 -222 c 2,10,-1
 73 -222 l 2,11,12
 60 -222 60 -222 60 -209 c 2,13,-1
 60 -192 l 2,14,15
 60 -179 60 -179 73 -179 c 2,16,-1
 102 -179 l 2,17,18
 154 -179 154 -179 175.5 -147.5 c 128,-1,19
 197 -116 197 -116 197 -53 c 2,20,-1
 197 136 l 2,21,22
 197 188 197 188 217.5 226.5 c 128,-1,23
 238 265 238 265 278 276 c 1,24,25
 238 288 238 288 217.5 326.5 c 128,-1,26
 197 365 197 365 197 417 c 2,27,-1
 197 606 l 2,28,29
 197 669 197 669 175.5 700.5 c 128,-1,30
 154 732 154 732 102 732 c 2,31,-1
 73 732 l 2,32,33
 60 732 60 732 60 745 c 2,34,-1
 60 762 l 2,35,36
 60 775 60 775 73 775 c 2,37,-1
 102 775 l 2,38,39
 272 775 272 775 272 603 c 2,40,-1
 272 414 l 2,41,42
 272 352 272 352 288 325.5 c 128,-1,43
 304 299 304 299 352 298 c 1,44,-1
 363 298 l 2,45,46
 376 298 376 298 376 285 c 2,0,-1
EndSplineSet
EndChar

StartChar: asciitilde
Encoding: 126 126 97
Width: 639
GlyphClass: 2
Flags: W
LayerCount: 2
Fore
SplineSet
209 298 m 0,0,1
 147 298 147 298 101 233 c 0,2,3
 97 227 97 227 92.5 227 c 128,-1,4
 88 227 88 227 84 229 c 2,5,-1
 56 247 l 2,6,7
 50 250 50 250 50 254 c 0,8,9
 50 259 50 259 55 268 c 0,10,11
 115 365 115 365 216 365 c 0,12,13
 263 365 263 365 328 332.5 c 128,-1,14
 393 300 393 300 430 300 c 0,15,16
 492 300 492 300 538 365 c 0,17,18
 542 371 542 371 546.5 371 c 128,-1,19
 551 371 551 371 555 369 c 2,20,-1
 583 351 l 2,21,22
 589 348 589 348 589 344 c 0,23,24
 589 339 589 339 584 330 c 0,25,26
 524 233 524 233 423 233 c 0,27,28
 379 233 379 233 310.5 265.5 c 128,-1,29
 242 298 242 298 209 298 c 0,0,1
EndSplineSet
EndChar

StartChar: exclamdown
Encoding: 161 161 99
Width: 263
GlyphClass: 2
Flags: W
LayerCount: 2
Fore
SplineSet
82 -168 m 1,0,1
 82 -168 82 -168 114 269 c 0,2,3
 114 280 114 280 127 280 c 2,4,-1
 137 280 l 2,5,6
 149 280 149 280 150 269 c 0,7,8
 156 180 156 180 169 14.5 c 128,-1,9
 182 -151 182 -151 182 -170.5 c 128,-1,10
 182 -190 182 -190 167 -200.5 c 128,-1,11
 152 -211 152 -211 131.5 -211 c 128,-1,12
 111 -211 111 -211 96.5 -200 c 128,-1,13
 82 -189 82 -189 82 -168 c 1,0,1
88 406 m 128,-1,15
 70 424 70 424 70 449.5 c 128,-1,16
 70 475 70 475 88.5 493 c 128,-1,17
 107 511 107 511 132 511 c 128,-1,18
 157 511 157 511 175 493 c 128,-1,19
 193 475 193 475 193 450 c 128,-1,20
 193 425 193 425 175 406.5 c 128,-1,21
 157 388 157 388 131.5 388 c 128,-1,14
 106 388 106 388 88 406 c 128,-1,15
EndSplineSet
EndChar

StartChar: cent
Encoding: 162 162 100
Width: 525
GlyphClass: 2
Flags: W
LayerCount: 2
Fore
SplineSet
472 440 m 2,0,-1
 472 353 l 2,1,2
 472 336 472 336 458 336 c 0,3,4
 446 336 446 336 442 353 c 0,5,6
 419 437 419 437 358 462 c 1,7,-1
 267 50 l 1,8,9
 296 40 296 40 329 40 c 0,10,11
 400 40 400 40 447 70 c 0,12,13
 454 75 454 75 460 75 c 128,-1,14
 466 75 466 75 470.5 71 c 128,-1,15
 475 67 475 67 475 59.5 c 128,-1,16
 475 52 475 52 467 44 c 0,17,18
 412 -11 412 -11 305 -11 c 0,19,20
 287 -11 287 -11 255 -7 c 1,21,-1
 230 -120 l 2,22,23
 228 -132 228 -132 216 -132 c 2,24,-1
 193 -132 l 2,25,26
 181 -132 181 -132 183 -120 c 2,27,-1
 210 4 l 1,28,29
 137 29 137 29 93.5 93.5 c 128,-1,30
 50 158 50 158 50 260 c 128,-1,31
 50 362 50 362 122.5 436.5 c 128,-1,32
 195 511 195 511 301 511 c 0,33,34
 315 511 315 511 322 510 c 1,35,-1
 345 615 l 2,36,37
 347 627 347 627 359 627 c 2,38,-1
 382 627 l 2,39,40
 394 627 394 627 392 615 c 2,41,-1
 368 505 l 1,42,43
 414 496 414 496 443 477.5 c 128,-1,44
 472 459 472 459 472 440 c 2,0,-1
138 269 m 0,45,46
 138 129 138 129 225 70 c 1,47,-1
 313 472 l 1,48,-1
 307 472 l 2,49,50
 232 472 232 472 185 416.5 c 128,-1,51
 138 361 138 361 138 269 c 0,45,46
EndSplineSet
EndChar

StartChar: sterling
Encoding: 163 163 101
Width: 540
GlyphClass: 2
Flags: W
LayerCount: 2
Fore
SplineSet
416 83 m 2,0,1
 450 83 450 83 458 98.5 c 128,-1,2
 466 114 466 114 478 114 c 128,-1,3
 490 114 490 114 490 98 c 2,4,-1
 490 95 l 1,5,-1
 485 32 l 2,6,7
 484 17 484 17 476 8.5 c 128,-1,8
 468 0 468 0 458 0 c 2,9,-1
 81 0 l 2,10,11
 69 0 69 0 69 11 c 2,12,-1
 69 27 l 2,13,14
 69 32 69 32 85 48.5 c 128,-1,15
 101 65 101 65 119.5 84.5 c 128,-1,16
 138 104 138 104 154 138.5 c 128,-1,17
 170 173 170 173 170 213.5 c 128,-1,18
 170 254 170 254 153 312 c 1,19,-1
 72 312 l 2,20,21
 60 312 60 312 60 323 c 2,22,-1
 60 350 l 2,23,24
 60 361 60 361 72 361 c 2,25,-1
 138 361 l 1,26,27
 128 386 128 386 123 403.5 c 128,-1,28
 118 421 118 421 112.5 438.5 c 128,-1,29
 107 456 107 456 104.5 465.5 c 128,-1,30
 102 475 102 475 99 490 c 0,31,32
 94 514 94 514 94 539 c 0,33,34
 94 614 94 614 149.5 662.5 c 128,-1,35
 205 711 205 711 297 711 c 0,36,37
 364 711 364 711 418 687 c 128,-1,38
 472 663 472 663 472 642 c 2,39,-1
 472 563 l 2,40,41
 472 556 472 556 467 550.5 c 128,-1,42
 462 545 462 545 453.5 545 c 128,-1,43
 445 545 445 545 431.5 565 c 128,-1,44
 418 585 418 585 404 608.5 c 128,-1,45
 390 632 390 632 360.5 652 c 128,-1,46
 331 672 331 672 286.5 672 c 128,-1,47
 242 672 242 672 209 641.5 c 128,-1,48
 176 611 176 611 176 554 c 0,49,50
 176 510 176 510 199 443 c 128,-1,51
 222 376 222 376 227 361 c 1,52,-1
 390 361 l 2,53,54
 402 361 402 361 402 350 c 2,55,-1
 402 323 l 2,56,57
 402 312 402 312 390 312 c 2,58,-1
 239 312 l 1,59,60
 247 277 247 277 247 242.5 c 128,-1,61
 247 208 247 208 227.5 167 c 128,-1,62
 208 126 208 126 188 104 c 2,63,-1
 168 83 l 1,64,-1
 416 83 l 2,0,1
EndSplineSet
EndChar

StartChar: currency
Encoding: 164 164 102
Width: 638
GlyphClass: 2
Flags: W
LayerCount: 2
Fore
SplineSet
185 519 m 1,0,1
 244 564 244 564 318.5 564 c 128,-1,2
 393 564 393 564 452 519 c 1,3,-1
 520 587 l 2,4,5
 524 591 524 591 528 591 c 1,6,-1
 536 587 l 1,7,-1
 564 559 l 2,8,9
 568 555 568 555 568 551 c 128,-1,10
 568 547 568 547 564 543 c 2,11,-1
 496 475 l 1,12,13
 541 416 541 416 541 341.5 c 128,-1,14
 541 267 541 267 496 208 c 1,15,-1
 564 141 l 2,16,17
 568 137 568 137 568 133 c 128,-1,18
 568 129 568 129 564 125 c 2,19,-1
 536 97 l 2,20,21
 532 93 532 93 528 93 c 1,22,-1
 520 97 l 1,23,-1
 452 164 l 1,24,25
 394 120 394 120 318.5 120 c 128,-1,26
 243 120 243 120 185 164 c 1,27,-1
 118 97 l 2,28,29
 114 93 114 93 110 93 c 1,30,-1
 102 97 l 1,31,-1
 74 125 l 2,32,33
 70 129 70 129 70 133 c 128,-1,34
 70 137 70 137 74 141 c 2,35,-1
 141 208 l 1,36,37
 97 266 97 266 97 341.5 c 128,-1,38
 97 417 97 417 141 475 c 1,39,-1
 74 543 l 2,40,41
 70 547 70 547 70 551 c 128,-1,42
 70 555 70 555 74 559 c 2,43,-1
 102 587 l 2,44,45
 106 591 106 591 110 591 c 1,46,-1
 118 587 l 1,47,-1
 185 519 l 1,0,1
319 507 m 128,-1,49
 253 507 253 507 206.5 458 c 128,-1,50
 160 409 160 409 160 342 c 128,-1,51
 160 275 160 275 206.5 226 c 128,-1,52
 253 177 253 177 319 177 c 128,-1,53
 385 177 385 177 431.5 226 c 128,-1,54
 478 275 478 275 478 342 c 128,-1,55
 478 409 478 409 431.5 458 c 128,-1,48
 385 507 385 507 319 507 c 128,-1,49
EndSplineSet
EndChar

StartChar: yen
Encoding: 165 165 103
Width: 712
GlyphClass: 2
Flags: W
LayerCount: 2
Fore
SplineSet
165 310 m 2,0,-1
 307 310 l 1,1,-1
 98 634 l 2,2,3
 74 671 74 671 40 674 c 2,4,-1
 11 677 l 2,5,6
 0 679 0 679 0 691 c 128,-1,7
 0 703 0 703 14 703 c 2,8,-1
 133 700 l 1,9,-1
 239 702 l 2,10,11
 254 702 254 702 254 689 c 128,-1,12
 254 676 254 676 242 675 c 2,13,-1
 223 673 l 2,14,15
 205 671 205 671 199.5 658 c 128,-1,16
 194 645 194 645 202 634 c 1,17,-1
 376 348 l 2,18,19
 380 341 380 341 385 341 c 128,-1,20
 390 341 390 341 394 346 c 2,21,-1
 565 634 l 1,22,23
 573 645 573 645 567.5 657.5 c 128,-1,24
 562 670 562 670 544 673 c 1,25,-1
 525 675 l 2,26,27
 511 677 511 677 513 690 c 0,28,29
 514 702 514 702 528 702 c 2,30,-1
 606 700 l 1,31,-1
 703 703 l 2,32,33
 717 703 717 703 717 691 c 128,-1,34
 717 679 717 679 706 677 c 2,35,-1
 677 674 l 2,36,37
 644 671 644 671 620 634 c 2,38,-1
 425 322 l 1,39,-1
 419 310 l 1,40,-1
 571 310 l 2,41,42
 583 310 583 310 583 299 c 2,43,-1
 583 272 l 2,44,45
 583 261 583 261 571 261 c 2,46,-1
 411 261 l 1,47,-1
 411 186 l 1,48,-1
 571 186 l 2,49,50
 583 186 583 186 583 175 c 2,51,-1
 583 148 l 2,52,53
 583 137 583 137 571 137 c 2,54,-1
 411 137 l 1,55,-1
 411 66 l 2,56,57
 411 48 411 48 424 37.5 c 128,-1,58
 437 27 437 27 456 25 c 2,59,-1
 485 23 l 2,60,61
 497 23 497 23 497 10 c 0,62,63
 497 4 497 4 492.5 0 c 128,-1,64
 488 -4 488 -4 483 -4 c 2,65,-1
 370 0 l 1,66,-1
 270 -4 l 2,67,68
 256 -4 256 -4 256 8.5 c 128,-1,69
 256 21 256 21 267 23 c 2,70,-1
 284 25 l 2,71,72
 325 30 325 30 325 66 c 2,73,-1
 325 137 l 1,74,-1
 165 137 l 2,75,76
 153 137 153 137 153 148 c 2,77,-1
 153 175 l 2,78,79
 153 186 153 186 165 186 c 2,80,-1
 325 186 l 1,81,-1
 325 261 l 1,82,-1
 165 261 l 2,83,84
 153 261 153 261 153 272 c 2,85,-1
 153 299 l 2,86,87
 153 310 153 310 165 310 c 2,0,-1
EndSplineSet
EndChar

StartChar: brokenbar
Encoding: 166 166 104
Width: 309
GlyphClass: 2
Flags: W
LayerCount: 2
Fore
SplineSet
120 350 m 2,0,-1
 120 788 l 2,1,2
 120 800 120 800 131 800 c 2,3,-1
 178 800 l 2,4,5
 189 800 189 800 189 788 c 2,6,-1
 189 350 l 2,7,8
 189 338 189 338 178 338 c 2,9,-1
 131 338 l 2,10,11
 120 338 120 338 120 350 c 2,0,-1
120 -262 m 2,12,-1
 120 176 l 2,13,14
 120 188 120 188 131 188 c 2,15,-1
 178 188 l 2,16,17
 189 188 189 188 189 176 c 2,18,-1
 189 -262 l 2,19,20
 189 -274 189 -274 178 -274 c 2,21,-1
 131 -274 l 2,22,23
 120 -274 120 -274 120 -262 c 2,12,-1
EndSplineSet
EndChar

StartChar: section
Encoding: 167 167 105
Width: 498
GlyphClass: 2
Flags: W
LayerCount: 2
Fore
SplineSet
407.5 433.5 m 128,-1,1
 438 403 438 403 438 361.5 c 128,-1,2
 438 320 438 320 405.5 288.5 c 128,-1,3
 373 257 373 257 317 243 c 1,4,5
 374 218 374 218 406 189 c 128,-1,6
 438 160 438 160 438 117 c 0,7,8
 438 59 438 59 382 24 c 128,-1,9
 326 -11 326 -11 246.5 -11 c 128,-1,10
 167 -11 167 -11 113.5 4.5 c 128,-1,11
 60 20 60 20 60 39 c 2,12,-1
 60 119 l 2,13,14
 60 125 60 125 64.5 130 c 128,-1,15
 69 135 69 135 76 135 c 0,16,17
 90 135 90 135 95 119 c 0,18,19
 129 25 129 25 239 25 c 0,20,21
 289 25 289 25 321 45.5 c 128,-1,22
 353 66 353 66 353 97.5 c 128,-1,23
 353 129 353 129 323 151 c 128,-1,24
 293 173 293 173 250.5 189.5 c 128,-1,25
 208 206 208 206 165.5 224 c 128,-1,26
 123 242 123 242 93 270.5 c 128,-1,27
 63 299 63 299 63 340 c 128,-1,28
 63 381 63 381 97 414 c 128,-1,29
 131 447 131 447 191 459 c 1,30,31
 130 484 130 484 96.5 512 c 128,-1,32
 63 540 63 540 63 583 c 0,33,34
 63 639 63 639 115 675 c 128,-1,35
 167 711 167 711 253 711 c 0,36,37
 310 711 310 711 358 695.5 c 128,-1,38
 406 680 406 680 406 661 c 2,39,-1
 406 591 l 2,40,41
 406 575 406 575 390.5 575 c 128,-1,42
 375 575 375 575 370 591 c 0,43,44
 341 676 341 676 246 676 c 0,45,46
 202 676 202 676 172.5 658 c 128,-1,47
 143 640 143 640 143 610 c 128,-1,48
 143 580 143 580 173.5 557.5 c 128,-1,49
 204 535 204 535 247 518 c 128,-1,50
 290 501 290 501 333.5 482.5 c 128,-1,0
 377 464 377 464 407.5 433.5 c 128,-1,1
264 429 m 1,51,-1
 246 430 l 1,52,53
 202 430 202 430 172.5 412 c 128,-1,54
 143 394 143 394 143 364 c 128,-1,55
 143 334 143 334 170.5 313 c 128,-1,56
 198 292 198 292 251 271 c 1,57,58
 296 273 296 273 324.5 294 c 128,-1,59
 353 315 353 315 353 344 c 128,-1,60
 353 373 353 373 330 391.5 c 128,-1,61
 307 410 307 410 264 429 c 1,51,-1
EndSplineSet
EndChar

StartChar: dieresis
Encoding: 168 168 106
Width: 415
GlyphClass: 2
Flags: W
LayerCount: 2
Fore
SplineSet
60 659 m 128,-1,1
 60 681 60 681 75 696 c 128,-1,2
 90 711 90 711 112 711 c 128,-1,3
 134 711 134 711 149 696 c 128,-1,4
 164 681 164 681 164 659 c 128,-1,5
 164 637 164 637 149 622 c 128,-1,6
 134 607 134 607 112 607 c 128,-1,7
 90 607 90 607 75 622 c 128,-1,0
 60 637 60 637 60 659 c 128,-1,1
251 659 m 128,-1,9
 251 681 251 681 266 696 c 128,-1,10
 281 711 281 711 303 711 c 128,-1,11
 325 711 325 711 340 696 c 128,-1,12
 355 681 355 681 355 659 c 128,-1,13
 355 637 355 637 340 622 c 128,-1,14
 325 607 325 607 303 607 c 128,-1,15
 281 607 281 607 266 622 c 128,-1,8
 251 637 251 637 251 659 c 128,-1,9
EndSplineSet
EndChar

StartChar: copyright
Encoding: 169 169 107
Width: 842
GlyphClass: 2
Flags: W
LayerCount: 2
Fore
SplineSet
116 350 m 128,-1,1
 116 209 116 209 201 122 c 128,-1,2
 286 35 286 35 421 35 c 128,-1,3
 556 35 556 35 641 122 c 128,-1,4
 726 209 726 209 726 350 c 128,-1,5
 726 491 726 491 641 578 c 128,-1,6
 556 665 556 665 421 665 c 128,-1,7
 286 665 286 665 201 578 c 128,-1,0
 116 491 116 491 116 350 c 128,-1,1
60 350 m 128,-1,9
 60 508 60 508 162 609.5 c 128,-1,10
 264 711 264 711 421 711 c 128,-1,11
 578 711 578 711 680 609.5 c 128,-1,12
 782 508 782 508 782 350 c 128,-1,13
 782 192 782 192 680 90.5 c 128,-1,14
 578 -11 578 -11 421 -11 c 128,-1,15
 264 -11 264 -11 162 90.5 c 128,-1,8
 60 192 60 192 60 350 c 128,-1,9
572 457 m 2,16,17
 572 452 572 452 568.5 447 c 128,-1,18
 565 442 565 442 560 442 c 0,19,20
 549 442 549 442 543 457 c 1,21,22
 533 496 533 496 504.5 518 c 128,-1,23
 476 540 476 540 437 540 c 0,24,25
 365 540 365 540 323 491 c 128,-1,26
 281 442 281 442 281 366 c 128,-1,27
 281 290 281 290 325.5 230.5 c 128,-1,28
 370 171 370 171 438 171 c 128,-1,29
 506 171 506 171 544 203 c 0,30,31
 557 214 557 214 565 207.5 c 128,-1,32
 573 201 573 201 573 196 c 128,-1,33
 573 191 573 191 567 185 c 0,34,35
 518 130 518 130 427 130 c 128,-1,36
 336 130 336 130 277 192.5 c 128,-1,37
 218 255 218 255 218 350 c 128,-1,38
 218 445 218 445 278 507.5 c 128,-1,39
 338 570 338 570 437 570 c 0,40,41
 488 570 488 570 530 555 c 128,-1,42
 572 540 572 540 572 526 c 2,43,-1
 572 457 l 2,16,17
EndSplineSet
EndChar

StartChar: ordfeminine
Encoding: 170 170 108
Width: 447
GlyphClass: 2
Flags: W
LayerCount: 2
Fore
SplineSet
377 378 m 0,0,1
 377 363 377 363 350 363 c 0,2,3
 305 363 305 363 279 396 c 2,4,-1
 275 401 l 1,5,6
 227 363 227 363 180.5 363 c 128,-1,7
 134 363 134 363 105 387.5 c 128,-1,8
 76 412 76 412 76 443 c 128,-1,9
 76 474 76 474 87.5 492 c 128,-1,10
 99 510 99 510 113 520.5 c 128,-1,11
 127 531 127 531 153 539 c 0,12,13
 190 550 190 550 215 554 c 128,-1,14
 240 558 240 558 247 559.5 c 128,-1,15
 254 561 254 561 257 561 c 1,16,17
 261 563 261 563 261 566 c 2,18,-1
 261 626 l 2,19,20
 261 651 261 651 244.5 665.5 c 128,-1,21
 228 680 228 680 201.5 680 c 128,-1,22
 175 680 175 680 152 661 c 128,-1,23
 129 642 129 642 120 614 c 1,24,25
 118 601 118 601 106 601 c 0,26,27
 101 601 101 601 97 605 c 128,-1,28
 93 609 93 609 93 615 c 2,29,-1
 93 664 l 2,30,31
 93 675 93 675 97 679 c 0,32,33
 138 711 138 711 203.5 711 c 128,-1,34
 269 711 269 711 296 681.5 c 128,-1,35
 323 652 323 652 323 607 c 2,36,-1
 323 433 l 2,37,38
 323 414 323 414 335 402 c 128,-1,39
 347 390 347 390 362 390 c 128,-1,40
 377 390 377 390 377 378 c 0,0,1
260 438 m 2,41,-1
 260 520 l 2,42,43
 260 525 260 525 257.5 525 c 128,-1,44
 255 525 255 525 254 525 c 0,45,46
 141 512 141 512 141 458 c 0,47,48
 141 433 141 433 157.5 418.5 c 128,-1,49
 174 404 174 404 194 404 c 128,-1,50
 214 404 214 404 230 411.5 c 128,-1,51
 246 419 246 419 253 427 c 128,-1,52
 260 435 260 435 260 438 c 2,41,-1
82 267 m 2,53,-1
 361 267 l 2,54,55
 373 267 373 267 373 256 c 2,56,-1
 373 231 l 2,57,58
 373 220 373 220 361 220 c 2,59,-1
 82 220 l 2,60,61
 70 220 70 220 70 231 c 2,62,-1
 70 256 l 2,63,64
 70 267 70 267 82 267 c 2,53,-1
EndSplineSet
EndChar

StartChar: guillemotleft
Encoding: 171 171 109
Width: 455
GlyphClass: 2
Flags: W
LayerCount: 2
Fore
SplineSet
50 246 m 128,-1,1
 50 250 50 250 53 255 c 2,2,-1
 188 440 l 1,3,4
 192 448 192 448 196 448 c 256,5,6
 200 448 200 448 211 443 c 128,-1,7
 222 438 222 438 218 428 c 2,8,-1
 134 246 l 1,9,-1
 218 64 l 2,10,11
 222 54 222 54 211 49 c 256,12,13
 200 44 200 44 196 44 c 128,-1,14
 192 44 192 44 188 52 c 1,15,-1
 53 237 l 2,16,0
 50 242 50 242 50 246 c 128,-1,1
216 246 m 128,-1,18
 216 250 216 250 219 255 c 2,19,-1
 354 440 l 1,20,21
 358 448 358 448 362 448 c 256,22,23
 366 448 366 448 375.5 443.5 c 128,-1,24
 385 439 385 439 385 433 c 0,25,26
 385 431 385 431 384 428 c 2,27,-1
 300 246 l 1,28,-1
 384 64 l 2,29,30
 385 61 385 61 385 59 c 0,31,32
 385 53 385 53 377 49 c 0,33,34
 366 44 366 44 362 44 c 128,-1,35
 358 44 358 44 354 52 c 1,36,-1
 219 237 l 2,37,17
 216 242 216 242 216 246 c 128,-1,18
EndSplineSet
EndChar

StartChar: logicalnot
Encoding: 172 172 110
Width: 634
GlyphClass: 2
Flags: W
LayerCount: 2
Fore
SplineSet
554 404 m 2,0,-1
 554 188 l 2,1,2
 554 176 554 176 543 176 c 2,3,-1
 503 176 l 2,4,5
 492 176 492 176 492 188 c 2,6,-1
 492 353 l 1,7,-1
 72 353 l 2,8,9
 60 353 60 353 60 364 c 2,10,-1
 60 404 l 2,11,12
 60 415 60 415 72 415 c 2,13,-1
 542 415 l 2,14,15
 554 415 554 415 554 404 c 2,0,-1
EndSplineSet
EndChar

StartChar: registered
Encoding: 174 174 111
Width: 842
GlyphClass: 2
Flags: W
LayerCount: 2
Fore
SplineSet
378 158 m 1,0,-1
 404 157 l 2,1,2
 413 157 413 157 413 146 c 128,-1,3
 413 135 413 135 402 135 c 2,4,-1
 327 137 l 1,5,6
 283 135 283 135 266.5 135 c 128,-1,7
 250 135 250 135 248 144 c 1,8,9
 248 156 248 156 258 157 c 2,10,-1
 276 158 l 2,11,12
 297 160 297 160 297 180 c 2,13,-1
 297 520 l 2,14,15
 297 539 297 539 273 541 c 2,16,-1
 255 543 l 2,17,18
 246 545 246 545 246 555 c 128,-1,19
 246 565 246 565 257 565 c 2,20,-1
 340 563 l 1,21,-1
 452 563 l 2,22,23
 511 563 511 563 549 532.5 c 128,-1,24
 587 502 587 502 587 455 c 128,-1,25
 587 408 587 408 553.5 376 c 128,-1,26
 520 344 520 344 476 337 c 1,27,28
 485 333 485 333 489 325 c 2,29,-1
 579 181 l 2,30,31
 591 162 591 162 616 158 c 1,32,-1
 627 157 l 2,33,34
 638 155 638 155 638 145 c 128,-1,35
 638 135 638 135 626 135 c 0,36,37
 568 137 568 137 553 137 c 128,-1,38
 538 137 538 137 530 150 c 2,39,-1
 428 319 l 2,40,41
 417 336 417 336 404 336 c 2,42,-1
 360 336 l 2,43,44
 354 336 354 336 354 332 c 2,45,-1
 354 180 l 2,46,47
 354 160 354 160 378 158 c 1,0,-1
526 450 m 128,-1,49
 526 487 526 487 499 508.5 c 128,-1,50
 472 530 472 530 432 530 c 2,51,-1
 375 530 l 2,52,53
 354 530 354 530 354 509 c 2,54,-1
 354 374 l 2,55,56
 354 369 354 369 358 369 c 2,57,-1
 432 369 l 2,58,59
 472 369 472 369 499 391 c 128,-1,48
 526 413 526 413 526 450 c 128,-1,49
116 350 m 128,-1,61
 116 209 116 209 201 122 c 128,-1,62
 286 35 286 35 421 35 c 128,-1,63
 556 35 556 35 641 122 c 128,-1,64
 726 209 726 209 726 350 c 128,-1,65
 726 491 726 491 641 578 c 128,-1,66
 556 665 556 665 421 665 c 128,-1,67
 286 665 286 665 201 578 c 128,-1,60
 116 491 116 491 116 350 c 128,-1,61
60 350 m 128,-1,69
 60 508 60 508 162 609.5 c 128,-1,70
 264 711 264 711 421 711 c 128,-1,71
 578 711 578 711 680 609.5 c 128,-1,72
 782 508 782 508 782 350 c 128,-1,73
 782 192 782 192 680 90.5 c 128,-1,74
 578 -11 578 -11 421 -11 c 128,-1,75
 264 -11 264 -11 162 90.5 c 128,-1,68
 60 192 60 192 60 350 c 128,-1,69
EndSplineSet
EndChar

StartChar: macron
Encoding: 175 175 112
Width: 420
GlyphClass: 2
Flags: W
LayerCount: 2
Fore
SplineSet
65 627 m 1,0,-1
 65 688 l 1,1,-1
 355 688 l 1,2,-1
 355 627 l 1,3,-1
 65 627 l 1,0,-1
EndSplineSet
EndChar

StartChar: degree
Encoding: 176 176 113
Width: 408
GlyphClass: 2
Flags: W
LayerCount: 2
Fore
SplineSet
60 568 m 128,-1,1
 60 629 60 629 101.5 670 c 128,-1,2
 143 711 143 711 204 711 c 128,-1,3
 265 711 265 711 306.5 670 c 128,-1,4
 348 629 348 629 348 568 c 128,-1,5
 348 507 348 507 306.5 466 c 128,-1,6
 265 425 265 425 204 425 c 128,-1,7
 143 425 143 425 101.5 466 c 128,-1,0
 60 507 60 507 60 568 c 128,-1,1
120 568 m 128,-1,9
 120 531 120 531 144 505.5 c 128,-1,10
 168 480 168 480 204 480 c 128,-1,11
 240 480 240 480 264 505.5 c 128,-1,12
 288 531 288 531 288 568 c 128,-1,13
 288 605 288 605 264 630.5 c 128,-1,14
 240 656 240 656 204 656 c 128,-1,15
 168 656 168 656 144 630.5 c 128,-1,8
 120 605 120 605 120 568 c 128,-1,9
EndSplineSet
EndChar

StartChar: plusminus
Encoding: 177 177 114
Width: 714
GlyphClass: 2
Flags: W
LayerCount: 2
Fore
SplineSet
622 324 m 2,0,-1
 388 324 l 1,1,-1
 388 150 l 2,2,3
 388 138 388 138 377 138 c 2,4,-1
 337 138 l 2,5,6
 326 138 326 138 326 150 c 2,7,-1
 326 324 l 1,8,-1
 92 324 l 2,9,10
 80 324 80 324 80 335 c 2,11,-1
 80 375 l 2,12,13
 80 386 80 386 92 386 c 2,14,-1
 326 386 l 1,15,-1
 326 560 l 2,16,17
 326 572 326 572 337 572 c 2,18,-1
 377 572 l 2,19,20
 388 572 388 572 388 560 c 2,21,-1
 388 386 l 1,22,-1
 622 386 l 2,23,24
 634 386 634 386 634 375 c 2,25,-1
 634 335 l 2,26,27
 634 324 634 324 622 324 c 2,0,-1
622 18 m 2,28,-1
 92 18 l 2,29,30
 80 18 80 18 80 29 c 2,31,-1
 80 69 l 2,32,33
 80 80 80 80 92 80 c 2,34,-1
 622 80 l 2,35,36
 634 80 634 80 634 69 c 2,37,-1
 634 29 l 2,38,39
 634 18 634 18 622 18 c 2,28,-1
EndSplineSet
EndChar

StartChar: twosuperior
Encoding: 178 178 115
Width: 361
GlyphClass: 2
Flags: W
LayerCount: 2
Fore
SplineSet
276 303 m 2,0,-1
 74 303 l 2,1,2
 60 303 60 303 60 316 c 2,3,-1
 60 321 l 2,4,5
 60 325 60 325 66 337 c 1,6,7
 110 403 110 403 138 441.5 c 128,-1,8
 166 480 166 480 180 502 c 0,9,10
 221 563 221 563 221 605 c 0,11,12
 221 666 221 666 166 666 c 0,13,14
 124 666 124 666 106 612 c 1,15,16
 103 597 103 597 88 597 c 128,-1,17
 73 597 73 597 73 614 c 2,18,-1
 73 656 l 2,19,20
 73 670 73 670 102.5 685 c 128,-1,21
 132 700 132 700 178 700 c 128,-1,22
 224 700 224 700 255 672.5 c 128,-1,23
 286 645 286 645 286 601 c 0,24,25
 286 555 286 555 248 504 c 0,26,27
 234 486 234 486 192.5 436 c 128,-1,28
 151 386 151 386 134 363 c 1,29,-1
 254 363 l 2,30,31
 268 363 268 363 272.5 371 c 128,-1,32
 277 379 277 379 285 379 c 128,-1,33
 293 379 293 379 297 374 c 128,-1,34
 301 369 301 369 300 362 c 2,35,-1
 298 326 l 2,36,37
 297 316 297 316 290.5 309.5 c 128,-1,38
 284 303 284 303 276 303 c 2,0,-1
EndSplineSet
EndChar

StartChar: threesuperior
Encoding: 179 179 116
Width: 334
GlyphClass: 2
Flags: W
LayerCount: 2
Fore
SplineSet
249 484.5 m 128,-1,1
 274 459 274 459 274 418 c 128,-1,2
 274 377 274 377 242 346 c 0,3,4
 186 292 186 292 83 292 c 0,5,6
 62 292 62 292 62 310 c 0,7,8
 62 326 62 326 82 328 c 0,9,10
 209 339 209 339 209 419 c 0,11,12
 209 484 209 484 122 486 c 0,13,14
 98 486 98 486 98 503 c 0,15,16
 98 512 98 512 104 516 c 0,17,18
 157 546 157 546 177.5 570.5 c 128,-1,19
 198 595 198 595 198 618 c 0,20,21
 198 665 198 665 153 665 c 0,22,23
 117 665 117 665 98 624 c 1,24,25
 89 598 89 598 75 598 c 0,26,27
 69 598 69 598 64.5 603.5 c 128,-1,28
 60 609 60 609 60 614 c 2,29,-1
 60 656 l 2,30,31
 60 671 60 671 87.5 685.5 c 128,-1,32
 115 700 115 700 158 700 c 128,-1,33
 201 700 201 700 232 680 c 128,-1,34
 263 660 263 660 263 621 c 0,35,36
 263 570 263 570 186 519 c 1,37,0
 224 510 224 510 249 484.5 c 128,-1,1
EndSplineSet
EndChar

StartChar: acute
Encoding: 180 180 117
Width: 345
GlyphClass: 2
Flags: W
LayerCount: 2
Fore
SplineSet
216 734 m 2,0,1
 226 743 226 743 240.5 743 c 128,-1,2
 255 743 255 743 267.5 728.5 c 128,-1,3
 280 714 280 714 280 694.5 c 128,-1,4
 280 675 280 675 261 665 c 2,5,-1
 83 578 l 1,6,-1
 65 602 l 1,7,-1
 216 734 l 2,0,1
EndSplineSet
EndChar

StartChar: mu
Encoding: 181 181 118
Width: 628
GlyphClass: 2
Flags: W
LayerCount: 2
Fore
SplineSet
98 434 m 2,0,1
 98 454 98 454 89.5 462 c 128,-1,2
 81 470 81 470 63 470 c 2,3,-1
 29 470 l 2,4,5
 24 470 24 470 19.5 474 c 128,-1,6
 15 478 15 478 15 484 c 0,7,8
 15 496 15 496 29 498 c 2,9,-1
 161 511 l 2,10,11
 164 511 164 511 166 511 c 0,12,13
 186 511 186 511 186 495 c 0,14,15
 186 493 186 493 181 483 c 128,-1,16
 176 473 176 473 176 458 c 2,17,-1
 176 159 l 1,18,19
 178 100 178 100 216.5 66 c 128,-1,20
 255 32 255 32 314.5 32 c 128,-1,21
 374 32 374 32 415.5 77 c 128,-1,22
 457 122 457 122 457 179 c 2,23,-1
 457 434 l 2,24,25
 457 454 457 454 448.5 462 c 128,-1,26
 440 470 440 470 422 470 c 2,27,-1
 378 470 l 2,28,29
 373 470 373 470 368.5 474 c 128,-1,30
 364 478 364 478 364 484 c 0,31,32
 364 496 364 496 378 498 c 2,33,-1
 518 511 l 2,34,35
 520 511 520 511 523 511 c 0,36,37
 543 511 543 511 543 495 c 0,38,39
 543 493 543 493 539 483 c 128,-1,40
 535 473 535 473 535 458 c 2,41,-1
 535 91 l 2,42,43
 535 59 535 59 555 39.5 c 128,-1,44
 575 20 575 20 603 20 c 0,45,46
 618 20 618 20 618 8 c 0,47,48
 618 -11 618 -11 579 -11 c 0,49,50
 520 -11 520 -11 476 38 c 0,51,52
 473 41 473 41 470 45 c 128,-1,53
 467 49 467 49 465 52 c 0,54,55
 461 57 461 57 456.5 57 c 128,-1,56
 452 57 452 57 443 49 c 0,57,58
 375 -11 375 -11 299 -11 c 128,-1,59
 223 -11 223 -11 176 18 c 1,60,-1
 176 -164 l 2,61,62
 176 -176 176 -176 165 -176 c 2,63,-1
 109 -176 l 2,64,65
 98 -176 98 -176 98 -164 c 2,66,-1
 98 434 l 2,0,1
EndSplineSet
EndChar

StartChar: paragraph
Encoding: 182 182 119
Width: 719
GlyphClass: 2
Flags: W
LayerCount: 2
Fore
SplineSet
504 656 m 1,0,-1
 404 656 l 1,1,-1
 404 -202 l 2,2,3
 404 -214 404 -214 393 -214 c 2,4,-1
 241 -218 l 2,5,6
 227 -218 227 -218 227 -204.5 c 128,-1,7
 227 -191 227 -191 238 -191 c 2,8,-1
 280 -189 l 2,9,10
 299 -188 299 -188 312 -177 c 128,-1,11
 325 -166 325 -166 325 -148 c 2,12,-1
 325 291 l 2,13,14
 325 303 325 303 310 303 c 2,15,-1
 282 303 l 2,16,17
 176 303 176 303 113 361 c 128,-1,18
 50 419 50 419 50 506.5 c 128,-1,19
 50 594 50 594 114.5 647 c 128,-1,20
 179 700 179 700 294 700 c 2,21,-1
 517 700 l 1,22,-1
 655 704 l 2,23,24
 669 704 669 704 669 690 c 0,25,26
 669 679 669 679 658 677 c 2,27,-1
 629 674 l 2,28,29
 583 670 583 670 583 634 c 2,30,-1
 583 -148 l 2,31,32
 583 -186 583 -186 624 -189 c 2,33,-1
 653 -191 l 2,34,35
 665 -192 665 -192 665 -206 c 0,36,37
 665 -218 665 -218 650 -218 c 2,38,-1
 515 -214 l 2,39,40
 504 -214 504 -214 504 -202 c 2,41,-1
 504 656 l 1,0,-1
EndSplineSet
EndChar

StartChar: periodcentered
Encoding: 183 183 120
Width: 243
GlyphClass: 2
Flags: W
LayerCount: 2
Fore
SplineSet
164.5 386 m 128,-1,1
 183 368 183 368 183 342.5 c 128,-1,2
 183 317 183 317 164.5 299 c 128,-1,3
 146 281 146 281 121 281 c 128,-1,4
 96 281 96 281 78 299 c 128,-1,5
 60 317 60 317 60 342 c 128,-1,6
 60 367 60 367 78 385.5 c 128,-1,7
 96 404 96 404 121 404 c 128,-1,0
 146 404 146 404 164.5 386 c 128,-1,1
EndSplineSet
EndChar

StartChar: cedilla
Encoding: 184 184 121
Width: 303
GlyphClass: 2
Flags: W
LayerCount: 2
Fore
SplineSet
202 -221.5 m 128,-1,1
 166 -247 166 -247 116 -247 c 0,2,3
 91 -247 91 -247 65 -239 c 1,4,-1
 65 -203 l 1,5,6
 84 -209 84 -209 110 -209 c 128,-1,7
 136 -209 136 -209 155 -196.5 c 128,-1,8
 174 -184 174 -184 174 -161 c 128,-1,9
 174 -138 174 -138 155 -123 c 128,-1,10
 136 -108 136 -108 118 -104 c 2,11,-1
 99 -100 l 1,12,-1
 141 0 l 1,13,-1
 176 -5 l 1,14,-1
 155 -62 l 1,15,16
 158 -63 158 -63 164 -64.5 c 128,-1,17
 170 -66 170 -66 184 -72.5 c 128,-1,18
 198 -79 198 -79 209 -88 c 0,19,20
 238 -112 238 -112 238 -154 c 128,-1,0
 238 -196 238 -196 202 -221.5 c 128,-1,1
EndSplineSet
EndChar

StartChar: onesuperior
Encoding: 185 185 122
Width: 304
GlyphClass: 2
Flags: W
LayerCount: 2
Fore
SplineSet
202 331 m 1,0,-1
 230 330 l 2,1,2
 244 330 244 330 244 316 c 0,3,4
 244 310 244 310 239.5 305.5 c 128,-1,5
 235 301 235 301 229 301 c 2,6,-1
 155 303 l 1,7,-1
 77 301 l 2,8,9
 62 301 62 301 62 315.5 c 128,-1,10
 62 330 62 330 76 330 c 2,11,-1
 104 331 l 1,12,13
 126 333 126 333 126 347 c 2,14,-1
 126 646 l 2,15,16
 126 662 126 662 108 660 c 1,17,-1
 73 659 l 2,18,19
 60 659 60 659 60 672 c 128,-1,20
 60 685 60 685 73 687 c 0,21,22
 141 697 141 697 169 700 c 1,23,24
 184 700 184 700 184 687 c 2,25,-1
 184 347 l 2,26,27
 184 333 184 333 202 331 c 1,0,-1
EndSplineSet
EndChar

StartChar: ordmasculine
Encoding: 186 186 123
Width: 476
GlyphClass: 2
Flags: W
LayerCount: 2
Fore
SplineSet
360.5 662.5 m 128,-1,1
 406 614 406 614 406 536.5 c 128,-1,2
 406 459 406 459 360.5 411 c 128,-1,3
 315 363 315 363 238 363 c 128,-1,4
 161 363 161 363 115.5 411.5 c 128,-1,5
 70 460 70 460 70 536.5 c 128,-1,6
 70 613 70 613 116.5 662 c 128,-1,7
 163 711 163 711 239 711 c 128,-1,0
 315 711 315 711 360.5 662.5 c 128,-1,1
326 614 m 128,-1,9
 311 649 311 649 290 663 c 128,-1,10
 269 677 269 677 239 677 c 0,11,12
 187 677 187 677 161 642.5 c 128,-1,13
 135 608 135 608 135 549 c 128,-1,14
 135 490 135 490 158.5 443.5 c 128,-1,15
 182 397 182 397 236 397 c 128,-1,16
 290 397 290 397 315.5 431.5 c 128,-1,17
 341 466 341 466 341 522.5 c 128,-1,8
 341 579 341 579 326 614 c 128,-1,9
82 267 m 2,18,-1
 394 267 l 2,19,20
 406 267 406 267 406 256 c 2,21,-1
 406 231 l 2,22,23
 406 220 406 220 394 220 c 2,24,-1
 82 220 l 2,25,26
 70 220 70 220 70 231 c 2,27,-1
 70 256 l 2,28,29
 70 267 70 267 82 267 c 2,18,-1
EndSplineSet
EndChar

StartChar: guillemotright
Encoding: 187 187 124
Width: 455
GlyphClass: 2
Flags: W
LayerCount: 2
Fore
SplineSet
405 246 m 128,-1,1
 405 242 405 242 402 237 c 2,2,-1
 267 52 l 1,3,4
 263 44 263 44 259 44 c 256,5,6
 255 44 255 44 244 49 c 128,-1,7
 233 54 233 54 237 64 c 2,8,-1
 321 246 l 1,9,-1
 237 428 l 2,10,11
 233 438 233 438 244 443 c 256,12,13
 255 448 255 448 259 448 c 128,-1,14
 263 448 263 448 267 440 c 1,15,-1
 402 255 l 2,16,0
 405 250 405 250 405 246 c 128,-1,1
239 246 m 128,-1,18
 239 242 239 242 236 237 c 2,19,-1
 101 52 l 1,20,21
 97 44 97 44 93 44 c 256,22,23
 89 44 89 44 79.5 48.5 c 128,-1,24
 70 53 70 53 70 59 c 0,25,26
 70 61 70 61 71 64 c 2,27,-1
 155 246 l 1,28,-1
 71 428 l 2,29,30
 70 431 70 431 70 433 c 0,31,32
 70 439 70 439 78 443 c 0,33,34
 89 448 89 448 93 448 c 128,-1,35
 97 448 97 448 101 440 c 1,36,-1
 236 255 l 2,37,17
 239 250 239 250 239 246 c 128,-1,18
EndSplineSet
EndChar

StartChar: onequarter
Encoding: 188 188 125
Width: 759
GlyphClass: 2
Flags: W
LayerCount: 2
Fore
SplineSet
202 331 m 1,0,-1
 230 330 l 2,1,2
 244 330 244 330 244 316 c 0,3,4
 244 310 244 310 239.5 305.5 c 128,-1,5
 235 301 235 301 229 301 c 2,6,-1
 155 303 l 1,7,-1
 77 301 l 2,8,9
 62 301 62 301 62 315.5 c 128,-1,10
 62 330 62 330 76 330 c 2,11,-1
 104 331 l 1,12,13
 126 333 126 333 126 347 c 2,14,-1
 126 646 l 2,15,16
 126 662 126 662 108 660 c 1,17,-1
 73 659 l 2,18,19
 60 659 60 659 60 672 c 128,-1,20
 60 685 60 685 73 687 c 0,21,22
 141 697 141 697 169 700 c 1,23,24
 184 700 184 700 184 687 c 2,25,-1
 184 347 l 2,26,27
 184 333 184 333 202 331 c 1,0,-1
699 122 m 2,28,29
 699 105 699 105 682 105 c 2,30,-1
 649 105 l 1,31,-1
 649 18 l 2,32,33
 649 0 649 0 632 0 c 2,34,-1
 609 0 l 2,35,36
 590 0 590 0 590 18 c 2,37,-1
 590 105 l 1,38,-1
 430 105 l 2,39,40
 416 105 416 105 416 118 c 2,41,-1
 416 124 l 2,42,43
 416 131 416 131 422 139 c 2,44,-1
 600 386 l 2,45,46
 609 397 609 397 620 397 c 2,47,-1
 631 397 l 2,48,49
 649 397 649 397 649 377 c 2,50,-1
 649 150 l 1,51,-1
 682 150 l 2,52,53
 699 150 699 150 699 134 c 2,54,-1
 699 122 l 2,28,29
590 150 m 1,55,-1
 590 306 l 1,56,-1
 480 150 l 1,57,-1
 590 150 l 1,55,-1
192 -23 m 2,58,-1
 157 -23 l 2,59,60
 149 -23 149 -23 149 -19 c 128,-1,61
 149 -15 149 -15 151 -11 c 2,62,-1
 540 711 l 2,63,64
 546 723 546 723 558 723 c 2,65,-1
 593 723 l 2,66,67
 601 723 601 723 601 719 c 128,-1,68
 601 715 601 715 599 711 c 2,69,-1
 210 -11 l 2,70,71
 204 -23 204 -23 192 -23 c 2,58,-1
EndSplineSet
EndChar

StartChar: onehalf
Encoding: 189 189 126
Width: 774
GlyphClass: 2
Flags: W
LayerCount: 2
Fore
SplineSet
192 -23 m 2,0,-1
 157 -23 l 2,1,2
 145 -23 145 -23 151 -11 c 2,3,-1
 540 711 l 2,4,5
 546 723 546 723 558 723 c 2,6,-1
 593 723 l 2,7,8
 605 723 605 723 599 711 c 2,9,-1
 210 -11 l 2,10,11
 204 -23 204 -23 192 -23 c 2,0,-1
689 0 m 2,12,-1
 487 0 l 2,13,14
 473 0 473 0 473 13 c 2,15,-1
 473 18 l 2,16,17
 473 22 473 22 479 34 c 1,18,19
 523 100 523 100 551 138.5 c 128,-1,20
 579 177 579 177 594 199 c 0,21,22
 634 260 634 260 634 302 c 0,23,24
 634 363 634 363 579 363 c 0,25,26
 537 363 537 363 519 309 c 1,27,28
 516 294 516 294 501 294 c 128,-1,29
 486 294 486 294 486 311 c 2,30,-1
 486 353 l 2,31,32
 486 367 486 367 515.5 382 c 128,-1,33
 545 397 545 397 591 397 c 128,-1,34
 637 397 637 397 668 369.5 c 128,-1,35
 699 342 699 342 699 298 c 0,36,37
 699 252 699 252 660 201 c 0,38,39
 647 183 647 183 605.5 133 c 128,-1,40
 564 83 564 83 547 60 c 1,41,-1
 667 60 l 2,42,43
 681 60 681 60 685.5 68 c 128,-1,44
 690 76 690 76 698 76 c 0,45,46
 715 76 715 76 713 60 c 1,47,-1
 711 23 l 2,48,49
 710 13 710 13 703.5 6.5 c 128,-1,50
 697 0 697 0 689 0 c 2,12,-1
202 331 m 1,51,-1
 230 330 l 2,52,53
 244 330 244 330 244 316 c 0,54,55
 244 310 244 310 239.5 305.5 c 128,-1,56
 235 301 235 301 229 301 c 2,57,-1
 155 303 l 1,58,-1
 77 301 l 2,59,60
 62 301 62 301 62 315.5 c 128,-1,61
 62 330 62 330 76 330 c 2,62,-1
 104 331 l 1,63,64
 126 333 126 333 126 347 c 2,65,-1
 126 646 l 2,66,67
 126 662 126 662 108 660 c 1,68,-1
 73 659 l 2,69,70
 60 659 60 659 60 672 c 128,-1,71
 60 685 60 685 73 687 c 0,72,73
 141 697 141 697 169 700 c 1,74,75
 184 700 184 700 184 687 c 2,76,-1
 184 347 l 2,77,78
 184 333 184 333 202 331 c 1,51,-1
EndSplineSet
EndChar

StartChar: threequarters
Encoding: 190 190 127
Width: 784
GlyphClass: 2
Flags: W
LayerCount: 2
Fore
SplineSet
724 122 m 2,0,1
 724 105 724 105 707 105 c 2,2,-1
 674 105 l 1,3,-1
 674 18 l 2,4,5
 674 0 674 0 657 0 c 2,6,-1
 634 0 l 2,7,8
 615 0 615 0 615 18 c 2,9,-1
 615 105 l 1,10,-1
 455 105 l 2,11,12
 441 105 441 105 441 118 c 2,13,-1
 441 124 l 2,14,15
 441 131 441 131 447 139 c 2,16,-1
 625 386 l 2,17,18
 634 397 634 397 645 397 c 2,19,-1
 656 397 l 2,20,21
 674 397 674 397 674 377 c 2,22,-1
 674 150 l 1,23,-1
 707 150 l 2,24,25
 724 150 724 150 724 134 c 2,26,-1
 724 122 l 2,0,1
615 150 m 1,27,-1
 615 306 l 1,28,-1
 505 150 l 1,29,-1
 615 150 l 1,27,-1
249 484.5 m 128,-1,31
 274 459 274 459 274 418 c 128,-1,32
 274 377 274 377 242 346 c 0,33,34
 186 292 186 292 83 292 c 0,35,36
 62 292 62 292 62 310 c 0,37,38
 62 326 62 326 82 328 c 0,39,40
 209 339 209 339 209 419 c 0,41,42
 209 484 209 484 122 486 c 0,43,44
 98 486 98 486 98 503 c 0,45,46
 98 512 98 512 104 516 c 0,47,48
 157 546 157 546 177.5 570.5 c 128,-1,49
 198 595 198 595 198 618 c 0,50,51
 198 665 198 665 153 665 c 0,52,53
 117 665 117 665 98 624 c 1,54,55
 89 598 89 598 75 598 c 0,56,57
 69 598 69 598 64.5 603.5 c 128,-1,58
 60 609 60 609 60 614 c 2,59,-1
 60 656 l 2,60,61
 60 671 60 671 87.5 685.5 c 128,-1,62
 115 700 115 700 158 700 c 128,-1,63
 201 700 201 700 232 680 c 128,-1,64
 263 660 263 660 263 621 c 0,65,66
 263 570 263 570 186 519 c 1,67,30
 224 510 224 510 249 484.5 c 128,-1,31
218 -23 m 2,68,-1
 183 -23 l 2,69,70
 175 -23 175 -23 175 -19 c 128,-1,71
 175 -15 175 -15 177 -11 c 2,72,-1
 566 711 l 2,73,74
 572 723 572 723 584 723 c 2,75,-1
 619 723 l 2,76,77
 627 723 627 723 627 719 c 128,-1,78
 627 715 627 715 625 711 c 2,79,-1
 236 -11 l 2,80,81
 230 -23 230 -23 218 -23 c 2,68,-1
EndSplineSet
EndChar

StartChar: questiondown
Encoding: 191 191 128
Width: 380
GlyphClass: 2
Flags: W
LayerCount: 2
Fore
SplineSet
220 280 m 2,0,-1
 230 280 l 2,1,2
 242 280 242 280 243.5 265 c 128,-1,3
 245 250 245 250 245 226 c 128,-1,4
 245 202 245 202 236.5 165.5 c 128,-1,5
 228 129 228 129 209.5 97.5 c 128,-1,6
 191 66 191 66 172 38 c 0,7,8
 124 -30 124 -30 124 -77 c 128,-1,9
 124 -124 124 -124 147.5 -148 c 128,-1,10
 171 -172 171 -172 210 -172 c 128,-1,11
 249 -172 249 -172 272 -148.5 c 128,-1,12
 295 -125 295 -125 312.5 -86 c 128,-1,13
 330 -47 330 -47 344 -47 c 0,14,15
 351 -47 351 -47 355.5 -53 c 128,-1,16
 360 -59 360 -59 360 -64 c 2,17,-1
 360 -143 l 2,18,19
 360 -165 360 -165 315.5 -188 c 128,-1,20
 271 -211 271 -211 199.5 -211 c 128,-1,21
 128 -211 128 -211 79 -176 c 128,-1,22
 30 -141 30 -141 30 -73 c 0,23,24
 30 -9 30 -9 87 53 c 0,25,26
 111 79 111 79 136 107 c 0,27,28
 196 174 196 174 207 269 c 1,29,30
 207 280 207 280 220 280 c 2,0,-1
182 406 m 128,-1,32
 164 424 164 424 164 449.5 c 128,-1,33
 164 475 164 475 182.5 493 c 128,-1,34
 201 511 201 511 226 511 c 128,-1,35
 251 511 251 511 269 493 c 128,-1,36
 287 475 287 475 287 450 c 128,-1,37
 287 425 287 425 269 406.5 c 128,-1,38
 251 388 251 388 225.5 388 c 128,-1,31
 200 388 200 388 182 406 c 128,-1,32
EndSplineSet
EndChar

StartChar: Aacute
Encoding: 193 193 130
Width: 717
GlyphClass: 2
Flags: W
LayerCount: 2
Fore
SplineSet
227 275 m 2,0,-1
 450 275 l 2,1,2
 461 275 461 275 457 287 c 2,3,-1
 338 593 l 1,4,-1
 219 285 l 2,5,6
 216 275 216 275 227 275 c 2,0,-1
134 66 m 2,7,8
 132 60 132 60 132 52.5 c 128,-1,9
 132 45 132 45 140 35.5 c 128,-1,10
 148 26 148 26 162 25 c 2,11,-1
 184 23 l 2,12,13
 197 21 197 21 197 10 c 0,14,15
 197 -4 197 -4 182 -4 c 2,16,-1
 95 0 l 1,17,-1
 4 -4 l 2,18,19
 -10 -4 -10 -4 -10 9.5 c 128,-1,20
 -10 23 -10 23 1 23 c 1,21,-1
 20 25 l 2,22,23
 63 30 63 30 78 66 c 2,24,-1
 335 699 l 2,25,26
 339 711 339 711 358.5 711 c 128,-1,27
 378 711 378 711 383 699 c 2,28,-1
 639 66 l 1,29,30
 652 29 652 29 696 25 c 2,31,-1
 717 23 l 2,32,33
 721 23 721 23 724 19 c 128,-1,34
 727 15 727 15 727 11 c 0,35,36
 727 -4 727 -4 713 -4 c 2,37,-1
 598 0 l 1,38,-1
 495 -4 l 2,39,40
 481 -4 481 -4 481 8 c 0,41,42
 481 22 481 22 493 23 c 2,43,-1
 516 25 l 2,44,45
 529 26 529 26 537.5 35 c 128,-1,46
 546 44 546 44 546 52 c 128,-1,47
 546 60 546 60 543 66 c 2,48,-1
 484 219 l 2,49,50
 481 229 481 229 468 229 c 2,51,-1
 209 229 l 2,52,53
 197 229 197 229 193 219 c 2,54,-1
 134 66 l 2,7,8
432 934 m 2,55,56
 442 943 442 943 456.5 943 c 128,-1,57
 471 943 471 943 483.5 928.5 c 128,-1,58
 496 914 496 914 496 894.5 c 128,-1,59
 496 875 496 875 477 865 c 2,60,-1
 299 778 l 1,61,-1
 281 802 l 1,62,-1
 432 934 l 2,55,56
EndSplineSet
EndChar

StartChar: Atilde
Encoding: 195 195 132
Width: 717
GlyphClass: 2
Flags: W
LayerCount: 2
Fore
SplineSet
227 275 m 2,0,-1
 450 275 l 2,1,2
 461 275 461 275 457 287 c 2,3,-1
 338 593 l 1,4,-1
 219 285 l 2,5,6
 216 275 216 275 227 275 c 2,0,-1
134 66 m 2,7,8
 132 60 132 60 132 52.5 c 128,-1,9
 132 45 132 45 140 35.5 c 128,-1,10
 148 26 148 26 162 25 c 2,11,-1
 184 23 l 2,12,13
 197 21 197 21 197 10 c 0,14,15
 197 -4 197 -4 182 -4 c 2,16,-1
 95 0 l 1,17,-1
 4 -4 l 2,18,19
 -10 -4 -10 -4 -10 9.5 c 128,-1,20
 -10 23 -10 23 1 23 c 1,21,-1
 20 25 l 2,22,23
 63 30 63 30 78 66 c 2,24,-1
 335 699 l 2,25,26
 339 711 339 711 358.5 711 c 128,-1,27
 378 711 378 711 383 699 c 2,28,-1
 639 66 l 1,29,30
 652 29 652 29 696 25 c 2,31,-1
 717 23 l 2,32,33
 721 23 721 23 724 19 c 128,-1,34
 727 15 727 15 727 11 c 0,35,36
 727 -4 727 -4 713 -4 c 2,37,-1
 598 0 l 1,38,-1
 495 -4 l 2,39,40
 481 -4 481 -4 481 8 c 0,41,42
 481 22 481 22 493 23 c 2,43,-1
 516 25 l 2,44,45
 529 26 529 26 537.5 35 c 128,-1,46
 546 44 546 44 546 52 c 128,-1,47
 546 60 546 60 543 66 c 2,48,-1
 484 219 l 2,49,50
 481 229 481 229 468 229 c 2,51,-1
 209 229 l 2,52,53
 197 229 197 229 193 219 c 2,54,-1
 134 66 l 2,7,8
421 810 m 0,55,56
 394 810 394 810 349 833 c 128,-1,57
 304 856 304 856 278.5 856 c 128,-1,58
 253 856 253 856 237 844 c 128,-1,59
 221 832 221 832 216 820 c 2,60,-1
 211 808 l 1,61,-1
 179 823 l 1,62,63
 184 849 184 849 214 882 c 128,-1,64
 244 915 244 915 295 915 c 0,65,66
 324 915 324 915 373 892 c 128,-1,67
 422 869 422 869 442.5 869 c 128,-1,68
 463 869 463 869 479 881 c 128,-1,69
 495 893 495 893 500 905 c 2,70,-1
 505 917 l 1,71,-1
 537 902 l 1,72,73
 532 876 532 876 502 843 c 128,-1,74
 472 810 472 810 421 810 c 0,55,56
EndSplineSet
EndChar

StartChar: Aring
Encoding: 197 197 134
Width: 717
GlyphClass: 2
Flags: W
LayerCount: 2
Fore
SplineSet
227 275 m 2,0,-1
 450 275 l 2,1,2
 461 275 461 275 457 287 c 2,3,-1
 338 593 l 1,4,-1
 219 285 l 2,5,6
 216 275 216 275 227 275 c 2,0,-1
134 66 m 2,7,8
 132 60 132 60 132 52.5 c 128,-1,9
 132 45 132 45 140 35.5 c 128,-1,10
 148 26 148 26 162 25 c 2,11,-1
 184 23 l 2,12,13
 197 21 197 21 197 10 c 0,14,15
 197 -4 197 -4 182 -4 c 2,16,-1
 95 0 l 1,17,-1
 4 -4 l 2,18,19
 -10 -4 -10 -4 -10 9.5 c 128,-1,20
 -10 23 -10 23 1 23 c 1,21,-1
 20 25 l 2,22,23
 63 30 63 30 78 66 c 2,24,-1
 335 699 l 2,25,26
 339 711 339 711 358.5 711 c 128,-1,27
 378 711 378 711 383 699 c 2,28,-1
 639 66 l 1,29,30
 652 29 652 29 696 25 c 2,31,-1
 717 23 l 2,32,33
 721 23 721 23 724 19 c 128,-1,34
 727 15 727 15 727 11 c 0,35,36
 727 -4 727 -4 713 -4 c 2,37,-1
 598 0 l 1,38,-1
 495 -4 l 2,39,40
 481 -4 481 -4 481 8 c 0,41,42
 481 22 481 22 493 23 c 2,43,-1
 516 25 l 2,44,45
 529 26 529 26 537.5 35 c 128,-1,46
 546 44 546 44 546 52 c 128,-1,47
 546 60 546 60 543 66 c 2,48,-1
 484 219 l 2,49,50
 481 229 481 229 468 229 c 2,51,-1
 209 229 l 2,52,53
 197 229 197 229 193 219 c 2,54,-1
 134 66 l 2,7,8
254 852 m 128,-1,56
 254 895 254 895 284 925 c 128,-1,57
 314 955 314 955 358 955 c 128,-1,58
 402 955 402 955 432 925 c 128,-1,59
 462 895 462 895 462 852 c 128,-1,60
 462 809 462 809 432 779 c 128,-1,61
 402 749 402 749 358 749 c 128,-1,62
 314 749 314 749 284 779 c 128,-1,55
 254 809 254 809 254 852 c 128,-1,56
303 852 m 128,-1,64
 303 828 303 828 318.5 811.5 c 128,-1,65
 334 795 334 795 358 795 c 128,-1,66
 382 795 382 795 397 811.5 c 128,-1,67
 412 828 412 828 412 852 c 128,-1,68
 412 876 412 876 397 892.5 c 128,-1,69
 382 909 382 909 358 909 c 128,-1,70
 334 909 334 909 318.5 892.5 c 128,-1,63
 303 876 303 876 303 852 c 128,-1,64
EndSplineSet
EndChar

StartChar: AE
Encoding: 198 198 135
Width: 1113
GlyphClass: 2
Flags: W
LayerCount: 2
Fore
SplineSet
339 275 m 2,0,-1
 583 275 l 2,1,2
 593 275 593 275 595 287 c 1,3,-1
 595 623 l 1,4,-1
 335 285 l 2,5,6
 328 275 328 275 339 275 c 2,0,-1
595 66 m 2,7,-1
 595 219 l 2,8,9
 595 229 595 229 583 229 c 2,10,-1
 304 229 l 2,11,12
 291 229 291 229 284 219 c 2,13,-1
 166 66 l 2,14,15
 157 54 157 54 157 40.5 c 128,-1,16
 157 27 157 27 173 25 c 2,17,-1
 195 23 l 2,18,19
 208 21 208 21 208 10 c 0,20,21
 208 -4 208 -4 193 -4 c 2,22,-1
 95 0 l 1,23,-1
 3 -4 l 2,24,25
 -11 -4 -11 -4 -11 9.5 c 128,-1,26
 -11 23 -11 23 0 23 c 1,27,-1
 19 25 l 2,28,29
 70 31 70 31 98 66 c 2,30,-1
 593 692 l 1,31,32
 601 704 601 704 621 704 c 2,33,-1
 729 700 l 1,34,-1
 991 700 l 2,35,36
 1010 700 1010 700 1022 688.5 c 128,-1,37
 1034 677 1034 677 1036 660 c 2,38,-1
 1050 568 l 2,39,40
 1052 550 1052 550 1035.5 550 c 128,-1,41
 1019 550 1019 550 1014 566 c 0,42,43
 999 614 999 614 969 634 c 128,-1,44
 939 654 939 654 886 654 c 2,45,-1
 729 654 l 2,46,47
 707 654 707 654 693.5 641.5 c 128,-1,48
 680 629 680 629 680 607 c 2,49,-1
 680 397 l 2,50,51
 680 384 680 384 693 384 c 2,52,-1
 879 384 l 2,53,54
 893 384 893 384 901 391 c 128,-1,55
 909 398 909 398 911.5 404 c 128,-1,56
 914 410 914 410 919 426 c 2,57,-1
 923 439 l 2,58,59
 926 451 926 451 938 451 c 128,-1,60
 950 451 950 451 950 437 c 2,61,-1
 946 352 l 1,62,-1
 950 271 l 2,63,64
 950 258 950 258 937 256 c 1,65,66
 924 256 924 256 923 268 c 2,67,-1
 920 286 l 2,68,69
 911 338 911 338 879 338 c 2,70,-1
 692 338 l 2,71,72
 680 338 680 338 680 324 c 2,73,-1
 680 92 l 2,74,75
 680 71 680 71 693.5 58.5 c 128,-1,76
 707 46 707 46 729 46 c 2,77,-1
 894 46 l 2,78,79
 946 46 946 46 983.5 71.5 c 128,-1,80
 1021 97 1021 97 1036 146 c 0,81,82
 1041 162 1041 162 1052.5 162 c 128,-1,83
 1064 162 1064 162 1068.5 156.5 c 128,-1,84
 1073 151 1073 151 1072 144 c 2,85,-1
 1056 40 l 2,86,87
 1054 23 1054 23 1041.5 11.5 c 128,-1,88
 1029 0 1029 0 1011 0 c 2,89,-1
 636 0 l 1,90,-1
 523 -4 l 2,91,92
 509 -4 509 -4 509 9.5 c 128,-1,93
 509 23 509 23 520 23 c 2,94,-1
 549 25 l 2,95,96
 569 27 569 27 582 37.5 c 128,-1,97
 595 48 595 48 595 66 c 2,7,-1
EndSplineSet
EndChar

StartChar: Eacute
Encoding: 201 201 138
Width: 634
GlyphClass: 2
Flags: W
LayerCount: 2
Fore
SplineSet
532 0 m 2,0,-1
 157 0 l 1,1,-1
 44 -4 l 2,2,3
 30 -4 30 -4 30 9.5 c 128,-1,4
 30 23 30 23 41 23 c 2,5,-1
 70 25 l 2,6,7
 90 27 90 27 103 37.5 c 128,-1,8
 116 48 116 48 116 66 c 2,9,-1
 116 634 l 2,10,11
 116 670 116 670 70 674 c 2,12,-1
 41 677 l 1,13,14
 30 677 30 677 30 690.5 c 128,-1,15
 30 704 30 704 44 704 c 2,16,-1
 157 700 l 1,17,-1
 512 700 l 2,18,19
 531 700 531 700 543 688.5 c 128,-1,20
 555 677 555 677 557 660 c 2,21,-1
 571 568 l 2,22,23
 573 550 573 550 556.5 550 c 128,-1,24
 540 550 540 550 535 566 c 0,25,26
 520 614 520 614 490 634 c 128,-1,27
 460 654 460 654 407 654 c 2,28,-1
 250 654 l 2,29,30
 228 654 228 654 214.5 641.5 c 128,-1,31
 201 629 201 629 201 607 c 2,32,-1
 201 397 l 2,33,34
 201 384 201 384 214 384 c 2,35,-1
 400 384 l 2,36,37
 414 384 414 384 422 391 c 128,-1,38
 430 398 430 398 432.5 404 c 128,-1,39
 435 410 435 410 440 426 c 2,40,-1
 444 439 l 2,41,42
 447 451 447 451 459 451 c 128,-1,43
 471 451 471 451 471 437 c 2,44,-1
 467 352 l 1,45,-1
 471 271 l 2,46,47
 471 258 471 258 458 256 c 1,48,49
 446 256 446 256 444 268 c 2,50,-1
 441 286 l 2,51,52
 432 338 432 338 400 338 c 2,53,-1
 213 338 l 2,54,55
 201 338 201 338 201 324 c 2,56,-1
 201 92 l 2,57,58
 201 71 201 71 214.5 58.5 c 128,-1,59
 228 46 228 46 250 46 c 2,60,-1
 415 46 l 2,61,62
 467 46 467 46 504.5 71.5 c 128,-1,63
 542 97 542 97 557 146 c 0,64,65
 562 162 562 162 573.5 162 c 128,-1,66
 585 162 585 162 589.5 156.5 c 128,-1,67
 594 151 594 151 593 144 c 2,68,-1
 577 40 l 2,69,70
 575 23 575 23 562.5 11.5 c 128,-1,71
 550 0 550 0 532 0 c 2,0,-1
380 934 m 2,72,73
 391 943 391 943 405 943 c 128,-1,74
 419 943 419 943 431.5 928.5 c 128,-1,75
 444 914 444 914 444 894.5 c 128,-1,76
 444 875 444 875 425 865 c 2,77,-1
 247 778 l 1,78,-1
 229 802 l 1,79,-1
 380 934 l 2,72,73
EndSplineSet
EndChar

StartChar: Edieresis
Encoding: 203 203 140
Width: 634
GlyphClass: 2
Flags: W
LayerCount: 2
Fore
SplineSet
532 0 m 2,0,-1
 157 0 l 1,1,-1
 44 -4 l 2,2,3
 30 -4 30 -4 30 9.5 c 128,-1,4
 30 23 30 23 41 23 c 2,5,-1
 70 25 l 2,6,7
 90 27 90 27 103 37.5 c 128,-1,8
 116 48 116 48 116 66 c 2,9,-1
 116 634 l 2,10,11
 116 670 116 670 70 674 c 2,12,-1
 41 677 l 1,13,14
 30 677 30 677 30 690.5 c 128,-1,15
 30 704 30 704 44 704 c 2,16,-1
 157 700 l 1,17,-1
 512 700 l 2,18,19
 531 700 531 700 543 688.5 c 128,-1,20
 555 677 555 677 557 660 c 2,21,-1
 571 568 l 2,22,23
 573 550 573 550 556.5 550 c 128,-1,24
 540 550 540 550 535 566 c 0,25,26
 520 614 520 614 490 634 c 128,-1,27
 460 654 460 654 407 654 c 2,28,-1
 250 654 l 2,29,30
 228 654 228 654 214.5 641.5 c 128,-1,31
 201 629 201 629 201 607 c 2,32,-1
 201 397 l 2,33,34
 201 384 201 384 214 384 c 2,35,-1
 400 384 l 2,36,37
 414 384 414 384 422 391 c 128,-1,38
 430 398 430 398 432.5 404 c 128,-1,39
 435 410 435 410 440 426 c 2,40,-1
 444 439 l 2,41,42
 447 451 447 451 459 451 c 128,-1,43
 471 451 471 451 471 437 c 2,44,-1
 467 352 l 1,45,-1
 471 271 l 2,46,47
 471 258 471 258 458 256 c 1,48,49
 446 256 446 256 444 268 c 2,50,-1
 441 286 l 2,51,52
 432 338 432 338 400 338 c 2,53,-1
 213 338 l 2,54,55
 201 338 201 338 201 324 c 2,56,-1
 201 92 l 2,57,58
 201 71 201 71 214.5 58.5 c 128,-1,59
 228 46 228 46 250 46 c 2,60,-1
 415 46 l 2,61,62
 467 46 467 46 504.5 71.5 c 128,-1,63
 542 97 542 97 557 146 c 0,64,65
 562 162 562 162 573.5 162 c 128,-1,66
 585 162 585 162 589.5 156.5 c 128,-1,67
 594 151 594 151 593 144 c 2,68,-1
 577 40 l 2,69,70
 575 23 575 23 562.5 11.5 c 128,-1,71
 550 0 550 0 532 0 c 2,0,-1
169 859 m 128,-1,73
 169 881 169 881 184 896 c 128,-1,74
 199 911 199 911 221 911 c 128,-1,75
 243 911 243 911 258 896 c 128,-1,76
 273 881 273 881 273 859 c 128,-1,77
 273 837 273 837 258 822 c 128,-1,78
 243 807 243 807 221 807 c 128,-1,79
 199 807 199 807 184 822 c 128,-1,72
 169 837 169 837 169 859 c 128,-1,73
360 859 m 128,-1,81
 360 881 360 881 375 896 c 128,-1,82
 390 911 390 911 412 911 c 128,-1,83
 434 911 434 911 449 896 c 128,-1,84
 464 881 464 881 464 859 c 128,-1,85
 464 837 464 837 449 822 c 128,-1,86
 434 807 434 807 412 807 c 128,-1,87
 390 807 390 807 375 822 c 128,-1,80
 360 837 360 837 360 859 c 128,-1,81
EndSplineSet
EndChar

StartChar: Iacute
Encoding: 205 205 142
Width: 317
GlyphClass: 2
Flags: W
LayerCount: 2
Fore
SplineSet
61 -4 m 2,0,1
 47 -4 47 -4 47 8.5 c 128,-1,2
 47 21 47 21 58 23 c 2,3,-1
 75 25 l 2,4,5
 116 30 116 30 116 66 c 2,6,-1
 116 634 l 2,7,8
 116 670 116 670 70 674 c 2,9,-1
 41 677 l 2,10,11
 30 679 30 679 30 690 c 0,12,13
 30 704 30 704 44 704 c 2,14,-1
 157 700 l 1,15,-1
 256 704 l 2,16,17
 271 704 271 704 271 692 c 0,18,19
 271 678 271 678 258 677 c 1,20,-1
 241 674 l 2,21,22
 201 667 201 667 201 634 c 2,23,-1
 201 66 l 2,24,25
 201 48 201 48 214 37.5 c 128,-1,26
 227 27 227 27 246 25 c 2,27,-1
 275 23 l 2,28,29
 287 23 287 23 287 10 c 0,30,31
 287 4 287 4 282.5 0 c 128,-1,32
 278 -4 278 -4 273 -4 c 2,33,-1
 160 0 l 1,34,-1
 61 -4 l 2,0,1
222 934 m 2,35,36
 232 943 232 943 246.5 943 c 128,-1,37
 261 943 261 943 273.5 928.5 c 128,-1,38
 286 914 286 914 286 894.5 c 128,-1,39
 286 875 286 875 267 865 c 2,40,-1
 89 778 l 1,41,-1
 71 802 l 1,42,-1
 222 934 l 2,35,36
EndSplineSet
EndChar

StartChar: Idieresis
Encoding: 207 207 144
Width: 317
GlyphClass: 2
Flags: W
LayerCount: 2
Fore
SplineSet
61 -4 m 2,0,1
 47 -4 47 -4 47 8.5 c 128,-1,2
 47 21 47 21 58 23 c 2,3,-1
 75 25 l 2,4,5
 116 30 116 30 116 66 c 2,6,-1
 116 634 l 2,7,8
 116 670 116 670 70 674 c 2,9,-1
 41 677 l 2,10,11
 30 679 30 679 30 690 c 0,12,13
 30 704 30 704 44 704 c 2,14,-1
 157 700 l 1,15,-1
 256 704 l 2,16,17
 271 704 271 704 271 692 c 0,18,19
 271 678 271 678 258 677 c 1,20,-1
 241 674 l 2,21,22
 201 667 201 667 201 634 c 2,23,-1
 201 66 l 2,24,25
 201 48 201 48 214 37.5 c 128,-1,26
 227 27 227 27 246 25 c 2,27,-1
 275 23 l 2,28,29
 287 23 287 23 287 10 c 0,30,31
 287 4 287 4 282.5 0 c 128,-1,32
 278 -4 278 -4 273 -4 c 2,33,-1
 160 0 l 1,34,-1
 61 -4 l 2,0,1
11 859 m 128,-1,36
 11 881 11 881 26 896 c 128,-1,37
 41 911 41 911 63 911 c 128,-1,38
 85 911 85 911 100 896 c 128,-1,39
 115 881 115 881 115 859 c 128,-1,40
 115 837 115 837 100 822 c 128,-1,41
 85 807 85 807 63 807 c 128,-1,42
 41 807 41 807 26 822 c 128,-1,35
 11 837 11 837 11 859 c 128,-1,36
202 859 m 128,-1,44
 202 881 202 881 217 896 c 128,-1,45
 232 911 232 911 254 911 c 128,-1,46
 276 911 276 911 291 896 c 128,-1,47
 306 881 306 881 306 859 c 128,-1,48
 306 837 306 837 291 822 c 128,-1,49
 276 807 276 807 254 807 c 128,-1,50
 232 807 232 807 217 822 c 128,-1,43
 202 837 202 837 202 859 c 128,-1,44
EndSplineSet
EndChar

StartChar: Eth
Encoding: 208 208 145
Width: 741
GlyphClass: 2
Flags: W
LayerCount: 2
Fore
SplineSet
43 317 m 2,0,-1
 116 317 l 1,1,-1
 116 634 l 2,2,3
 116 670 116 670 70 674 c 2,4,-1
 41 677 l 2,5,6
 30 679 30 679 30 690 c 0,7,8
 30 704 30 704 44 704 c 2,9,-1
 169 700 l 1,10,-1
 341 700 l 2,11,12
 501 700 501 700 596 607.5 c 128,-1,13
 691 515 691 515 691 362 c 128,-1,14
 691 209 691 209 592.5 104.5 c 128,-1,15
 494 0 494 0 341 0 c 2,16,-1
 169 0 l 1,17,-1
 44 -5 l 2,18,19
 30 -5 30 -5 30 8.5 c 128,-1,20
 30 22 30 22 41 22 c 2,21,-1
 70 24 l 2,22,23
 90 26 90 26 103 36.5 c 128,-1,24
 116 47 116 47 116 65 c 2,25,-1
 116 268 l 1,26,-1
 43 268 l 2,27,28
 31 268 31 268 31 279 c 2,29,-1
 31 306 l 2,30,31
 31 317 31 317 43 317 c 2,0,-1
538 550 m 0,32,33
 508 598 508 598 457 626 c 128,-1,34
 406 654 406 654 340 654 c 2,35,-1
 250 654 l 2,36,37
 228 654 228 654 214.5 642 c 128,-1,38
 201 630 201 630 201 607 c 2,39,-1
 201 317 l 1,40,-1
 343 317 l 2,41,42
 355 317 355 317 355 306 c 2,43,-1
 355 279 l 2,44,45
 355 268 355 268 343 268 c 2,46,-1
 201 268 l 1,47,-1
 201 92 l 2,48,49
 201 71 201 71 214.5 58.5 c 128,-1,50
 228 46 228 46 250 46 c 2,51,-1
 345 46 l 2,52,53
 460 46 460 46 529 125 c 128,-1,54
 598 204 598 204 598 330 c 128,-1,55
 598 456 598 456 538 550 c 0,32,33
EndSplineSet
EndChar

StartChar: Oacute
Encoding: 211 211 148
Width: 800
GlyphClass: 2
Flags: W
LayerCount: 2
Fore
SplineSet
654.5 610.5 m 128,-1,1
 750 510 750 510 750 352 c 128,-1,2
 750 194 750 194 652.5 91.5 c 128,-1,3
 555 -11 555 -11 399.5 -11 c 128,-1,4
 244 -11 244 -11 147 91 c 128,-1,5
 50 193 50 193 50 349.5 c 128,-1,6
 50 506 50 506 147 608.5 c 128,-1,7
 244 711 244 711 401.5 711 c 128,-1,0
 559 711 559 711 654.5 610.5 c 128,-1,1
598 554 m 0,8,9
 569 605 569 605 518 635 c 128,-1,10
 467 665 467 665 399 665 c 0,11,12
 277 665 277 665 210.5 590.5 c 128,-1,13
 144 516 144 516 144 388 c 0,14,15
 144 255 144 255 204 150 c 0,16,17
 233 98 233 98 285 66.5 c 128,-1,18
 337 35 337 35 404 35 c 0,19,20
 523 35 523 35 589.5 113 c 128,-1,21
 656 191 656 191 656 323 c 128,-1,22
 656 455 656 455 598 554 c 0,8,9
443 934 m 2,23,24
 453 943 453 943 467.5 943 c 128,-1,25
 482 943 482 943 494.5 928.5 c 128,-1,26
 507 914 507 914 507 894.5 c 128,-1,27
 507 875 507 875 488 865 c 2,28,-1
 310 778 l 1,29,-1
 292 802 l 1,30,-1
 443 934 l 2,23,24
EndSplineSet
EndChar

StartChar: Otilde
Encoding: 213 213 150
Width: 800
GlyphClass: 2
Flags: W
LayerCount: 2
Fore
SplineSet
654.5 610.5 m 128,-1,1
 750 510 750 510 750 352 c 128,-1,2
 750 194 750 194 652.5 91.5 c 128,-1,3
 555 -11 555 -11 399.5 -11 c 128,-1,4
 244 -11 244 -11 147 91 c 128,-1,5
 50 193 50 193 50 349.5 c 128,-1,6
 50 506 50 506 147 608.5 c 128,-1,7
 244 711 244 711 401.5 711 c 128,-1,0
 559 711 559 711 654.5 610.5 c 128,-1,1
598 554 m 0,8,9
 569 605 569 605 518 635 c 128,-1,10
 467 665 467 665 399 665 c 0,11,12
 277 665 277 665 210.5 590.5 c 128,-1,13
 144 516 144 516 144 388 c 0,14,15
 144 255 144 255 204 150 c 0,16,17
 233 98 233 98 285 66.5 c 128,-1,18
 337 35 337 35 404 35 c 0,19,20
 523 35 523 35 589.5 113 c 128,-1,21
 656 191 656 191 656 323 c 128,-1,22
 656 455 656 455 598 554 c 0,8,9
463 810 m 0,23,24
 436 810 436 810 391 833 c 128,-1,25
 346 856 346 856 320.5 856 c 128,-1,26
 295 856 295 856 279 844 c 128,-1,27
 263 832 263 832 258 820 c 2,28,-1
 253 808 l 1,29,-1
 221 823 l 1,30,31
 226 849 226 849 256 882 c 128,-1,32
 286 915 286 915 337 915 c 0,33,34
 366 915 366 915 415 892 c 128,-1,35
 464 869 464 869 484.5 869 c 128,-1,36
 505 869 505 869 521 881 c 128,-1,37
 537 893 537 893 542 905 c 2,38,-1
 547 917 l 1,39,-1
 579 902 l 1,40,41
 574 876 574 876 544 843 c 128,-1,42
 514 810 514 810 463 810 c 0,23,24
EndSplineSet
EndChar

StartChar: multiply
Encoding: 215 215 152
Width: 618
GlyphClass: 2
Flags: W
LayerCount: 2
Fore
SplineSet
60 86 m 128,-1,1
 60 90 60 90 64 94 c 2,2,-1
 265 295 l 1,3,-1
 64 496 l 2,4,5
 60 500 60 500 60 504 c 128,-1,6
 60 508 60 508 64 512 c 2,7,-1
 92 540 l 2,8,9
 96 544 96 544 100 544 c 1,10,-1
 108 540 l 1,11,-1
 309 339 l 1,12,-1
 510 540 l 2,13,14
 514 544 514 544 518 544 c 1,15,-1
 526 540 l 1,16,-1
 554 512 l 2,17,18
 558 508 558 508 558 504 c 128,-1,19
 558 500 558 500 554 496 c 2,20,-1
 353 295 l 1,21,-1
 554 94 l 2,22,23
 558 90 558 90 558 86 c 128,-1,24
 558 82 558 82 554 78 c 2,25,-1
 526 50 l 2,26,27
 522 46 522 46 518 46 c 1,28,-1
 510 50 l 1,29,-1
 309 251 l 1,30,-1
 108 50 l 2,31,32
 104 46 104 46 100 46 c 1,33,-1
 92 50 l 1,34,-1
 64 78 l 2,35,0
 60 82 60 82 60 86 c 128,-1,1
EndSplineSet
EndChar

StartChar: Oslash
Encoding: 216 216 153
Width: 800
GlyphClass: 2
Flags: W
LayerCount: 2
Fore
SplineSet
666 598 m 1,0,1
 750 500 750 500 750 347 c 128,-1,2
 750 194 750 194 652.5 91.5 c 128,-1,3
 555 -11 555 -11 408.5 -11 c 128,-1,4
 262 -11 262 -11 169 69 c 1,5,-1
 116 12 l 2,6,7
 104 0 104 0 96 0 c 2,8,-1
 54 0 l 2,9,10
 47 0 47 0 47 6 c 0,11,12
 47 9 47 9 50 12 c 2,13,-1
 135 103 l 1,14,15
 50 204 50 204 50 355 c 128,-1,16
 50 506 50 506 147 608.5 c 128,-1,17
 244 711 244 711 400 711 c 0,18,19
 538 711 538 711 631 632 c 1,20,-1
 684 688 l 2,21,22
 696 700 696 700 704 700 c 2,23,-1
 746 700 l 2,24,25
 753 700 753 700 753 694 c 0,26,27
 753 691 753 691 750 688 c 2,28,-1
 666 598 l 1,0,1
210.5 590.5 m 128,-1,30
 144 516 144 516 144 387.5 c 128,-1,31
 144 259 144 259 194 166 c 1,32,-1
 581 578 l 1,33,34
 514 665 514 665 395.5 665 c 128,-1,29
 277 665 277 665 210.5 590.5 c 128,-1,30
589.5 113 m 128,-1,36
 656 191 656 191 656 317.5 c 128,-1,37
 656 444 656 444 608 537 c 1,38,-1
 221 124 l 1,39,40
 289 35 289 35 406 35 c 128,-1,35
 523 35 523 35 589.5 113 c 128,-1,36
EndSplineSet
EndChar

StartChar: Uacute
Encoding: 218 218 155
Width: 773
GlyphClass: 2
Flags: W
LayerCount: 2
Fore
SplineSet
116 257 m 2,0,-1
 116 634 l 2,1,2
 116 670 116 670 70 674 c 2,3,-1
 41 677 l 2,4,5
 30 679 30 679 30 690 c 0,6,7
 30 704 30 704 44 704 c 2,8,-1
 157 700 l 1,9,-1
 256 704 l 2,10,11
 271 704 271 704 271 692 c 0,12,13
 271 678 271 678 258 677 c 1,14,-1
 241 674 l 2,15,16
 201 667 201 667 201 634 c 2,17,-1
 201 256 l 2,18,19
 201 163 201 163 257 111 c 128,-1,20
 313 59 313 59 404.5 59 c 128,-1,21
 496 59 496 59 552.5 112 c 128,-1,22
 609 165 609 165 609 256 c 2,23,-1
 609 634 l 2,24,25
 609 667 609 667 569 674 c 2,26,-1
 552 677 l 2,27,28
 539 679 539 679 539 691 c 128,-1,29
 539 703 539 703 554 703 c 2,30,-1
 632 700 l 1,31,-1
 729 703 l 2,32,33
 743 703 743 703 743 691 c 128,-1,34
 743 679 743 679 732 677 c 2,35,-1
 703 674 l 2,36,37
 657 669 657 669 657 634 c 2,38,-1
 657 257 l 2,39,40
 657 134 657 134 581.5 61.5 c 128,-1,41
 506 -11 506 -11 388 -11 c 128,-1,42
 270 -11 270 -11 193 64 c 128,-1,43
 116 139 116 139 116 257 c 2,0,-1
500 934 m 2,44,45
 510 943 510 943 524.5 943 c 128,-1,46
 539 943 539 943 551.5 928.5 c 128,-1,47
 564 914 564 914 564 894.5 c 128,-1,48
 564 875 564 875 545 865 c 2,49,-1
 367 778 l 1,50,-1
 349 802 l 1,51,-1
 500 934 l 2,44,45
EndSplineSet
EndChar

StartChar: Udieresis
Encoding: 220 220 157
Width: 773
GlyphClass: 2
Flags: W
LayerCount: 2
Fore
SplineSet
116 257 m 2,0,-1
 116 634 l 2,1,2
 116 670 116 670 70 674 c 2,3,-1
 41 677 l 2,4,5
 30 679 30 679 30 690 c 0,6,7
 30 704 30 704 44 704 c 2,8,-1
 157 700 l 1,9,-1
 256 704 l 2,10,11
 271 704 271 704 271 692 c 0,12,13
 271 678 271 678 258 677 c 1,14,-1
 241 674 l 2,15,16
 201 667 201 667 201 634 c 2,17,-1
 201 256 l 2,18,19
 201 163 201 163 257 111 c 128,-1,20
 313 59 313 59 404.5 59 c 128,-1,21
 496 59 496 59 552.5 112 c 128,-1,22
 609 165 609 165 609 256 c 2,23,-1
 609 634 l 2,24,25
 609 667 609 667 569 674 c 2,26,-1
 552 677 l 2,27,28
 539 679 539 679 539 691 c 128,-1,29
 539 703 539 703 554 703 c 2,30,-1
 632 700 l 1,31,-1
 729 703 l 2,32,33
 743 703 743 703 743 691 c 128,-1,34
 743 679 743 679 732 677 c 2,35,-1
 703 674 l 2,36,37
 657 669 657 669 657 634 c 2,38,-1
 657 257 l 2,39,40
 657 134 657 134 581.5 61.5 c 128,-1,41
 506 -11 506 -11 388 -11 c 128,-1,42
 270 -11 270 -11 193 64 c 128,-1,43
 116 139 116 139 116 257 c 2,0,-1
254 859 m 128,-1,45
 254 881 254 881 269 896 c 128,-1,46
 284 911 284 911 306 911 c 128,-1,47
 328 911 328 911 343 896 c 128,-1,48
 358 881 358 881 358 859 c 128,-1,49
 358 837 358 837 343 822 c 128,-1,50
 328 807 328 807 306 807 c 128,-1,51
 284 807 284 807 269 822 c 128,-1,44
 254 837 254 837 254 859 c 128,-1,45
445 859 m 128,-1,53
 445 881 445 881 460 896 c 128,-1,54
 475 911 475 911 497 911 c 128,-1,55
 519 911 519 911 534 896 c 128,-1,56
 549 881 549 881 549 859 c 128,-1,57
 549 837 549 837 534 822 c 128,-1,58
 519 807 519 807 497 807 c 128,-1,59
 475 807 475 807 460 822 c 128,-1,52
 445 837 445 837 445 859 c 128,-1,53
EndSplineSet
EndChar

StartChar: Yacute
Encoding: 221 221 158
Width: 712
GlyphClass: 2
Flags: W
LayerCount: 2
Fore
SplineSet
703 703 m 2,0,1
 717 703 717 703 717 691 c 128,-1,2
 717 679 717 679 706 677 c 2,3,-1
 677 674 l 2,4,5
 644 671 644 671 620 634 c 2,6,-1
 425 322 l 2,7,8
 413 301 413 301 411 275 c 1,9,-1
 411 66 l 2,10,11
 411 48 411 48 424 37.5 c 128,-1,12
 437 27 437 27 456 25 c 2,13,-1
 485 23 l 2,14,15
 497 23 497 23 497 10 c 0,16,17
 497 4 497 4 492.5 0 c 128,-1,18
 488 -4 488 -4 483 -4 c 2,19,-1
 370 0 l 1,20,-1
 270 -4 l 2,21,22
 256 -4 256 -4 256 8.5 c 128,-1,23
 256 21 256 21 267 23 c 2,24,-1
 284 25 l 2,25,26
 325 30 325 30 325 66 c 2,27,-1
 325 261 l 2,28,29
 325 280 325 280 316 296 c 1,30,-1
 98 634 l 2,31,32
 74 671 74 671 40 674 c 2,33,-1
 11 677 l 2,34,35
 0 679 0 679 0 691 c 128,-1,36
 0 703 0 703 14 703 c 2,37,-1
 133 700 l 1,38,-1
 239 702 l 2,39,40
 254 702 254 702 254 689 c 128,-1,41
 254 676 254 676 242 675 c 2,42,-1
 223 673 l 2,43,44
 205 671 205 671 199.5 658 c 128,-1,45
 194 645 194 645 202 634 c 1,46,-1
 376 348 l 2,47,48
 380 341 380 341 385 341 c 128,-1,49
 390 341 390 341 394 346 c 2,50,-1
 565 634 l 1,51,52
 573 645 573 645 567.5 657.5 c 128,-1,53
 562 670 562 670 544 673 c 1,54,-1
 525 675 l 2,55,56
 511 677 511 677 513 690 c 0,57,58
 514 702 514 702 528 702 c 2,59,-1
 606 700 l 1,60,-1
 703 703 l 2,0,1
459 934 m 2,61,62
 469 943 469 943 483.5 943 c 128,-1,63
 498 943 498 943 510.5 928.5 c 128,-1,64
 523 914 523 914 523 894.5 c 128,-1,65
 523 875 523 875 504 865 c 2,66,-1
 326 778 l 1,67,-1
 308 802 l 1,68,-1
 459 934 l 2,61,62
EndSplineSet
EndChar

StartChar: Thorn
Encoding: 222 222 159
Width: 612
GlyphClass: 2
Flags: W
LayerCount: 2
Fore
SplineSet
470 380 m 0,0,1
 470 512 470 512 297 512 c 2,2,-1
 237 512 l 2,3,4
 197 512 197 512 197 472 c 2,5,-1
 197 258 l 2,6,7
 197 245 197 245 208 245 c 2,8,-1
 297 245 l 2,9,10
 382 245 382 245 426 279.5 c 128,-1,11
 470 314 470 314 470 380 c 0,0,1
112 66 m 2,12,-1
 112 634 l 2,13,14
 112 672 112 672 71 675 c 2,15,-1
 42 677 l 2,16,17
 30 678 30 678 30 692 c 0,18,19
 30 704 30 704 45 704 c 2,20,-1
 156 700 l 1,21,-1
 281 704 l 2,22,23
 295 704 295 704 295 690.5 c 128,-1,24
 295 677 295 677 284 677 c 2,25,-1
 242 675 l 2,26,27
 223 674 223 674 210 663 c 128,-1,28
 197 652 197 652 197 634 c 2,29,-1
 197 567 l 2,30,31
 197 555 197 555 212 555 c 2,32,-1
 318 556 l 2,33,34
 321 556 321 556 323 556 c 0,35,36
 437 556 437 556 499.5 512 c 128,-1,37
 562 468 562 468 562 382.5 c 128,-1,38
 562 297 562 297 500.5 248 c 128,-1,39
 439 199 439 199 330 199 c 2,40,-1
 212 199 l 2,41,42
 197 199 197 199 197 187 c 2,43,-1
 197 66 l 2,44,45
 197 48 197 48 210 37 c 128,-1,46
 223 26 223 26 242 25 c 2,47,-1
 284 23 l 2,48,49
 295 23 295 23 295 9.5 c 128,-1,50
 295 -4 295 -4 281 -4 c 2,51,-1
 156 0 l 1,52,-1
 45 -4 l 2,53,54
 30 -4 30 -4 30 8 c 0,55,56
 30 22 30 22 42 23 c 2,57,-1
 71 25 l 2,58,59
 112 28 112 28 112 66 c 2,12,-1
EndSplineSet
EndChar

StartChar: germandbls
Encoding: 223 223 160
Width: 620
GlyphClass: 2
Flags: W
LayerCount: 2
Fore
SplineSet
496 576 m 128,-1,1
 496 518 496 518 452 485 c 0,2,3
 434 471 434 471 416 458 c 0,4,5
 373 429 373 429 373 393.5 c 128,-1,6
 373 358 373 358 395.5 334 c 128,-1,7
 418 310 418 310 450 293 c 128,-1,8
 482 276 482 276 513.5 257 c 128,-1,9
 545 238 545 238 567.5 205.5 c 128,-1,10
 590 173 590 173 590 129 c 0,11,12
 590 66 590 66 539.5 27.5 c 128,-1,13
 489 -11 489 -11 416.5 -11 c 128,-1,14
 344 -11 344 -11 296 6 c 128,-1,15
 248 23 248 23 248 44 c 2,16,-1
 248 131 l 2,17,18
 248 149 248 149 262 149 c 128,-1,19
 276 149 276 149 280 131 c 1,20,21
 311 28 311 28 410 28 c 0,22,23
 455 28 455 28 484 50.5 c 128,-1,24
 513 73 513 73 513 107 c 128,-1,25
 513 141 513 141 491 164.5 c 128,-1,26
 469 188 469 188 438 204.5 c 128,-1,27
 407 221 407 221 376 239.5 c 128,-1,28
 345 258 345 258 323 288.5 c 128,-1,29
 301 319 301 319 301 354 c 128,-1,30
 301 389 301 389 312.5 411 c 128,-1,31
 324 433 324 433 341 448.5 c 128,-1,32
 358 464 358 464 374 480 c 0,33,34
 414 518 414 518 414 565 c 128,-1,35
 414 612 414 612 384 637.5 c 128,-1,36
 354 663 354 663 305 663 c 0,37,38
 239 663 239 663 203 618.5 c 128,-1,39
 167 574 167 574 167 494 c 2,40,-1
 167 12 l 2,41,42
 167 0 167 0 156 0 c 2,43,-1
 35 -4 l 2,44,45
 20 -4 20 -4 20 9 c 128,-1,46
 20 22 20 22 32 23 c 2,47,-1
 49 25 l 2,48,49
 89 30 89 30 89 66 c 2,50,-1
 89 430 l 2,51,52
 89 551 89 551 149.5 631 c 128,-1,53
 210 711 210 711 321 711 c 0,54,55
 400 711 400 711 448 672.5 c 128,-1,0
 496 634 496 634 496 576 c 128,-1,1
EndSplineSet
EndChar

StartChar: aacute
Encoding: 225 225 162
Width: 511
GlyphClass: 2
Flags: W
LayerCount: 2
Fore
SplineSet
501 5 m 0,0,1
 501 -11 501 -11 465 -11 c 0,2,3
 403 -11 403 -11 360 38 c 0,4,5
 353 45 353 45 349.5 45 c 128,-1,6
 346 45 346 45 339 39 c 0,7,8
 274 -11 274 -11 193 -11 c 0,9,10
 136 -11 136 -11 93 24.5 c 128,-1,11
 50 60 50 60 50 116 c 0,12,13
 50 187 50 187 112 224 c 0,14,15
 167 256 167 256 284 274 c 0,16,17
 312 279 312 279 322 281 c 1,18,19
 335 282 335 282 335 295 c 2,20,-1
 335 387 l 2,21,22
 335 428 335 428 307.5 452 c 128,-1,23
 280 476 280 476 234.5 476 c 128,-1,24
 189 476 189 476 152.5 448 c 128,-1,25
 116 420 116 420 106 370 c 0,26,27
 103 355 103 355 89.5 355 c 128,-1,28
 76 355 76 355 76 370 c 2,29,-1
 76 445 l 2,30,31
 76 462 76 462 87 470 c 0,32,33
 140 511 140 511 239 511 c 128,-1,34
 338 511 338 511 378 468 c 128,-1,35
 418 425 418 425 418 357 c 2,36,-1
 418 90 l 2,37,38
 418 58 418 58 438.5 38 c 128,-1,39
 459 18 459 18 487 18 c 0,40,41
 501 18 501 18 501 5 c 0,0,1
333 98 m 2,42,-1
 333 223 l 2,43,44
 333 240 333 240 317 238 c 0,45,46
 138 216 138 216 138 128 c 0,47,48
 138 87 138 87 165 63.5 c 128,-1,49
 192 40 192 40 225.5 40 c 128,-1,50
 259 40 259 40 284.5 53 c 128,-1,51
 310 66 310 66 321.5 79 c 128,-1,52
 333 92 333 92 333 98 c 2,42,-1
279 734 m 2,53,54
 290 743 290 743 304 743 c 128,-1,55
 318 743 318 743 330.5 728.5 c 128,-1,56
 343 714 343 714 343 694.5 c 128,-1,57
 343 675 343 675 324 665 c 2,58,-1
 146 578 l 1,59,-1
 128 602 l 1,60,-1
 279 734 l 2,53,54
EndSplineSet
EndChar

StartChar: atilde
Encoding: 227 227 164
Width: 511
GlyphClass: 2
Flags: W
LayerCount: 2
Fore
SplineSet
501 5 m 0,0,1
 501 -11 501 -11 465 -11 c 0,2,3
 403 -11 403 -11 360 38 c 0,4,5
 353 45 353 45 349.5 45 c 128,-1,6
 346 45 346 45 339 39 c 0,7,8
 274 -11 274 -11 193 -11 c 0,9,10
 136 -11 136 -11 93 24.5 c 128,-1,11
 50 60 50 60 50 116 c 0,12,13
 50 187 50 187 112 224 c 0,14,15
 167 256 167 256 284 274 c 0,16,17
 312 279 312 279 322 281 c 1,18,19
 335 282 335 282 335 295 c 2,20,-1
 335 387 l 2,21,22
 335 428 335 428 307.5 452 c 128,-1,23
 280 476 280 476 234.5 476 c 128,-1,24
 189 476 189 476 152.5 448 c 128,-1,25
 116 420 116 420 106 370 c 0,26,27
 103 355 103 355 89.5 355 c 128,-1,28
 76 355 76 355 76 370 c 2,29,-1
 76 445 l 2,30,31
 76 462 76 462 87 470 c 0,32,33
 140 511 140 511 239 511 c 128,-1,34
 338 511 338 511 378 468 c 128,-1,35
 418 425 418 425 418 357 c 2,36,-1
 418 90 l 2,37,38
 418 58 418 58 438.5 38 c 128,-1,39
 459 18 459 18 487 18 c 0,40,41
 501 18 501 18 501 5 c 0,0,1
333 98 m 2,42,-1
 333 223 l 2,43,44
 333 240 333 240 317 238 c 0,45,46
 138 216 138 216 138 128 c 0,47,48
 138 87 138 87 165 63.5 c 128,-1,49
 192 40 192 40 225.5 40 c 128,-1,50
 259 40 259 40 284.5 53 c 128,-1,51
 310 66 310 66 321.5 79 c 128,-1,52
 333 92 333 92 333 98 c 2,42,-1
313 610 m 0,53,54
 286 610 286 610 241 633 c 128,-1,55
 196 656 196 656 170.5 656 c 128,-1,56
 145 656 145 656 129 644 c 128,-1,57
 113 632 113 632 108 620 c 2,58,-1
 103 608 l 1,59,-1
 71 623 l 1,60,61
 76 649 76 649 106 682 c 128,-1,62
 136 715 136 715 187 715 c 0,63,64
 216 715 216 715 265 692 c 128,-1,65
 314 669 314 669 334.5 669 c 128,-1,66
 355 669 355 669 371 681 c 128,-1,67
 387 693 387 693 392 705 c 2,68,-1
 397 717 l 1,69,-1
 429 702 l 1,70,71
 424 676 424 676 394 643 c 128,-1,72
 364 610 364 610 313 610 c 0,53,54
EndSplineSet
EndChar

StartChar: aring
Encoding: 229 229 166
Width: 511
GlyphClass: 2
Flags: W
LayerCount: 2
Fore
SplineSet
501 5 m 0,0,1
 501 -11 501 -11 465 -11 c 0,2,3
 403 -11 403 -11 360 38 c 0,4,5
 353 45 353 45 349.5 45 c 128,-1,6
 346 45 346 45 339 39 c 0,7,8
 274 -11 274 -11 193 -11 c 0,9,10
 136 -11 136 -11 93 24.5 c 128,-1,11
 50 60 50 60 50 116 c 0,12,13
 50 187 50 187 112 224 c 0,14,15
 167 256 167 256 284 274 c 0,16,17
 312 279 312 279 322 281 c 1,18,19
 335 282 335 282 335 295 c 2,20,-1
 335 387 l 2,21,22
 335 428 335 428 307.5 452 c 128,-1,23
 280 476 280 476 234.5 476 c 128,-1,24
 189 476 189 476 152.5 448 c 128,-1,25
 116 420 116 420 106 370 c 0,26,27
 103 355 103 355 89.5 355 c 128,-1,28
 76 355 76 355 76 370 c 2,29,-1
 76 445 l 2,30,31
 76 462 76 462 87 470 c 0,32,33
 140 511 140 511 239 511 c 128,-1,34
 338 511 338 511 378 468 c 128,-1,35
 418 425 418 425 418 357 c 2,36,-1
 418 90 l 2,37,38
 418 58 418 58 438.5 38 c 128,-1,39
 459 18 459 18 487 18 c 0,40,41
 501 18 501 18 501 5 c 0,0,1
333 98 m 2,42,-1
 333 223 l 2,43,44
 333 240 333 240 317 238 c 0,45,46
 138 216 138 216 138 128 c 0,47,48
 138 87 138 87 165 63.5 c 128,-1,49
 192 40 192 40 225.5 40 c 128,-1,50
 259 40 259 40 284.5 53 c 128,-1,51
 310 66 310 66 321.5 79 c 128,-1,52
 333 92 333 92 333 98 c 2,42,-1
141 682 m 128,-1,54
 141 725 141 725 171 755 c 128,-1,55
 201 785 201 785 245 785 c 128,-1,56
 289 785 289 785 319 755 c 128,-1,57
 349 725 349 725 349 682 c 128,-1,58
 349 639 349 639 319 609 c 128,-1,59
 289 579 289 579 245 579 c 128,-1,60
 201 579 201 579 171 609 c 128,-1,53
 141 639 141 639 141 682 c 128,-1,54
190 682 m 128,-1,62
 190 658 190 658 205.5 641.5 c 128,-1,63
 221 625 221 625 245 625 c 128,-1,64
 269 625 269 625 284 641.5 c 128,-1,65
 299 658 299 658 299 682 c 128,-1,66
 299 706 299 706 284 722.5 c 128,-1,67
 269 739 269 739 245 739 c 128,-1,68
 221 739 221 739 205.5 722.5 c 128,-1,61
 190 706 190 706 190 682 c 128,-1,62
EndSplineSet
EndChar

StartChar: ae
Encoding: 230 230 167
Width: 826
GlyphClass: 2
Flags: W
LayerCount: 2
Fore
SplineSet
781 316 m 0,0,1
 781 256 781 256 727 256 c 2,2,-1
 439 256 l 2,3,4
 427 256 427 256 427 239 c 0,5,6
 429 147 429 147 480.5 93.5 c 128,-1,7
 532 40 532 40 611.5 40 c 128,-1,8
 691 40 691 40 729 71 c 0,9,10
 742 81 742 81 753 70 c 128,-1,11
 764 59 764 59 750 45 c 0,12,13
 694 -11 694 -11 596 -11 c 0,14,15
 456 -11 456 -11 386 79 c 1,16,17
 331 26 331 26 286 7.5 c 128,-1,18
 241 -11 241 -11 188.5 -11 c 128,-1,19
 136 -11 136 -11 93 24.5 c 128,-1,20
 50 60 50 60 50 116 c 0,21,22
 50 187 50 187 112 224 c 0,23,24
 167 256 167 256 284 274 c 0,25,26
 312 279 312 279 322 281 c 1,27,28
 335 282 335 282 335 295 c 2,29,-1
 335 387 l 2,30,31
 335 428 335 428 307.5 452 c 128,-1,32
 280 476 280 476 234.5 476 c 128,-1,33
 189 476 189 476 152.5 448 c 128,-1,34
 116 420 116 420 106 370 c 0,35,36
 103 355 103 355 89.5 355 c 128,-1,37
 76 355 76 355 76 370 c 2,38,-1
 76 445 l 2,39,40
 76 462 76 462 87 470 c 0,41,42
 140 511 140 511 252 511 c 128,-1,43
 364 511 364 511 402 434 c 1,44,45
 471 511 471 511 567 511 c 128,-1,46
 663 511 663 511 722 455.5 c 128,-1,47
 781 400 781 400 781 316 c 0,0,1
691 329 m 0,48,49
 691 389 691 389 658.5 430.5 c 128,-1,50
 626 472 626 472 567.5 472 c 128,-1,51
 509 472 509 472 468 424 c 128,-1,52
 427 376 427 376 427 314 c 0,53,54
 427 298 427 298 440 298 c 2,55,-1
 660 298 l 2,56,57
 691 298 691 298 691 329 c 0,48,49
333 98 m 2,58,-1
 333 223 l 2,59,60
 333 238 333 238 320 238 c 0,61,62
 319 238 319 238 317 238 c 0,63,64
 138 216 138 216 138 128 c 0,65,66
 138 87 138 87 165 63.5 c 128,-1,67
 192 40 192 40 225.5 40 c 128,-1,68
 259 40 259 40 284.5 53 c 128,-1,69
 310 66 310 66 321.5 79 c 128,-1,70
 333 92 333 92 333 98 c 2,58,-1
EndSplineSet
EndChar

StartChar: eacute
Encoding: 233 233 170
Width: 542
GlyphClass: 2
Flags: W
LayerCount: 2
Fore
SplineSet
497 316 m 0,0,1
 497 256 497 256 443 256 c 2,2,-1
 155 256 l 2,3,4
 143 256 143 256 143 239 c 0,5,6
 145 147 145 147 196.5 93.5 c 128,-1,7
 248 40 248 40 327.5 40 c 128,-1,8
 407 40 407 40 445 71 c 0,9,10
 458 81 458 81 469 70 c 128,-1,11
 480 59 480 59 466 45 c 0,12,13
 410 -11 410 -11 312 -11 c 0,14,15
 189 -11 189 -11 119.5 59.5 c 128,-1,16
 50 130 50 130 50 256 c 0,17,18
 50 358 50 358 119 434.5 c 128,-1,19
 188 511 188 511 283.5 511 c 128,-1,20
 379 511 379 511 438 455.5 c 128,-1,21
 497 400 497 400 497 316 c 0,0,1
407 329 m 0,22,23
 407 389 407 389 374.5 430.5 c 128,-1,24
 342 472 342 472 283.5 472 c 128,-1,25
 225 472 225 472 184 424 c 128,-1,26
 143 376 143 376 143 314 c 0,27,28
 143 298 143 298 156 298 c 2,29,-1
 376 298 l 2,30,31
 407 298 407 298 407 329 c 0,22,23
314 734 m 2,32,33
 324 743 324 743 338.5 743 c 128,-1,34
 353 743 353 743 365.5 728.5 c 128,-1,35
 378 714 378 714 378 694.5 c 128,-1,36
 378 675 378 675 359 665 c 2,37,-1
 181 578 l 1,38,-1
 163 602 l 1,39,-1
 314 734 l 2,32,33
EndSplineSet
EndChar

StartChar: edieresis
Encoding: 235 235 172
Width: 542
GlyphClass: 2
Flags: W
LayerCount: 2
Fore
SplineSet
497 316 m 0,0,1
 497 256 497 256 443 256 c 2,2,-1
 155 256 l 2,3,4
 143 256 143 256 143 239 c 0,5,6
 145 147 145 147 196.5 93.5 c 128,-1,7
 248 40 248 40 327.5 40 c 128,-1,8
 407 40 407 40 445 71 c 0,9,10
 458 81 458 81 469 70 c 128,-1,11
 480 59 480 59 466 45 c 0,12,13
 410 -11 410 -11 312 -11 c 0,14,15
 189 -11 189 -11 119.5 59.5 c 128,-1,16
 50 130 50 130 50 256 c 0,17,18
 50 358 50 358 119 434.5 c 128,-1,19
 188 511 188 511 283.5 511 c 128,-1,20
 379 511 379 511 438 455.5 c 128,-1,21
 497 400 497 400 497 316 c 0,0,1
407 329 m 0,22,23
 407 389 407 389 374.5 430.5 c 128,-1,24
 342 472 342 472 283.5 472 c 128,-1,25
 225 472 225 472 184 424 c 128,-1,26
 143 376 143 376 143 314 c 0,27,28
 143 298 143 298 156 298 c 2,29,-1
 376 298 l 2,30,31
 407 298 407 298 407 329 c 0,22,23
133 659 m 128,-1,33
 133 681 133 681 148 696 c 128,-1,34
 163 711 163 711 185 711 c 128,-1,35
 207 711 207 711 222 696 c 128,-1,36
 237 681 237 681 237 659 c 128,-1,37
 237 637 237 637 222 622 c 128,-1,38
 207 607 207 607 185 607 c 128,-1,39
 163 607 163 607 148 622 c 128,-1,32
 133 637 133 637 133 659 c 128,-1,33
324 659 m 128,-1,41
 324 681 324 681 339 696 c 128,-1,42
 354 711 354 711 376 711 c 128,-1,43
 398 711 398 711 413 696 c 128,-1,44
 428 681 428 681 428 659 c 128,-1,45
 428 637 428 637 413 622 c 128,-1,46
 398 607 398 607 376 607 c 128,-1,47
 354 607 354 607 339 622 c 128,-1,40
 324 637 324 637 324 659 c 128,-1,41
EndSplineSet
EndChar

StartChar: iacute
Encoding: 237 237 174
Width: 288
GlyphClass: 2
Flags: W
LayerCount: 2
Fore
SplineSet
241 23 m 2,0,1
 253 22 253 22 253 9 c 128,-1,2
 253 -4 253 -4 238 -4 c 2,3,-1
 143 0 l 1,4,-1
 35 -4 l 2,5,6
 20 -4 20 -4 20 9 c 128,-1,7
 20 22 20 22 32 23 c 2,8,-1
 60 25 l 2,9,10
 80 27 80 27 93 37.5 c 128,-1,11
 106 48 106 48 106 66 c 2,12,-1
 106 432 l 2,13,14
 106 452 106 452 97.5 459.5 c 128,-1,15
 89 467 89 467 70 467 c 2,16,-1
 36 467 l 2,17,18
 23 467 23 467 23 480 c 128,-1,19
 23 493 23 493 36 495 c 2,20,-1
 166 511 l 2,21,22
 184 513 184 513 184 488 c 2,23,-1
 184 66 l 2,24,25
 184 30 184 30 224 25 c 2,26,-1
 241 23 l 2,0,1
198 734 m 2,27,28
 208 743 208 743 222.5 743 c 128,-1,29
 237 743 237 743 249.5 728.5 c 128,-1,30
 262 714 262 714 262 694.5 c 128,-1,31
 262 675 262 675 243 665 c 2,32,-1
 65 578 l 1,33,-1
 47 602 l 1,34,-1
 198 734 l 2,27,28
EndSplineSet
EndChar

StartChar: idieresis
Encoding: 239 239 176
Width: 288
GlyphClass: 2
Flags: W
LayerCount: 2
Fore
SplineSet
241 23 m 2,0,1
 253 22 253 22 253 9 c 128,-1,2
 253 -4 253 -4 238 -4 c 2,3,-1
 143 0 l 1,4,-1
 35 -4 l 2,5,6
 20 -4 20 -4 20 9 c 128,-1,7
 20 22 20 22 32 23 c 2,8,-1
 60 25 l 2,9,10
 80 27 80 27 93 37.5 c 128,-1,11
 106 48 106 48 106 66 c 2,12,-1
 106 432 l 2,13,14
 106 452 106 452 97.5 459.5 c 128,-1,15
 89 467 89 467 70 467 c 2,16,-1
 36 467 l 2,17,18
 23 467 23 467 23 480 c 128,-1,19
 23 493 23 493 36 495 c 2,20,-1
 166 511 l 2,21,22
 184 513 184 513 184 488 c 2,23,-1
 184 66 l 2,24,25
 184 30 184 30 224 25 c 2,26,-1
 241 23 l 2,0,1
-3 659 m 128,-1,28
 -3 681 -3 681 12 696 c 128,-1,29
 27 711 27 711 49 711 c 128,-1,30
 71 711 71 711 86 696 c 128,-1,31
 101 681 101 681 101 659 c 128,-1,32
 101 637 101 637 86 622 c 128,-1,33
 71 607 71 607 49 607 c 128,-1,34
 27 607 27 607 12 622 c 128,-1,27
 -3 637 -3 637 -3 659 c 128,-1,28
188 659 m 128,-1,36
 188 681 188 681 203 696 c 128,-1,37
 218 711 218 711 240 711 c 128,-1,38
 262 711 262 711 277 696 c 128,-1,39
 292 681 292 681 292 659 c 128,-1,40
 292 637 292 637 277 622 c 128,-1,41
 262 607 262 607 240 607 c 128,-1,42
 218 607 218 607 203 622 c 128,-1,35
 188 637 188 637 188 659 c 128,-1,36
EndSplineSet
EndChar

StartChar: eth
Encoding: 240 240 177
Width: 606
GlyphClass: 2
Flags: W
LayerCount: 2
Fore
SplineSet
190 752 m 0,0,1
 177 760 177 760 177 773 c 128,-1,2
 177 786 177 786 186.5 793.5 c 128,-1,3
 196 801 196 801 203.5 801 c 128,-1,4
 211 801 211 801 212 800 c 0,5,6
 273 771 273 771 330 729 c 1,7,-1
 425 799 l 2,8,9
 429 802 429 802 433 802 c 128,-1,10
 437 802 437 802 442 798 c 1,11,-1
 457 776 l 2,12,13
 464 766 464 766 454 760 c 1,14,-1
 369 697 l 1,15,16
 459 616 459 616 507.5 509.5 c 128,-1,17
 556 403 556 403 556 286 c 0,18,19
 556 140 556 140 489.5 64.5 c 128,-1,20
 423 -11 423 -11 305 -11 c 128,-1,21
 187 -11 187 -11 118.5 61 c 128,-1,22
 50 133 50 133 50 249 c 128,-1,23
 50 365 50 365 120 438 c 128,-1,24
 190 511 190 511 303 511 c 0,25,26
 377 511 377 511 437 467 c 1,27,28
 413 574 413 574 319 660 c 1,29,-1
 213 582 l 1,30,31
 205 574 205 574 196 583 c 1,32,-1
 181 605 l 2,33,34
 173 615 173 615 184 621 c 1,35,-1
 281 692 l 1,36,37
 239 724 239 724 190 752 c 0,0,1
436 389 m 0,38,39
 419 427 419 427 385.5 449.5 c 128,-1,40
 352 472 352 472 304 472 c 0,41,42
 221 472 221 472 180 417 c 128,-1,43
 139 362 139 362 139 273 c 0,44,45
 139 181 139 181 171 110 c 0,46,47
 188 73 188 73 221.5 50.5 c 128,-1,48
 255 28 255 28 301 28 c 0,49,50
 386 28 386 28 426.5 83 c 128,-1,51
 467 138 467 138 467 229 c 128,-1,52
 467 320 467 320 436 389 c 0,38,39
EndSplineSet
EndChar

StartChar: oacute
Encoding: 243 243 180
Width: 606
GlyphClass: 2
Flags: W
LayerCount: 2
Fore
SplineSet
487.5 439 m 128,-1,1
 556 367 556 367 556 249.5 c 128,-1,2
 556 132 556 132 488 60.5 c 128,-1,3
 420 -11 420 -11 303.5 -11 c 128,-1,4
 187 -11 187 -11 118.5 61 c 128,-1,5
 50 133 50 133 50 249 c 128,-1,6
 50 365 50 365 120 438 c 128,-1,7
 190 511 190 511 304.5 511 c 128,-1,0
 419 511 419 511 487.5 439 c 128,-1,1
436 389 m 0,8,9
 419 427 419 427 385.5 449.5 c 128,-1,10
 352 472 352 472 304 472 c 0,11,12
 221 472 221 472 180 417 c 128,-1,13
 139 362 139 362 139 273 c 0,14,15
 139 181 139 181 171 110 c 0,16,17
 188 73 188 73 221.5 50.5 c 128,-1,18
 255 28 255 28 301 28 c 0,19,20
 386 28 386 28 426.5 83 c 128,-1,21
 467 138 467 138 467 229 c 128,-1,22
 467 320 467 320 436 389 c 0,8,9
346 734 m 2,23,24
 356 743 356 743 370.5 743 c 128,-1,25
 385 743 385 743 397.5 728.5 c 128,-1,26
 410 714 410 714 410 694.5 c 128,-1,27
 410 675 410 675 391 665 c 2,28,-1
 213 578 l 1,29,-1
 195 602 l 1,30,-1
 346 734 l 2,23,24
EndSplineSet
EndChar

StartChar: otilde
Encoding: 245 245 182
Width: 606
GlyphClass: 2
Flags: W
LayerCount: 2
Fore
SplineSet
487.5 439 m 128,-1,1
 556 367 556 367 556 249.5 c 128,-1,2
 556 132 556 132 488 60.5 c 128,-1,3
 420 -11 420 -11 303.5 -11 c 128,-1,4
 187 -11 187 -11 118.5 61 c 128,-1,5
 50 133 50 133 50 249 c 128,-1,6
 50 365 50 365 120 438 c 128,-1,7
 190 511 190 511 304.5 511 c 128,-1,0
 419 511 419 511 487.5 439 c 128,-1,1
436 389 m 0,8,9
 419 427 419 427 385.5 449.5 c 128,-1,10
 352 472 352 472 304 472 c 0,11,12
 221 472 221 472 180 417 c 128,-1,13
 139 362 139 362 139 273 c 0,14,15
 139 181 139 181 171 110 c 0,16,17
 188 73 188 73 221.5 50.5 c 128,-1,18
 255 28 255 28 301 28 c 0,19,20
 386 28 386 28 426.5 83 c 128,-1,21
 467 138 467 138 467 229 c 128,-1,22
 467 320 467 320 436 389 c 0,8,9
366 610 m 0,23,24
 339 610 339 610 294 633 c 128,-1,25
 249 656 249 656 223.5 656 c 128,-1,26
 198 656 198 656 182 644 c 128,-1,27
 166 632 166 632 161 620 c 2,28,-1
 156 608 l 1,29,-1
 124 623 l 1,30,31
 129 649 129 649 159 682 c 128,-1,32
 189 715 189 715 240 715 c 0,33,34
 269 715 269 715 318 692 c 128,-1,35
 367 669 367 669 387.5 669 c 128,-1,36
 408 669 408 669 424 681 c 128,-1,37
 440 693 440 693 445 705 c 2,38,-1
 450 717 l 1,39,-1
 482 702 l 1,40,41
 477 676 477 676 447 643 c 128,-1,42
 417 610 417 610 366 610 c 0,23,24
EndSplineSet
EndChar

StartChar: divide
Encoding: 247 247 184
Width: 674
GlyphClass: 2
Flags: W
LayerCount: 2
Fore
SplineSet
602 264 m 2,0,-1
 72 264 l 2,1,2
 60 264 60 264 60 275 c 2,3,-1
 60 315 l 2,4,5
 60 326 60 326 72 326 c 2,6,-1
 602 326 l 2,7,8
 614 326 614 326 614 315 c 2,9,-1
 614 275 l 2,10,11
 614 264 614 264 602 264 c 2,0,-1
380.5 156 m 128,-1,13
 399 138 399 138 399 112.5 c 128,-1,14
 399 87 399 87 380.5 69 c 128,-1,15
 362 51 362 51 337 51 c 128,-1,16
 312 51 312 51 294 69 c 128,-1,17
 276 87 276 87 276 112 c 128,-1,18
 276 137 276 137 294 155.5 c 128,-1,19
 312 174 312 174 337 174 c 128,-1,12
 362 174 362 174 380.5 156 c 128,-1,13
399 477 m 128,-1,21
 399 452 399 452 380.5 434 c 128,-1,22
 362 416 362 416 337 416 c 128,-1,23
 312 416 312 416 294 434 c 128,-1,24
 276 452 276 452 276 477 c 128,-1,25
 276 502 276 502 294 520.5 c 128,-1,26
 312 539 312 539 337 539 c 128,-1,27
 362 539 362 539 380.5 520.5 c 128,-1,20
 399 502 399 502 399 477 c 128,-1,21
EndSplineSet
EndChar

StartChar: oslash
Encoding: 248 248 185
Width: 606
GlyphClass: 2
Flags: W
LayerCount: 2
Fore
SplineSet
498 426 m 1,0,1
 556 355 556 355 556 243.5 c 128,-1,2
 556 132 556 132 488 60.5 c 128,-1,3
 420 -11 420 -11 311.5 -11 c 128,-1,4
 203 -11 203 -11 138 42 c 1,5,-1
 110 12 l 2,6,7
 98 0 98 0 90 0 c 2,8,-1
 54 0 l 2,9,10
 47 0 47 0 47 6 c 0,11,12
 47 9 47 9 50 12 c 2,13,-1
 107 73 l 1,14,15
 50 142 50 142 50 253.5 c 128,-1,16
 50 365 50 365 120 438 c 128,-1,17
 190 511 190 511 295 511 c 128,-1,18
 400 511 400 511 467 457 c 1,19,-1
 496 488 l 2,20,21
 508 500 508 500 516 500 c 2,22,-1
 552 500 l 2,23,24
 559 500 559 500 559 494 c 0,25,26
 559 491 559 491 556 488 c 2,27,-1
 498 426 l 1,0,1
426.5 83 m 128,-1,29
 467 138 467 138 467 223.5 c 128,-1,30
 467 309 467 309 444 369 c 1,31,-1
 183 90 l 1,32,33
 225 28 225 28 305.5 28 c 128,-1,28
 386 28 386 28 426.5 83 c 128,-1,29
180 417 m 128,-1,35
 139 362 139 362 139 276.5 c 128,-1,36
 139 191 139 191 162 131 c 1,37,-1
 423 410 l 1,38,39
 381 472 381 472 301 472 c 128,-1,34
 221 472 221 472 180 417 c 128,-1,35
EndSplineSet
EndChar

StartChar: uacute
Encoding: 250 250 187
Width: 628
GlyphClass: 2
Flags: W
LayerCount: 2
Fore
SplineSet
535 458 m 2,0,-1
 535 91 l 2,1,2
 535 59 535 59 555 39.5 c 128,-1,3
 575 20 575 20 603 20 c 0,4,5
 618 20 618 20 618 8 c 0,6,7
 618 -11 618 -11 579 -11 c 0,8,9
 520 -11 520 -11 476 38 c 0,10,11
 473 41 473 41 470 45 c 128,-1,12
 467 49 467 49 465 52 c 0,13,14
 461 57 461 57 456.5 57 c 128,-1,15
 452 57 452 57 443 49 c 0,16,17
 375 -11 375 -11 288.5 -11 c 128,-1,18
 202 -11 202 -11 150 39 c 128,-1,19
 98 89 98 89 98 181 c 2,20,-1
 98 434 l 2,21,22
 98 454 98 454 89.5 462 c 128,-1,23
 81 470 81 470 63 470 c 2,24,-1
 29 470 l 2,25,26
 24 470 24 470 19.5 474 c 128,-1,27
 15 478 15 478 15 484 c 0,28,29
 15 496 15 496 29 498 c 2,30,-1
 161 511 l 2,31,32
 164 511 164 511 166 511 c 0,33,34
 186 511 186 511 186 495 c 0,35,36
 186 493 186 493 181 483 c 128,-1,37
 176 473 176 473 176 458 c 2,38,-1
 176 165 l 2,39,40
 176 103 176 103 214.5 67.5 c 128,-1,41
 253 32 253 32 313.5 32 c 128,-1,42
 374 32 374 32 415.5 77 c 128,-1,43
 457 122 457 122 457 179 c 2,44,-1
 457 434 l 2,45,46
 457 454 457 454 448.5 462 c 128,-1,47
 440 470 440 470 422 470 c 2,48,-1
 378 470 l 2,49,50
 373 470 373 470 368.5 474 c 128,-1,51
 364 478 364 478 364 484 c 0,52,53
 364 496 364 496 378 498 c 2,54,-1
 518 511 l 2,55,56
 520 511 520 511 523 511 c 0,57,58
 543 511 543 511 543 495 c 0,59,60
 543 493 543 493 539 483 c 128,-1,61
 535 473 535 473 535 458 c 2,0,-1
377 734 m 2,62,63
 388 743 388 743 402 743 c 128,-1,64
 416 743 416 743 428.5 728.5 c 128,-1,65
 441 714 441 714 441 694.5 c 128,-1,66
 441 675 441 675 422 665 c 2,67,-1
 244 578 l 1,68,-1
 226 602 l 1,69,-1
 377 734 l 2,62,63
EndSplineSet
EndChar

StartChar: udieresis
Encoding: 252 252 189
Width: 628
GlyphClass: 2
Flags: W
LayerCount: 2
Fore
SplineSet
535 458 m 2,0,-1
 535 91 l 2,1,2
 535 59 535 59 555 39.5 c 128,-1,3
 575 20 575 20 603 20 c 0,4,5
 618 20 618 20 618 8 c 0,6,7
 618 -11 618 -11 579 -11 c 0,8,9
 520 -11 520 -11 476 38 c 0,10,11
 473 41 473 41 470 45 c 128,-1,12
 467 49 467 49 465 52 c 0,13,14
 461 57 461 57 456.5 57 c 128,-1,15
 452 57 452 57 443 49 c 0,16,17
 375 -11 375 -11 288.5 -11 c 128,-1,18
 202 -11 202 -11 150 39 c 128,-1,19
 98 89 98 89 98 181 c 2,20,-1
 98 434 l 2,21,22
 98 454 98 454 89.5 462 c 128,-1,23
 81 470 81 470 63 470 c 2,24,-1
 29 470 l 2,25,26
 24 470 24 470 19.5 474 c 128,-1,27
 15 478 15 478 15 484 c 0,28,29
 15 496 15 496 29 498 c 2,30,-1
 161 511 l 2,31,32
 164 511 164 511 166 511 c 0,33,34
 186 511 186 511 186 495 c 0,35,36
 186 493 186 493 181 483 c 128,-1,37
 176 473 176 473 176 458 c 2,38,-1
 176 165 l 2,39,40
 176 103 176 103 214.5 67.5 c 128,-1,41
 253 32 253 32 313.5 32 c 128,-1,42
 374 32 374 32 415.5 77 c 128,-1,43
 457 122 457 122 457 179 c 2,44,-1
 457 434 l 2,45,46
 457 454 457 454 448.5 462 c 128,-1,47
 440 470 440 470 422 470 c 2,48,-1
 378 470 l 2,49,50
 373 470 373 470 368.5 474 c 128,-1,51
 364 478 364 478 364 484 c 0,52,53
 364 496 364 496 378 498 c 2,54,-1
 518 511 l 2,55,56
 520 511 520 511 523 511 c 0,57,58
 543 511 543 511 543 495 c 0,59,60
 543 493 543 493 539 483 c 128,-1,61
 535 473 535 473 535 458 c 2,0,-1
146 659 m 128,-1,63
 146 681 146 681 161 696 c 128,-1,64
 176 711 176 711 198 711 c 128,-1,65
 220 711 220 711 235 696 c 128,-1,66
 250 681 250 681 250 659 c 128,-1,67
 250 637 250 637 235 622 c 128,-1,68
 220 607 220 607 198 607 c 128,-1,69
 176 607 176 607 161 622 c 128,-1,62
 146 637 146 637 146 659 c 128,-1,63
337 659 m 128,-1,71
 337 681 337 681 352 696 c 128,-1,72
 367 711 367 711 389 711 c 128,-1,73
 411 711 411 711 426 696 c 128,-1,74
 441 681 441 681 441 659 c 128,-1,75
 441 637 441 637 426 622 c 128,-1,76
 411 607 411 607 389 607 c 128,-1,77
 367 607 367 607 352 622 c 128,-1,70
 337 637 337 637 337 659 c 128,-1,71
EndSplineSet
EndChar

StartChar: thorn
Encoding: 254 254 191
Width: 621
GlyphClass: 2
Flags: W
LayerCount: 2
Fore
SplineSet
484 218 m 0,0,1
 484 338 484 338 436 404 c 128,-1,2
 388 470 388 470 316.5 470 c 128,-1,3
 245 470 245 470 209.5 431.5 c 128,-1,4
 174 393 174 393 174 350 c 2,5,-1
 174 149 l 2,6,7
 174 101 174 101 216.5 64.5 c 128,-1,8
 259 28 259 28 310 28 c 0,9,10
 390 28 390 28 437 78 c 128,-1,11
 484 128 484 128 484 218 c 0,0,1
158 800 m 0,12,13
 174 800 174 800 174 777 c 2,14,-1
 174 469 l 2,15,16
 174 457 174 457 182.5 464 c 128,-1,17
 191 471 191 471 206 480.5 c 128,-1,18
 221 490 221 490 252 500.5 c 128,-1,19
 283 511 283 511 315 511 c 0,20,21
 432 511 432 511 501.5 440.5 c 128,-1,22
 571 370 571 370 571 252 c 128,-1,23
 571 134 571 134 498 61.5 c 128,-1,24
 425 -11 425 -11 320 -11 c 0,25,26
 243 -11 243 -11 186 31 c 0,27,28
 181 35 181 35 177.5 32 c 128,-1,29
 174 29 174 29 174 22 c 2,30,-1
 174 -234 l 2,31,32
 174 -270 174 -270 214 -275 c 2,33,-1
 231 -277 l 2,34,35
 243 -278 243 -278 243 -291 c 128,-1,36
 243 -304 243 -304 228 -304 c 2,37,-1
 133 -300 l 1,38,-1
 25 -304 l 2,39,40
 10 -304 10 -304 10 -291 c 128,-1,41
 10 -278 10 -278 22 -277 c 2,42,-1
 50 -275 l 2,43,44
 70 -273 70 -273 83 -262.5 c 128,-1,45
 96 -252 96 -252 96 -234 c 2,46,-1
 96 721 l 2,47,48
 96 741 96 741 87.5 748.5 c 128,-1,49
 79 756 79 756 60 756 c 2,50,-1
 26 756 l 2,51,52
 13 756 13 756 13 769 c 128,-1,53
 13 782 13 782 26 784 c 2,54,-1
 156 800 l 2,55,56
 157 800 157 800 158 800 c 0,12,13
EndSplineSet
EndChar

StartChar: ydieresis
Encoding: 255 255 192
Width: 534
GlyphClass: 2
Flags: W
LayerCount: 2
Fore
SplineSet
413 453 m 0,0,1
 413 472 413 472 386 476 c 2,2,-1
 368 478 l 2,3,4
 356 480 356 480 356 492 c 128,-1,5
 356 504 356 504 370 504 c 2,6,-1
 448 500 l 1,7,-1
 520 504 l 2,8,9
 533 504 533 504 533 492 c 128,-1,10
 533 480 533 480 522 478 c 2,11,-1
 503 475 l 2,12,13
 470 470 470 470 456 436 c 2,14,-1
 242 -59 l 1,15,16
 173 -215 173 -215 102 -261 c 0,17,18
 86 -271 86 -271 79 -271 c 128,-1,19
 72 -271 72 -271 70 -269 c 2,20,-1
 40 -231 l 2,21,22
 36 -226 36 -226 36 -219 c 128,-1,23
 36 -212 36 -212 42 -208 c 0,24,25
 74 -192 74 -192 90 -181.5 c 128,-1,26
 106 -171 106 -171 132 -146 c 0,27,28
 176 -102 176 -102 235 32 c 0,29,30
 238 37 238 37 238 44 c 128,-1,31
 238 51 238 51 235 57 c 2,32,-1
 77 439 l 2,33,34
 66 467 66 467 31 475 c 1,35,-1
 12 478 l 2,36,37
 1 480 1 480 1 492 c 128,-1,38
 1 504 1 504 15 504 c 2,39,-1
 114 500 l 1,40,-1
 213 504 l 2,41,42
 230 504 230 504 230 492 c 128,-1,43
 230 480 230 480 217 478 c 2,44,-1
 196 476 l 2,45,46
 177 475 177 475 169 464 c 128,-1,47
 161 453 161 453 167 439 c 2,48,-1
 280 144 l 2,49,50
 281 142 281 142 284.5 141.5 c 128,-1,51
 288 141 288 141 290 146 c 2,52,-1
 410 439 l 2,53,54
 413 447 413 447 413 453 c 0,0,1
139 659 m 128,-1,56
 139 681 139 681 154 696 c 128,-1,57
 169 711 169 711 191 711 c 128,-1,58
 213 711 213 711 228 696 c 128,-1,59
 243 681 243 681 243 659 c 128,-1,60
 243 637 243 637 228 622 c 128,-1,61
 213 607 213 607 191 607 c 128,-1,62
 169 607 169 607 154 622 c 128,-1,55
 139 637 139 637 139 659 c 128,-1,56
330 659 m 128,-1,64
 330 681 330 681 345 696 c 128,-1,65
 360 711 360 711 382 711 c 128,-1,66
 404 711 404 711 419 696 c 128,-1,67
 434 681 434 681 434 659 c 128,-1,68
 434 637 434 637 419 622 c 128,-1,69
 404 607 404 607 382 607 c 128,-1,70
 360 607 360 607 345 622 c 128,-1,63
 330 637 330 637 330 659 c 128,-1,64
EndSplineSet
EndChar

StartChar: hbar
Encoding: 295 295 193
Width: 638
GlyphClass: 2
Flags: W
LayerCount: 2
Fore
SplineSet
168 800 m 0,0,1
 184 800 184 800 184 777 c 2,2,-1
 184 660 l 1,3,-1
 335 660 l 2,4,5
 347 660 347 660 347 649 c 2,6,-1
 347 622 l 2,7,8
 347 611 347 611 335 611 c 2,9,-1
 184 611 l 1,10,-1
 184 437 l 2,11,12
 184 432 184 432 187.5 432 c 128,-1,13
 191 432 191 432 197 438 c 0,14,15
 255 511 255 511 348.5 511 c 128,-1,16
 442 511 442 511 492 461.5 c 128,-1,17
 542 412 542 412 542 319 c 2,18,-1
 542 66 l 2,19,20
 542 48 542 48 555 37.5 c 128,-1,21
 568 27 568 27 588 25 c 2,22,-1
 616 23 l 2,23,24
 628 22 628 22 628 9 c 128,-1,25
 628 -4 628 -4 613 -4 c 2,26,-1
 505 0 l 1,27,-1
 415 -4 l 2,28,29
 400 -4 400 -4 400 9 c 128,-1,30
 400 22 400 22 412 23 c 2,31,-1
 424 25 l 2,32,33
 464 32 464 32 464 66 c 2,34,-1
 464 333 l 2,35,36
 464 395 464 395 429 429 c 128,-1,37
 394 463 394 463 332.5 463 c 128,-1,38
 271 463 271 463 227.5 412.5 c 128,-1,39
 184 362 184 362 184 313 c 2,40,-1
 184 66 l 2,41,42
 184 30 184 30 224 25 c 2,43,-1
 239 23 l 2,44,45
 251 22 251 22 251 9 c 128,-1,46
 251 -4 251 -4 236 -4 c 2,47,-1
 143 0 l 1,48,-1
 35 -4 l 2,49,50
 20 -4 20 -4 20 9 c 128,-1,51
 20 22 20 22 32 23 c 2,52,-1
 60 25 l 2,53,54
 80 27 80 27 93 37.5 c 128,-1,55
 106 48 106 48 106 66 c 2,56,-1
 106 611 l 1,57,-1
 35 611 l 2,58,59
 23 611 23 611 23 622 c 2,60,-1
 23 649 l 2,61,62
 23 660 23 660 35 660 c 2,63,-1
 106 660 l 1,64,-1
 106 721 l 2,65,66
 106 741 106 741 97.5 748.5 c 128,-1,67
 89 756 89 756 70 756 c 2,68,-1
 36 756 l 2,69,70
 23 756 23 756 23 769 c 128,-1,71
 23 782 23 782 36 784 c 2,72,-1
 166 800 l 2,73,74
 167 800 167 800 168 800 c 0,0,1
EndSplineSet
EndChar

StartChar: itilde
Encoding: 297 297 195
Width: 288
GlyphClass: 2
Flags: W
LayerCount: 2
Fore
SplineSet
241 23 m 2,0,1
 253 22 253 22 253 9 c 128,-1,2
 253 -4 253 -4 238 -4 c 2,3,-1
 143 0 l 1,4,-1
 35 -4 l 2,5,6
 20 -4 20 -4 20 9 c 128,-1,7
 20 22 20 22 32 23 c 2,8,-1
 60 25 l 2,9,10
 80 27 80 27 93 37.5 c 128,-1,11
 106 48 106 48 106 66 c 2,12,-1
 106 432 l 2,13,14
 106 452 106 452 97.5 459.5 c 128,-1,15
 89 467 89 467 70 467 c 2,16,-1
 36 467 l 2,17,18
 23 467 23 467 23 480 c 128,-1,19
 23 493 23 493 36 495 c 2,20,-1
 166 511 l 2,21,22
 184 513 184 513 184 488 c 2,23,-1
 184 66 l 2,24,25
 184 30 184 30 224 25 c 2,26,-1
 241 23 l 2,0,1
207 610 m 0,27,28
 180 610 180 610 135 633 c 128,-1,29
 90 656 90 656 64.5 656 c 128,-1,30
 39 656 39 656 23 644 c 128,-1,31
 7 632 7 632 2 620 c 2,32,-1
 -3 608 l 1,33,-1
 -35 623 l 1,34,35
 -30 649 -30 649 0 682 c 128,-1,36
 30 715 30 715 81 715 c 0,37,38
 110 715 110 715 159 692 c 128,-1,39
 208 669 208 669 228.5 669 c 128,-1,40
 249 669 249 669 265 681 c 128,-1,41
 281 693 281 693 286 705 c 2,42,-1
 291 717 l 1,43,-1
 323 702 l 1,44,45
 318 676 318 676 288 643 c 128,-1,46
 258 610 258 610 207 610 c 0,27,28
EndSplineSet
EndChar

StartChar: dotlessi
Encoding: 305 305 196
Width: 288
GlyphClass: 2
Flags: W
LayerCount: 2
Fore
SplineSet
168 511 m 0,0,1
 184 511 184 511 184 488 c 2,2,-1
 184 66 l 2,3,4
 184 30 184 30 224 25 c 2,5,-1
 241 23 l 2,6,7
 253 22 253 22 253 9 c 128,-1,8
 253 -4 253 -4 238 -4 c 2,9,-1
 143 0 l 1,10,-1
 35 -4 l 2,11,12
 20 -4 20 -4 20 9 c 128,-1,13
 20 22 20 22 32 23 c 2,14,-1
 60 25 l 2,15,16
 80 27 80 27 93 37.5 c 128,-1,17
 106 48 106 48 106 66 c 2,18,-1
 106 432 l 2,19,20
 106 452 106 452 97.5 459.5 c 128,-1,21
 89 467 89 467 70 467 c 2,22,-1
 36 467 l 2,23,24
 23 467 23 467 23 480 c 128,-1,25
 23 493 23 493 36 495 c 2,26,-1
 166 511 l 2,27,28
 167 511 167 511 168 511 c 0,0,1
EndSplineSet
EndChar

StartChar: IJ
Encoding: 306 306 197
Width: 634
GlyphClass: 2
Flags: W
LayerCount: 2
Fore
SplineSet
61 -4 m 2,0,1
 47 -4 47 -4 47 8.5 c 128,-1,2
 47 21 47 21 58 23 c 2,3,-1
 75 25 l 2,4,5
 116 30 116 30 116 66 c 2,6,-1
 116 634 l 2,7,8
 116 670 116 670 70 674 c 2,9,-1
 41 677 l 2,10,11
 30 679 30 679 30 690 c 0,12,13
 30 704 30 704 44 704 c 2,14,-1
 157 700 l 1,15,-1
 256 704 l 2,16,17
 271 704 271 704 271 692 c 0,18,19
 271 678 271 678 258 677 c 1,20,-1
 241 674 l 2,21,22
 201 667 201 667 201 634 c 2,23,-1
 201 66 l 2,24,25
 201 48 201 48 214 37.5 c 128,-1,26
 227 27 227 27 246 25 c 2,27,-1
 275 23 l 2,28,29
 287 23 287 23 287 10 c 0,30,31
 287 4 287 4 282.5 0 c 128,-1,32
 278 -4 278 -4 273 -4 c 2,33,-1
 160 0 l 1,34,-1
 61 -4 l 2,0,1
519 634 m 2,35,-1
 519 -5 l 2,36,37
 519 -107 519 -107 485.5 -169.5 c 128,-1,38
 452 -232 452 -232 392 -272 c 1,39,40
 348 -300 348 -300 335.5 -300 c 128,-1,41
 323 -300 323 -300 319 -293 c 0,42,43
 312 -280 312 -280 312 -275 c 128,-1,44
 312 -270 312 -270 319 -265 c 0,45,46
 370 -229 370 -229 384 -212 c 1,47,48
 434 -159 434 -159 434 -56 c 2,49,-1
 434 634 l 2,50,51
 434 670 434 670 388 674 c 2,52,-1
 359 677 l 2,53,54
 348 679 348 679 348 690 c 0,55,56
 348 704 348 704 362 704 c 2,57,-1
 475 700 l 1,58,-1
 574 704 l 2,59,60
 589 704 589 704 589 692 c 0,61,62
 589 678 589 678 576 677 c 1,63,-1
 559 674 l 2,64,65
 519 667 519 667 519 634 c 2,35,-1
EndSplineSet
EndChar

StartChar: ij
Encoding: 307 307 198
Width: 565
GlyphClass: 2
Flags: W
LayerCount: 2
Fore
SplineSet
241 23 m 2,0,1
 253 22 253 22 253 9 c 128,-1,2
 253 -4 253 -4 238 -4 c 2,3,-1
 143 0 l 1,4,-1
 35 -4 l 2,5,6
 20 -4 20 -4 20 9 c 128,-1,7
 20 22 20 22 32 23 c 2,8,-1
 60 25 l 2,9,10
 80 27 80 27 93 37.5 c 128,-1,11
 106 48 106 48 106 66 c 2,12,-1
 106 432 l 2,13,14
 106 452 106 452 97.5 459.5 c 128,-1,15
 89 467 89 467 70 467 c 2,16,-1
 36 467 l 2,17,18
 23 467 23 467 23 480 c 128,-1,19
 23 493 23 493 36 495 c 2,20,-1
 166 511 l 2,21,22
 184 513 184 513 184 488 c 2,23,-1
 184 66 l 2,24,25
 184 30 184 30 224 25 c 2,26,-1
 241 23 l 2,0,1
89 695 m 128,-1,28
 89 715 89 715 102.5 728 c 128,-1,29
 116 741 116 741 136 741 c 128,-1,30
 156 741 156 741 170 728 c 128,-1,31
 184 715 184 715 184 695 c 128,-1,32
 184 675 184 675 170 662 c 128,-1,33
 156 649 156 649 136 649 c 128,-1,34
 116 649 116 649 102.5 662 c 128,-1,27
 89 675 89 675 89 695 c 128,-1,28
379 695 m 128,-1,36
 379 715 379 715 392.5 728 c 128,-1,37
 406 741 406 741 426 741 c 128,-1,38
 446 741 446 741 460 728 c 128,-1,39
 474 715 474 715 474 695 c 128,-1,40
 474 675 474 675 460 662 c 128,-1,41
 446 649 446 649 426 649 c 128,-1,42
 406 649 406 649 392.5 662 c 128,-1,35
 379 675 379 675 379 695 c 128,-1,36
458 511 m 0,43,44
 475 511 475 511 475 488 c 2,45,-1
 475 -5 l 2,46,47
 475 -195 475 -195 355 -272 c 0,48,49
 311 -300 311 -300 298.5 -300 c 128,-1,50
 286 -300 286 -300 282 -293 c 0,51,52
 275 -282 275 -282 275 -275 c 128,-1,53
 275 -268 275 -268 282 -265 c 0,54,55
 321 -243 321 -243 347 -212 c 1,56,57
 397 -159 397 -159 397 -56 c 2,58,-1
 397 432 l 2,59,60
 397 452 397 452 388.5 459.5 c 128,-1,61
 380 467 380 467 361 467 c 2,62,-1
 327 467 l 2,63,64
 314 467 314 467 314 480 c 128,-1,65
 314 493 314 493 327 495 c 2,66,-1
 456 511 l 2,67,68
 457 511 457 511 458 511 c 0,43,44
EndSplineSet
EndChar

StartChar: jcircumflex
Encoding: 309 309 200
Width: 277
GlyphClass: 2
Flags: W
LayerCount: 2
Fore
SplineSet
187 488 m 2,0,-1
 187 -5 l 2,1,2
 187 -195 187 -195 67 -272 c 0,3,4
 23 -300 23 -300 10.5 -300 c 128,-1,5
 -2 -300 -2 -300 -6 -293 c 0,6,7
 -19 -271 -19 -271 -6 -265 c 1,8,9
 33 -243 33 -243 59 -212 c 1,10,11
 109 -159 109 -159 109 -56 c 2,12,-1
 109 432 l 2,13,14
 109 452 109 452 100.5 459.5 c 128,-1,15
 92 467 92 467 73 467 c 2,16,-1
 39 467 l 2,17,18
 26 467 26 467 26 480 c 128,-1,19
 26 493 26 493 39 495 c 2,20,-1
 168 511 l 2,21,22
 187 513 187 513 187 488 c 2,0,-1
2 592 m 1,23,-1
 -16 615 l 1,24,-1
 139 752 l 1,25,-1
 294 615 l 1,26,-1
 276 592 l 1,27,-1
 139 668 l 1,28,-1
 2 592 l 1,23,-1
EndSplineSet
EndChar

StartChar: kcommaaccent
Encoding: 311 311 201
Width: 564
GlyphClass: 2
Flags: W
LayerCount: 2
Fore
SplineSet
106 66 m 2,0,-1
 106 721 l 2,1,2
 106 741 106 741 97.5 748.5 c 128,-1,3
 89 756 89 756 70 756 c 2,4,-1
 36 756 l 2,5,6
 23 756 23 756 23 769 c 128,-1,7
 23 782 23 782 36 784 c 2,8,-1
 166 800 l 1,9,10
 184 800 184 800 184 777 c 2,11,-1
 184 296 l 2,12,13
 184 287 184 287 191 287 c 2,14,-1
 233 287 l 2,15,16
 241 287 241 287 247 293 c 2,17,-1
 388 441 l 1,18,19
 397 452 397 452 397 458.5 c 128,-1,20
 397 465 397 465 389.5 476 c 128,-1,21
 382 487 382 487 382 492 c 0,22,23
 382 503 382 503 396 503 c 2,24,-1
 459 500 l 1,25,-1
 533 504 l 2,26,27
 548 504 548 504 548 492 c 128,-1,28
 548 480 548 480 536 478 c 2,29,-1
 522 476 l 2,30,31
 488 471 488 471 462 444 c 2,32,-1
 307 287 l 2,33,34
 303 283 303 283 303 279.5 c 128,-1,35
 303 276 303 276 307 272 c 2,36,-1
 486 66 l 2,37,38
 520 27 520 27 539 25 c 2,39,-1
 557 23 l 2,40,41
 569 21 569 21 569 10 c 0,42,43
 569 -4 569 -4 555 -4 c 0,44,45
 480 0 480 0 462 0 c 2,46,-1
 401 -3 l 2,47,48
 386 -3 386 -3 386 8 c 0,49,50
 386 15 386 15 391.5 24.5 c 128,-1,51
 397 34 397 34 397 40 c 128,-1,52
 397 46 397 46 388 56 c 2,53,-1
 239 237 l 2,54,55
 233 243 233 243 226 243 c 2,56,-1
 193 243 l 2,57,58
 184 243 184 243 184 234 c 2,59,-1
 184 66 l 2,60,61
 184 30 184 30 224 25 c 2,62,-1
 241 23 l 2,63,64
 253 22 253 22 253 9 c 128,-1,65
 253 -4 253 -4 238 -4 c 2,66,-1
 143 0 l 1,67,-1
 35 -4 l 2,68,69
 20 -4 20 -4 20 9 c 128,-1,70
 20 22 20 22 32 23 c 2,71,-1
 60 25 l 2,72,73
 80 27 80 27 93 37.5 c 128,-1,74
 106 48 106 48 106 66 c 2,0,-1
257 -327 m 0,75,76
 239 -327 239 -327 239 -310 c 0,77,78
 239 -301 239 -301 246 -296 c 0,79,80
 298 -257 298 -257 301 -205 c 1,81,82
 271 -203 271 -203 255 -185.5 c 128,-1,83
 239 -168 239 -168 239 -142.5 c 128,-1,84
 239 -117 239 -117 257 -98.5 c 128,-1,85
 275 -80 275 -80 301 -80 c 128,-1,86
 327 -80 327 -80 346 -101 c 128,-1,87
 365 -122 365 -122 365 -166 c 128,-1,88
 365 -210 365 -210 335 -256 c 128,-1,89
 305 -302 305 -302 271 -322 c 0,90,91
 263 -327 263 -327 257 -327 c 0,75,76
EndSplineSet
EndChar

StartChar: kgreenlandic
Encoding: 312 312 202
Width: 564
GlyphClass: 2
Flags: W
LayerCount: 2
Fore
SplineSet
106 66 m 2,0,-1
 106 432 l 2,1,2
 106 452 106 452 97.5 459.5 c 128,-1,3
 89 467 89 467 70 467 c 2,4,-1
 36 467 l 2,5,6
 23 467 23 467 23 480 c 128,-1,7
 23 493 23 493 36 495 c 2,8,-1
 166 511 l 1,9,10
 184 511 184 511 184 488 c 2,11,-1
 184 296 l 2,12,13
 184 287 184 287 191 287 c 2,14,-1
 233 287 l 2,15,16
 241 287 241 287 247 293 c 2,17,-1
 388 441 l 1,18,19
 397 452 397 452 397 458.5 c 128,-1,20
 397 465 397 465 389.5 476 c 128,-1,21
 382 487 382 487 382 492 c 0,22,23
 382 503 382 503 396 503 c 2,24,-1
 459 500 l 1,25,-1
 533 504 l 2,26,27
 548 504 548 504 548 492 c 128,-1,28
 548 480 548 480 536 478 c 2,29,-1
 522 476 l 2,30,31
 488 471 488 471 462 444 c 2,32,-1
 307 287 l 2,33,34
 303 283 303 283 303 279.5 c 128,-1,35
 303 276 303 276 307 272 c 2,36,-1
 486 66 l 2,37,38
 520 27 520 27 539 25 c 2,39,-1
 557 23 l 2,40,41
 569 21 569 21 569 10 c 0,42,43
 569 -4 569 -4 555 -4 c 0,44,45
 480 0 480 0 462 0 c 2,46,-1
 401 -3 l 2,47,48
 386 -3 386 -3 386 8 c 0,49,50
 386 15 386 15 391.5 24.5 c 128,-1,51
 397 34 397 34 397 40 c 128,-1,52
 397 46 397 46 388 56 c 2,53,-1
 239 237 l 2,54,55
 233 243 233 243 226 243 c 2,56,-1
 193 243 l 2,57,58
 184 243 184 243 184 234 c 2,59,-1
 184 66 l 2,60,61
 184 30 184 30 224 25 c 2,62,-1
 241 23 l 2,63,64
 253 22 253 22 253 9 c 128,-1,65
 253 -4 253 -4 238 -4 c 2,66,-1
 143 0 l 1,67,-1
 35 -4 l 2,68,69
 20 -4 20 -4 20 9 c 128,-1,70
 20 22 20 22 32 23 c 2,71,-1
 60 25 l 2,72,73
 80 27 80 27 93 37.5 c 128,-1,74
 106 48 106 48 106 66 c 2,0,-1
EndSplineSet
EndChar

StartChar: Ldotaccent
Encoding: 319 319 203
Width: 594
GlyphClass: 2
Flags: W
LayerCount: 2
Fore
SplineSet
201 634 m 2,0,-1
 201 92 l 2,1,2
 201 71 201 71 214.5 58.5 c 128,-1,3
 228 46 228 46 250 46 c 2,4,-1
 395 46 l 2,5,6
 448 46 448 46 486 71.5 c 128,-1,7
 524 97 524 97 538 146 c 0,8,9
 543 162 543 162 559 162 c 128,-1,10
 575 162 575 162 573 144 c 2,11,-1
 557 40 l 2,12,13
 555 23 555 23 543 11.5 c 128,-1,14
 531 0 531 0 512 0 c 2,15,-1
 157 0 l 1,16,-1
 44 -4 l 2,17,18
 30 -4 30 -4 30 9.5 c 128,-1,19
 30 23 30 23 41 23 c 2,20,-1
 70 25 l 2,21,22
 90 27 90 27 103 37.5 c 128,-1,23
 116 48 116 48 116 66 c 2,24,-1
 116 634 l 2,25,26
 116 670 116 670 70 674 c 2,27,-1
 41 677 l 2,28,29
 30 679 30 679 30 690 c 0,30,31
 30 704 30 704 44 704 c 2,32,-1
 157 700 l 1,33,-1
 256 704 l 2,34,35
 271 704 271 704 271 692 c 0,36,37
 271 678 271 678 258 677 c 1,38,-1
 241 674 l 2,39,40
 201 667 201 667 201 634 c 2,0,-1
286 324 m 128,-1,42
 286 346 286 346 301 361 c 128,-1,43
 316 376 316 376 338 376 c 128,-1,44
 360 376 360 376 375 361 c 128,-1,45
 390 346 390 346 390 324 c 128,-1,46
 390 302 390 302 375 287 c 128,-1,47
 360 272 360 272 338 272 c 128,-1,48
 316 272 316 272 301 287 c 128,-1,41
 286 302 286 302 286 324 c 128,-1,42
EndSplineSet
EndChar

StartChar: ldot
Encoding: 320 320 204
Width: 370
GlyphClass: 2
Flags: W
LayerCount: 2
Fore
SplineSet
168 800 m 0,0,1
 184 800 184 800 184 777 c 2,2,-1
 184 66 l 2,3,4
 184 30 184 30 224 25 c 2,5,-1
 241 23 l 2,6,7
 253 22 253 22 253 9 c 128,-1,8
 253 -4 253 -4 238 -4 c 2,9,-1
 143 0 l 1,10,-1
 35 -4 l 2,11,12
 20 -4 20 -4 20 9 c 128,-1,13
 20 22 20 22 32 23 c 2,14,-1
 60 25 l 2,15,16
 80 27 80 27 93 37.5 c 128,-1,17
 106 48 106 48 106 66 c 2,18,-1
 106 721 l 2,19,20
 106 741 106 741 97.5 748.5 c 128,-1,21
 89 756 89 756 70 756 c 2,22,-1
 36 756 l 2,23,24
 23 756 23 756 23 769 c 128,-1,25
 23 782 23 782 36 784 c 2,26,-1
 166 800 l 2,27,28
 167 800 167 800 168 800 c 0,0,1
256 314 m 128,-1,30
 256 336 256 336 271 351 c 128,-1,31
 286 366 286 366 308 366 c 128,-1,32
 330 366 330 366 345 351 c 128,-1,33
 360 336 360 336 360 314 c 128,-1,34
 360 292 360 292 345 277 c 128,-1,35
 330 262 330 262 308 262 c 128,-1,36
 286 262 286 262 271 277 c 128,-1,29
 256 292 256 292 256 314 c 128,-1,30
EndSplineSet
EndChar

